<svg width="256" height="256" viewBox="0 0 256 256" fill="none" xmlns="http://www.w3.org/2000/svg">
<rect width="256" height="256" rx="20" fill="#030021"/>
<g clip-path="url(#clip0_2577_2862)">
<path d="M249.677 151.136L244.324 163.829H236.929L255.581 119.35H264.687L284.333 163.829H276.386L270.812 151.136H249.677ZM268.55 145.011C263.418 133.201 260.934 127.573 259.941 124.427H259.886C258.948 127.462 256.078 134.912 251.829 145.011H268.55ZM297.191 119.35H304.53V157.703H330.908L329.86 163.829H297.246V119.35H297.191ZM343.766 119.35H351.106V157.703H377.484L376.435 163.829H343.821V119.35H343.766ZM395.088 119.35V144.569C395.088 155.717 401.489 158.752 407.89 158.752C415.506 158.752 420.197 155.22 420.197 144.569V119.35H427.536V144.625C427.536 158.862 420.031 164.767 407.615 164.767C395.529 164.767 387.638 158.862 387.638 145.066V119.35H395.088ZM476.209 163.829L462.523 146.059H462.413L449.113 163.829H440.78L458.274 141.038L441.443 119.35H450.217L462.909 135.961L462.965 135.905L475.767 119.35H483.99L466.938 140.817L484.928 163.829H476.209ZM507.388 119.35V163.829H499.993V119.35H507.388ZM570.629 141.424C570.629 153.951 562.131 164.767 546.955 164.767C532.442 164.767 523.557 154.447 523.557 141.424C523.557 129.118 532.718 118.412 547.231 118.412C561.689 118.412 570.629 129.118 570.629 141.424ZM531.338 141.313C531.338 150.584 536.801 158.752 547.286 158.752C557.716 158.752 562.848 150.64 562.848 141.534C562.848 132.65 557.495 124.427 546.845 124.427C536.912 124.427 531.338 132.318 531.338 141.313ZM199.238 184.081H165.52L113.371 87.3983L65.3607 177.073H84.7304L119.386 111.845L123.36 119.074L88.8141 183.916H53.9375L113.371 72.9399L169.604 177.239H187.87L140.412 87.3431L134.341 98.4352L130.368 91.3164L140.577 72.9951L199.238 184.081Z" fill="white"/>
<path d="M147.362 163.553H106.747L110.334 156.71H143.72L147.362 163.553Z" fill="white"/>
</g>
<defs>
<clipPath id="clip0_2577_2862">
<rect width="150" height="111.818" fill="white" transform="translate(53 72)"/>
</clipPath>
</defs>
</svg>
