<?xml version="1.0" encoding="utf-8"?>
<!-- Generator: Adobe Illustrator 25.0.1, SVG Export Plug-In . SVG Version: 6.00 Build 0)  -->
<svg version="1.0" id="Layer_1" xmlns="http://www.w3.org/2000/svg" xmlns:xlink="http://www.w3.org/1999/xlink" x="0px" y="0px"
	 viewBox="0 0 1053 719.6" style="enable-background:new 0 0 1053 719.6;" xml:space="preserve">
<style type="text/css">
	.st0{fill:#949495;}
	.st1{fill:#00A3FF;}
	.st2{fill:#00C8DC;}
	.st3{fill:#006EFF;}
</style>
<path class="st0" d="M665.2,619.1c-7.2,8.2-17.6,12.9-28.5,13c-18.4,0-30.2-12.7-30.2-32.3c0-20,11.3-32.4,29.5-32.4
	c10.6,0.2,20.7,4.5,28.2,12c0.2,0.2,0.6,0.2,0.8,0c0,0,0,0,0,0c0.1-0.1,0.2-0.3,0.2-0.4v-10.1c-7.4-6.7-18.2-10.7-29.2-10.7
	c-11.4,0-21.1,4-28,11.6s-10.4,17.9-10.4,30.2c0,25,15.7,41.8,39.1,41.8c11.2,0,22.1-4.1,29.5-11v-11.1c0-0.3-0.3-0.6-0.6-0.6
	C665.5,618.9,665.3,619,665.2,619.1 M231.4,560.1H167v8.7h27.4v70.7h9.5v-70.7h27.4L231.4,560.1z M858,632.3
	c-9,0-18.8-6.7-18.8-21.4c0-10.8,5.7-22.4,18.2-22.4c13.9,0,18.9,11.8,18.9,21.9C876.3,621.4,870,632.3,858,632.3z M876.6,560.2v27
	c-4.9-5.3-13.1-7.3-19-7.3c-7.5-0.2-14.8,2.8-20,8.3c-5.1,5.5-7.8,13.1-7.8,22c0,21.2,14.1,30.7,28,30.7c8.1,0,14.8-2.9,18.8-8.1
	v6.7h9.4v-79.4L876.6,560.2L876.6,560.2z M678.8,639.7h9.6v-79.4h-9.6V639.7z M352.1,610.5c0,18.3,11.8,30.5,29.4,30.5
	c7.3,0.1,14.5-2.1,20.6-6.3V625c0-0.3-0.3-0.6-0.6-0.6c-0.1,0-0.3,0-0.4,0.1c-6.2,5.6-15.2,7.8-19.1,7.8c-12.7,0-21-8.5-21-21.8
	s8.2-21.8,21-21.8c3.9,0,12.6,1.1,19.1,6.7c0.2,0.2,0.6,0.2,0.8,0c0.1-0.1,0.1-0.2,0.1-0.4v-8.8c-3.9-2.5-12.1-6.2-20.6-6.2
	C363.9,580,352.1,592.3,352.1,610.5 M236.1,605v-0.2c0.3-4.9,2.6-9.5,6.4-12.6c3.2-2.6,7.3-4,11.4-3.9c10.4,0,17.1,6.3,17.6,16.5
	v0.2H236.1z M254.2,580c-16.6,0-27.4,11.9-27.4,30.3c0.6,19.2,11.5,30.6,29.1,30.6c8.1,0.1,15.9-2.9,21.9-8.4v-9.5
	c0-0.3-0.3-0.6-0.6-0.5c-0.1,0-0.3,0.1-0.4,0.2c-4.2,5.6-14.3,10.1-20.5,10.1c-5.9,0-11.5-2-14.6-5.1c-3.7-3.9-5.7-9.1-5.7-14.5
	h44.4v-0.7c0-12.5-2.1-19.6-7.6-25.3C268.4,582.5,262.1,580.1,254.2,580L254.2,580z M809.5,611c0,15.8-9.1,21.4-16.9,21.4
	c-7.6,0-15.6-5.2-15.6-14.9v-36.2h-9v36c0,13.9,10,23.7,24.2,23.7c7.9,0,14-2.7,18-7.7v6.3h8.6v-58.3h-9.2L809.5,611z M317.9,580
	c-7.3,0-13.4,2.4-17.6,6.9v-5.6h-9v58.3h9.2v-33.2c0-5.5,1.7-10.2,4.7-13.1c3.3-3.2,7.8-4.9,12.4-4.6c7.2,0.2,14.4,5,14.4,15.1v35.8
	h9.2v-36.2c0-7.2-2.3-13.2-6.6-17.3C330.5,582.1,324.7,580,317.9,580 M420.2,605v-0.2c0.3-4.9,2.6-9.5,6.5-12.6
	c3.2-2.6,7.3-4,11.4-3.9c10.4,0,17.1,6.3,17.6,16.5v0.2L420.2,605z M438.3,580c-16.6,0-27.4,11.9-27.4,30.3
	c0.6,19.2,11.5,30.6,29.1,30.6c8.1,0.1,15.9-2.9,21.9-8.4v-9.5c0-0.3-0.3-0.6-0.6-0.5c-0.2,0-0.3,0.1-0.4,0.2
	c-4.2,5.6-14.3,10.1-20.5,10.1c-5.9,0-11.5-2-14.6-5.1c-3.7-3.9-5.7-9.1-5.7-14.5h44.4v-0.7c0-12.5-2.1-19.6-7.6-25.3
	C452.5,582.5,446.2,580,438.3,580L438.3,580z M501.8,580c-7.3,0-13.4,2.4-17.6,6.9v-5.6h-9v58.3h9.2v-33.2c0-5.5,1.7-10.2,4.7-13.1
	c3.3-3.2,7.8-4.9,12.4-4.6c7.2,0.2,14.4,5,14.4,15.1v35.8h9.2v-36.2c0-7.2-2.3-13.2-6.6-17.3C514.4,582.1,508.6,580,501.8,580
	 M553.4,565.8H544v15.6h-9.6v8.5h9.6v40.1c0,3.5,1,6.1,3.1,7.9c2.3,1.8,5.2,2.7,8.1,2.6c4.1-0.4,8.1-1.3,12-2.7v-8.8
	c0-0.3-0.3-0.6-0.6-0.6c-0.1,0-0.1,0-0.2,0c-3.2,1.1-6.5,2-9.8,2.7c-1,0.2-1.8,0.3-2.4-0.2c-0.5-0.5-0.7-1.2-0.6-1.8v-39.2h16.8
	v-8.5h-16.8L553.4,565.8z M729.2,632.2c-11.7,0-19.5-8.8-19.5-21.7l0,0c0-12.9,7.9-21.6,19.5-21.6s19.5,8.7,19.5,21.7
	S740.9,632.2,729.2,632.2 M729.2,580.2c-16.9,0-28.2,12.2-28.2,30.4s11.4,30.4,28.3,30.4s28.3-12.2,28.3-30.4
	S746.2,580.1,729.2,580.2"/>
<path class="st1" d="M724.4,396.5c-8.7,8.7-26.1,21.7-56.5,21.7h-187c56.5-54.1,104.4-99.6,108.8-104c8.3-8.4,17-16.3,26.1-23.8
	c21.8-19.5,39.1-21.7,54.4-21.7c21.7,0,39.1,8.7,54.4,21.6C754.9,318.5,754.9,368.4,724.4,396.5z M761.4,255.6
	c-23-24.8-55.3-39-89.2-39c-30.4,0-56.5,10.9-80.5,28.2c-8.8,8.7-21.8,17.3-32.7,30.3c-8.7,8.7-195.7,190.7-195.7,190.7
	c10.9,2.2,23.9,2.2,34.8,2.2h237.1c17.4,0,30.5,0,43.5-2.2c30-2.2,58.3-14.4,80.5-34.7C809.2,383.5,809.2,303.4,761.4,255.6
	L761.4,255.6z"/>
<path class="st2" d="M456.9,242.6c-23.9-17.3-47.9-26-76.1-26c-33.9,0-66.2,14.2-89.2,39c-48.4,49.7-47.4,129.2,2.2,177.7
	c21.7,19.5,43.5,30.3,69.6,32.5l50-47.7h-28.3c-28.3-2.1-45.7-10.8-56.5-21.6c-30-29.6-30.9-77.6-2.2-108.3
	c15.2-15.2,32.6-21.7,54.4-21.7c13.1,0,32.6,2.1,52.2,21.6c8.7,8.7,32.6,26,41.3,34.7h2.1l32.6-32.5v-2.2
	C493.9,273,470,253.5,456.9,242.6"/>
<path class="st3" d="M685.3,188.5c-24.7-66.3-88-110.4-158.8-110.5c-84.8,0-152.2,62.8-165.3,140.8c6.5,0,13.1-2.1,21.8-2.1
	c8.7,0,19.6,2.1,28.3,2.1c10.9-54.2,58.7-93.2,115.3-93.2c47.8,0,89.2,28.2,108.7,69.3c0,0,2.2,2.2,2.2,0
	C652.6,192.8,670,188.5,685.3,188.5L685.3,188.5"/>
</svg>
