<svg xmlns="http://www.w3.org/2000/svg" viewBox="0 0 59.79 37.28" fill="#ff6a00" width="60" height="37"><rect x="19.94" y="16.3" width="19.92" height="4.49"></rect><path d="M49.84,0H36.66l3.18,4.5,9.61,3a4.15,4.15,0,0,1,2.9,4V25.84h0a4.17,4.17,0,0,1-2.9,4l-9.61,2.94-3.18,4.5H49.84a9.94,9.94,0,0,0,9.95-10V10A10,10,0,0,0,49.84,0Z"></path><path d="M10,0H23.14L20,4.5l-9.61,3a4.16,4.16,0,0,0-2.91,4V25.84h0a4.18,4.18,0,0,0,2.91,4L20,32.78l3.18,4.5H10a10,10,0,0,1-10-10V10A10,10,0,0,1,10,0Z"></path></svg>
