<svg xmlns="http://www.w3.org/2000/svg" xmlns:xlink="http://www.w3.org/1999/xlink" fill="none" version="1.1" width="90" height="27" viewBox="0 0 90 27"><defs><clipPath id="master_svg0_865_12220"><rect x="0" y="0" width="90" height="27" rx="0"/></clipPath></defs><g clip-path="url(#master_svg0_865_12220)"><g><path d="M88.6994171625,10.73370361328125L88.4410829625,13.76266841328125L87.1910858625,13.76266841328125C85.1994199625,13.76266841328125,84.1660826625,15.34335801328125,84.1660826625,16.86611651328125L84.1660826625,23.71025361328125L80.6494140625,23.71025361328125L80.6494140625,10.73370361328125L83.9910800625,10.73370361328125L84.0660798625,12.35577211328125C84.7660827625,11.24680680328125,85.9910764625,10.73370361328125,87.50774816250001,10.73370361328125L88.6994171625,10.73370361328125Z" fill="#002856" fill-opacity="1"/></g><g><path d="M64.2576161875,23.71038177734375L60.7326154875,23.71038177734375L60.7326154875,16.84969187734375C60.7326154875,15.409690877343749,60.5992822875,13.60555477734375,58.5742835875,13.60555477734375C56.6159510875,13.60555477734375,55.8326174875,15.012451177343749,55.8326174875,16.64279607734375L55.8326174875,23.70210577734375L52.3076171875,23.70210577734375L52.3076171875,10.73382892734375L55.5826143875,10.73382892734375L55.6576141875,12.38900197734375C56.3576125875,11.28003656734375,57.6659469875,10.41107177734375,59.5909490875,10.41107177734375C63.149283187500004,10.41107177734375,64.2659461875,12.93520977734375,64.2659461875,15.55038307734375L64.2576161875,23.71038177734375Z" fill="#002856" fill-opacity="1"/></g><g><path d="M50.766797575,20.681444734375L50.516798975,23.635926734375C49.700129475,23.851098734375,48.858467075,23.958686734375,48.008464375,23.942134734375C44.683465545,23.942134734375,43.716796875,22.427650734375,43.716796875,19.382134734375L43.716796875,7.075927734375L47.250128275,7.075927734375L47.250128275,10.733859534375L50.758461475,10.733859534375L50.516794175,13.762824034375L47.250128275,13.762824034375L47.250128275,19.109030734375C47.250128275,20.333860734375,47.583462475,20.987652734375,48.850126275,20.987652734375C49.500128275,20.995928734375,50.150130275,20.888344734375,50.766797575,20.681444734375Z" fill="#002856" fill-opacity="1"/></g><g><path d="M42.567315575,10.73370361328125L42.292314075,13.76266841328125L41.333981975,13.76266841328125C39.350646975000004,13.76266841328125,38.358982275,15.34335801328125,38.358982275,16.86611651328125L38.358982275,23.71025361328125L34.833984375,23.71025361328125L34.833984375,10.73370361328125L38.167318575,10.73370361328125L38.233985375,12.35577211328125C38.942317475,11.25508290328125,40.167320275,10.73370361328125,41.683987175,10.73370361328125L42.567315575,10.73370361328125Z" fill="#002856" fill-opacity="1"/></g><g><path d="M18.9082675625,22.27035701171875C16.516602562499997,23.54484001171875,14.1249355625,24.27311701171875,10.9666005625,24.18207901171875C5.1166009625,24.00828701171875,0.8916015625,20.39173701171875,0.8916015625,14.30070301171875C0.8916015625,8.23449471171875,5.1582679625,4.35311653471875,10.9749345625,4.26208268791875C13.9249345625,4.22070325171875,16.558266562500002,4.95725471171875,18.6249355625,6.7696695117187495L16.133267562500002,9.26070361171875C14.8582685625,8.17656681171875,12.9832665625,7.54760031171875,10.7332677625,7.64691021171875C7.0749344625,7.81242801171875,4.8666012625,10.46070341171875,4.8166010625,14.08553031171875C4.7666010624999995,18.01656501171875,7.1999344625,20.73104901171875,10.9999345625,20.83036001171875C12.7916015625,20.87173801171875,14.0665995625,20.64001701171875,15.1749335625,20.14346201171875L15.1749335625,16.12966701171875L11.2249345625,16.12966701171875L11.4916015625,12.82759761171875L18.8999325625,12.82759761171875L18.9082675625,22.27035701171875Z" fill="#002856" fill-opacity="1"/></g><g><path d="M79.074617375,18.46338848828125L69.399612475,18.46338848828125C69.674613975,20.11856078828125,70.991279575,21.119937488281252,72.624612375,21.16959548828125C74.216279075,21.210974488281252,75.099612275,20.739252488281252,76.266278375,19.56408028828125L78.566280375,21.29373548828125C76.932942375,23.296494488281247,74.966279075,24.02476848828125,72.724611275,24.02476848828125C68.791276475,24.02476848828125,65.849609375,21.29373548828125,65.849609375,17.22200968828125C65.849609375,13.15028428828125,68.782945175,10.41925048828125,72.582946775,10.41925048828125C76.774616375,10.41925048828125,79.066276375,12.94338818828125,79.066276375,17.41235308828125L79.074617375,18.46338848828125ZM75.541281675,15.740630588281249C75.432947175,14.10201028828125,74.199612575,13.06752748828125,72.491279575,13.13373398828125C70.791277875,13.19994068828125,69.632947875,14.30890628828125,69.399612475,15.740630588281249L75.541281675,15.740630588281249Z" fill="#002856" fill-opacity="1"/></g><g><path d="M32.608607375,15.21077775L32.608607375,23.71008875L29.491941475,23.71008875L29.416940675,22.42732975C28.466941875,23.60250075,26.916940675,24.02457275,25.316941775,24.02457275C22.916941875,24.02457275,20.65027466,22.84939875,20.60027542111,20.110088349999998C20.53360901,15.806639650000001,25.483609675,15.50043295,28.591940875,15.50043295L29.216941875,15.50043295L29.216941875,15.32663865C29.216941875,13.90319035,28.266942475,13.133534449999999,26.483609675,13.133534449999999C25.183609475,13.14181065,23.941943375,13.63008545,22.991944075,14.51560215L20.958610535,12.46318965C22.591943375,11.1142239,24.658611275,10.385948528,26.775279075,10.419050714C30.825273375000002,10.4190529869,32.608607375,12.27284575,32.608607375,15.21077775ZM29.216939975000003,18.04939885L28.725274075,18.04939885C27.058607075,18.04939885,24.125273275,18.13215735,24.133606675,19.87008955C24.150274075,22.31974375,29.216939975000003,21.53353775,29.216939975000003,18.58732985L29.216939975000003,18.04939885Z" fill="#002856" fill-opacity="1"/></g><g><path d="M85.950198355,22.19571053125C85.975201425,21.40950447125,86.633529675,20.79709026125,87.416863875,20.82191637125C88.208529675,20.84674469125,88.825201475,21.50053713125,88.800198275,22.27846713125C88.775195075,23.04812313125,88.141860975,23.65226123125,87.375198375,23.65226123125C86.583532755,23.65226123125,85.950198355,23.01502063125,85.950198355,22.23708863125C85.950198355,22.22881483125,85.950198355,22.21226263125,85.950198355,22.19571053125ZM87.375198375,23.95019223125C88.341867175,23.93364023125,89.125201275,23.14743423125,89.108529775,22.17915823125C89.091867175,21.21915847125,88.300192375,20.44122642825,87.325192375,20.45777865706C86.366854905,20.47433088725,85.591860961918,21.24398458125,85.591860961918,22.19571053125C85.5835296623,23.15571023125,86.366864025,23.94191833125,87.333523675,23.95019223125C87.350195275,23.95019223125,87.366867175,23.95019223125,87.375198375,23.95019223125ZM87.000198275,22.33639983125L87.35853577500001,22.33639983125L87.891867175,23.20536443125L88.233532675,23.20536443125L87.666866975,22.31984763125C87.966866775,22.28674333125,88.183535775,22.12122773125,88.183535775,21.76536383125C88.183535775,21.36812180125,87.950204375,21.19433015125,87.466870175,21.19433015125L86.700207475,21.19433015125L86.700207475,23.20536443125L87.008538975,23.20536443125L87.000198275,22.33639983125ZM87.000198275,22.07984933125L87.000198275,21.45915903125L87.416863875,21.45915903125C87.633532775,21.45915903125,87.858532875,21.50053713125,87.858532875,21.75708993125C87.858532875,22.06329713125,87.625201475,22.08812543125,87.366867175,22.08812543125L87.000198275,22.07984933125Z" fill="#002856" fill-opacity="1"/></g></g></svg>