<svg xmlns="http://www.w3.org/2000/svg" viewBox="0 0 295.93 37.28" fill="#ff6a00" width="296" height="37"><rect x="19.94" y="16.3" width="19.92" height="4.49"></rect><path d="M49.84,0H36.66l3.18,4.5,9.61,3a4.15,4.15,0,0,1,2.9,4V25.84h0a4.17,4.17,0,0,1-2.9,4l-9.61,2.94-3.18,4.5H49.84a9.94,9.94,0,0,0,9.95-10V10A10,10,0,0,0,49.84,0Z"></path><path d="M10,0H23.14L20,4.5l-9.61,3a4.16,4.16,0,0,0-2.91,4V25.84h0a4.18,4.18,0,0,0,2.91,4L20,32.78l3.18,4.5H10a10,10,0,0,1-10-10V10A10,10,0,0,1,10,0Z"></path><path d="M221.19,26a5.91,5.91,0,0,1-11.81,0V11.78a5.91,5.91,0,0,1,11.81,0V12h4.52v-.17a10.43,10.43,0,0,0-20.85,0V26a10.42,10.42,0,0,0,20.84,0v-.19h-4.52Z"></path><path d="M244.67,10.69a8.92,8.92,0,0,0-9,8.45v8.73a9,9,0,0,0,17.91,0V19.13A8.9,8.9,0,0,0,244.67,10.69Zm4.43,16.67a4.43,4.43,0,1,1-8.86,0V19.65a4.43,4.43,0,1,1,8.86,0Z"></path><rect x="227.95" y="1.48" width="4.5" height="34.28"></rect><rect x="103.81" y="10.69" width="4.5" height="25.07"></rect><rect x="94.81" y="1.48" width="4.5" height="34.28"></rect><path d="M83.45,1.48H77.9L68.8,35.71v0h4.49l2.42-9.1,10,0,2.41,9v0h4.49L83.45,1.5Zm1,20.72H76.89L80.67,8Z"></path><path d="M270.27,27.83a4.44,4.44,0,1,1-8.88,0V10.69h-4.51V28.57A7.76,7.76,0,0,0,266.94,36a6.21,6.21,0,0,0,1.24-.51,7.7,7.7,0,0,0,1.87-1.35l.2-.19v1.84h4.54V10.69h-4.52Z"></path><rect x="103.81" y="1.48" width="4.5" height="4.51"></rect><path d="M122.93,10.66a7.72,7.72,0,0,0-5.42,2.22l-.19.19V1.48h-4.51V35.76h4.51V33.92l.19.19a7.76,7.76,0,0,0,13.18-5.54V18.42A7.77,7.77,0,0,0,122.93,10.66Zm3.31,8.58v8.51a4.45,4.45,0,1,1-8.9,0V19.24a4.45,4.45,0,1,1,8.9,0Z"></path><path d="M164.89,10.66a7.72,7.72,0,0,0-5.43,2.22l-.19.19V1.48h-4.5V35.76h4.5V33.92l.19.19a7.76,7.76,0,0,0,13.18-5.54V18.42A7.77,7.77,0,0,0,164.89,10.66Zm3.3,8.58v8.5a4.45,4.45,0,1,1-8.9,0v-8.5a4.45,4.45,0,1,1,8.9,0Z"></path><path d="M291.42,1.48V13.07l-.19-.19a7.75,7.75,0,0,0-13.18,5.54V28.6a7.76,7.76,0,0,0,13.18,5.51l.19-.19v1.84h4.51V1.48Zm0,17.76v8.5a4.45,4.45,0,1,1-8.9,0v-8.5a4.45,4.45,0,1,1,8.9,0Z"></path><path d="M151.53,19.17a7.51,7.51,0,0,0-.09-.88l0-.12a9.2,9.2,0,0,0-1.54-3.76,8.79,8.79,0,0,0-6.69-3.73l-.52,0A9,9,0,0,0,133.83,18v0h4.42v0a4.45,4.45,0,0,1,4.35-3.59A4.46,4.46,0,0,1,147,18.69v2.1h-6.39a7.75,7.75,0,0,0-2,15.25l.12,0,.43.1.54.08h.11a10.9,10.9,0,0,0,1.17.06,8.5,8.5,0,0,0,2.71-.39,7.61,7.61,0,0,0,3.07-1.85l.2-.19v1.84h4.5v-3h0Zm-10.06,5H147v3.17a5,5,0,0,1-4.09,4.92,4.47,4.47,0,0,1-1,.12,4.52,4.52,0,0,1-2.28-.64,4.79,4.79,0,0,1-.58-.37,4.5,4.5,0,0,1-.69-.69l-.05-.06a4,4,0,0,1,3.19-6.45Z"></path><path d="M193.54,19.19a7.51,7.51,0,0,0-.09-.88l0-.12a9.16,9.16,0,0,0-1.54-3.75,8.85,8.85,0,0,0-6.69-3.74h-.52A9,9,0,0,0,175.84,18v0h4.41v0a4.43,4.43,0,0,1,8.78.68v2.1h-6.4a7.75,7.75,0,0,0-1.95,15.25l.12,0,.43.1.54.08h.11a10.82,10.82,0,0,0,1.17.07,8.5,8.5,0,0,0,2.71-.39,7.84,7.84,0,0,0,3.07-1.85l.2-.19v1.84h4.5v-3h0Zm-10.06,5H189V27.4a5,5,0,0,1-4.09,4.92,4.47,4.47,0,0,1-1,.12,4.52,4.52,0,0,1-2.28-.64,3.82,3.82,0,0,1-.58-.37,4.57,4.57,0,0,1-.7-.69l0-.06a3.94,3.94,0,0,1-.83-2.42A4,4,0,0,1,183.48,24.23Z"></path></svg>
