<svg xmlns="http://www.w3.org/2000/svg" xml:space="preserve" viewBox="0 0 840 979.9"><linearGradient id="a" x1="203.348" x2="636.696" y1="-25.413" y2="725.168" gradientTransform="translate(0 140.11)" gradientUnits="userSpaceOnUse"><stop offset="0" style="stop-color:#ff00a0"/><stop offset="1" style="stop-color:#9600ff"/></linearGradient><path d="M420 257.8 653.3 387v-51.8L420 206.3c-34.7 19.2-202.4 111.9-233.3 128.9 28.7 15.9 330.1 182.4 513.3 283.6v51.6c-24.9 13.8-280 154.7-280 154.7-69.8-38.5-210.3-116.1-280-154.7V515.7l280 154.7 46.7-25.8L93.3 438.4v257.9L420 876.7c32.2-17.8 302.8-167.3 326.6-180.5V593.1L280 335.2zM93.3 283.6v103.2l466.6 257.9-140 77.4-233.3-129.2v51.8l233.3 128.9c34.7-19.2 202.4-111.9 233.3-128.9-28.7-15.9-330-182.4-513.2-283.7v-51.6c24.9-13.8 280-154.7 280-154.7 69.7 38.6 210.2 116.2 280 154.7v154.7L420 309.4l-46.7 25.8 373.3 206.3V283.6L420 103.1C387.7 121 117.2 270.5 93.3 283.6M420 0 0 232.1v515.7l420 232.1 420-232V232.1zm373.2 722L420 928.3 46.7 722V257.9L420 51.6l373.3 206.3z" style="fill:url(#a)"/></svg>