<svg width="24" height="24" viewBox="0 0 24 24" fill="none" xmlns="http://www.w3.org/2000/svg">
<path d="M8.32509 7.82098C8.75769 7.07208 9.83981 7.072 10.2724 7.82098L14.0028 14.2839L15.6063 11.5085C16.1255 10.6097 17.4233 10.6095 17.9423 11.5085L21.7352 18.0778C22.254 18.9766 21.605 20.1009 20.5673 20.1013H15.4306C15.4258 20.1013 15.4207 20.1022 15.4159 20.1022H3.18153C2.3166 20.1021 1.77648 19.1658 2.20888 18.4167L8.32509 7.82098Z" fill="#0C0D0E"/>
<path d="M17.8622 2.89078C17.9698 2.59094 18.3938 2.59094 18.5014 2.89078C18.8947 3.98713 19.7845 4.8321 20.8997 5.1683C21.2283 5.26737 21.2283 5.73263 20.8997 5.8317C19.7845 6.1679 18.8947 7.01287 18.5014 8.10922C18.3938 8.40906 17.9698 8.40906 17.8622 8.10922L17.8037 7.94606C17.4437 6.94267 16.6657 6.14504 15.6717 5.7601C15.4341 5.66809 15.4341 5.33191 15.6717 5.2399C16.6657 4.85496 17.4437 4.05733 17.8037 3.05394L17.8622 2.89078Z" fill="#0C0D0E"/>
</svg>
