<?xml version="1.0" encoding="UTF-8"?>
<svg id="Layer_1" xmlns="http://www.w3.org/2000/svg" viewBox="0 0 1000 293.9285746">
  <defs>
    <style>
      .cls-1 {
        fill: #7c297d;
      }

      .cls-2 {
        fill: #f79a23;
      }

      .cls-3 {
        fill: #dd552c;
      }

      .cls-4 {
        fill: #d22128;
      }
    </style>
  </defs>
  <path class="cls-1" d="M338.7559108,209.493365l-49.6682702-125.0581554h-27.8676331l-49.6682702,125.0581554h30.1934425l8.5764219-21.6170206h49.6644449l8.3966307,21.6170206h30.3732336ZM257.6471359,165.5439845l17.5086008-45.7358163,17.6845666,45.7358163h-35.1931674Z"/>
  <path class="cls-1" d="M392.0544328,174.6559546h20.366133c30.1934425,0,49.6644449-17.688392,49.6644449-45.2002681,0-27.3359103-19.4710024-45.0204769-49.6644449-45.0204769h-48.7731397v125.0581554h28.4070067v-34.8374104ZM391.8746416,109.2693447h18.2239402c14.8270345,0,23.2236652,7.5015001,23.2236652,20.366133,0,13.2203899-8.3966307,20.5459242-23.2236652,20.5459242h-18.2239402v-40.9120571Z"/>
  <path class="cls-1" d="M546.3190918,84.4352096h-27.8676331l-49.6682702,125.0581554h30.1934425l8.5764219-21.6170206h49.6644449l8.3966307,21.6170206h30.3732336l-49.6682702-125.0581554ZM514.8785871,165.5439845l17.5086008-45.7358163,17.6845666,45.7358163h-35.1931674Z"/>
  <path class="cls-1" d="M708.1311551,161.6153559c-5.1795162,14.4712774-18.399906,23.4034563-34.8374104,23.4034563-21.2612635,0-36.2680892-15.5423738-36.2680892-38.054525,0-22.688117,15.1866168-38.054525,36.4478804-38.054525,15.8981309,0,29.1185207,8.5764219,33.7624887,22.5121511h29.3021372c-7.1457431-30.1934425-32.1596694-49.488479-63.9597565-49.488479-37.8747338,0-64.4953047,26.7965367-64.4953047,65.0308529,0,38.2304908,26.6205709,65.0308529,64.6750958,65.0308529,32.8711835,0,58.4206579-20.010376,64.6712705-50.3797843h-29.2983119Z"/>
  <polygon class="cls-1" points="795.7468406 159.1135808 844.5199803 159.1135808 844.5199803 209.493365 872.9231616 209.493365 872.9231616 84.4352096 844.5199803 84.4352096 844.5199803 132.4930099 795.7468406 132.4930099 795.7468406 84.4352096 767.339834 84.4352096 767.339834 209.493365 795.7468406 209.493365 795.7468406 159.1135808"/>
  <polygon class="cls-1" points="939.759577 185.3745693 939.759577 158.038659 988.8884736 158.038659 988.8884736 134.0996545 939.759577 134.0996545 939.759577 108.3742142 993.536267 108.3742142 993.536267 84.4352096 911.5323615 84.4352096 911.5323615 209.493365 995.4986686 209.493365 995.4986686 185.3745693 939.759577 185.3745693"/>
  <polygon class="cls-1" points="221.3560947 62.43948 226.6197684 62.43948 226.6197684 27.0971241 239.8860624 27.0971241 239.8860624 21.9482107 208.0898007 21.9482107 208.0898007 27.0971241 221.3560947 27.0971241 221.3560947 62.43948"/>
  <polygon class="cls-1" points="255.8377481 44.3838549 276.5596381 44.3838549 276.5596381 62.43948 281.8768666 62.43948 281.8768666 21.9482107 276.5596381 21.9482107 276.5596381 39.2311162 255.8377481 39.2311162 255.8377481 21.9482107 250.5778997 21.9482107 250.5778997 62.43948 255.8377481 62.43948 255.8377481 44.3838549"/>
  <polygon class="cls-1" points="322.0621084 57.4550564 302.0785098 57.4550564 302.0785098 44.3264748 320.0270252 44.3264748 320.0270252 39.3420512 302.0785098 39.3420512 302.0785098 26.8790795 321.457704 26.8790795 321.457704 21.9482107 296.8186614 21.9482107 296.8186614 62.43948 322.0621084 62.43948 322.0621084 57.4550564"/>
  <path class="cls-1" d="M226.0191894,253.3853654c-8.5037403-1.9203228-10.244272-4.2843856-10.244272-7.2452021,0-3.8100429,3.4007311-6.177931,8.8747987-6.177931,5.9598864,0,9.4065216,2.7236451,9.7010731,7.6659899l.0573802.921908h5.1948175l-.0459041-1.0251923c-.355757-7.8228291-5.9254583-12.4935744-14.9073667-12.4935744-8.5878979,0-14.1384725,4.3608925-14.1384725,11.1087998,0,6.2926914,4.2308308,9.888515,14.1422978,12.0192317,9.0048604,2.0159564,10.244272,4.7281255,10.244272,7.3561371,0,3.9477553-3.5690462,6.399801-9.3147133,6.399801-6.2620886,0-10.1754158-3.0296727-10.4699673-8.1059045l-.0535548-.921908h-5.2598484l.0535548,1.0290176c.4131372,7.9758428,6.4380544,12.9296637,15.7298157,12.9296637,9.0239872,0,14.6319419-4.3838446,14.6319419-11.4416048,0-6.2200098-4.2461322-9.8158334-14.1958526-12.0192317Z"/>
  <path class="cls-1" d="M271.3533445,235.0313635c-12.344386,0-20.9628867,8.5955486-20.9628867,20.9055065s8.6185007,20.9093319,20.9628867,20.9093319c12.3099579,0,20.9055065-8.599374,20.9055065-20.9093319s-8.5955486-20.9055065-20.9055065-20.9055065ZM271.3533445,271.6934631c-9.3261894,0-15.5921033-6.3309448-15.5921033-15.7565931,0-9.421823,6.2659139-15.7527678,15.5921033-15.7527678,9.2917613,0,15.5347231,6.3309448,15.5347231,15.7527678,0,9.4256483-6.2429619,15.7565931-15.5347231,15.7565931Z"/>
  <polygon class="cls-1" points="305.0048982 276.1844173 310.2647466 276.1844173 310.2647466 259.0660016 326.725203 259.0660016 326.725203 254.0777527 310.2647466 254.0777527 310.2647466 240.7311265 328.1558818 240.7311265 328.1558818 235.693148 305.0048982 235.693148 305.0048982 276.1844173"/>
  <polygon class="cls-1" points="337.669513 240.8420614 350.935807 240.8420614 350.935807 276.1844173 356.1994808 276.1844173 356.1994808 240.8420614 369.4657747 240.8420614 369.4657747 235.693148 337.669513 235.693148 337.669513 240.8420614"/>
  <polygon class="cls-1" points="420.5685491 266.9691629 409.2493553 235.693148 404.6818942 235.693148 393.3550498 266.9041321 383.1184285 235.693148 377.5946314 235.693148 390.8379733 276.1844173 395.5431467 276.1844173 406.9656248 244.6100256 418.445483 276.1844173 423.0856256 276.1844173 436.3939984 235.693148 430.8051704 235.693148 420.5685491 266.9691629"/>
  <path class="cls-1" d="M460.2679721,235.693148h-4.555985l-16.7741347,40.4912693h5.6385575l4.0739917-9.7431519h18.6256013l4.0739917,9.7431519h5.6385575l-16.4681072-39.8868649-.2524727-.6044044ZM465.4207108,261.5639514h-14.8576372l7.4058665-18.0785771,7.4517707,18.0785771Z"/>
  <path class="cls-1" d="M516.1830295,248.726096c0-7.9184627-5.4205129-13.032948-13.8056675-13.032948h-15.3472813v40.4912693h5.2598484v-14.4789281h8.8097679l10.2404467,14.4789281h6.3653729l-10.710964-15.0527298c5.7074137-1.6181206,9.188477-6.2506126,9.188477-12.4055915ZM492.2899291,240.6775716h9.7584533c5.5199718,0,8.8174186,3.010546,8.8174186,8.0485244,0,5.0073757-3.2974468,7.9949696-8.8174186,7.9949696h-9.7584533v-16.0434939Z"/>
  <polygon class="cls-1" points="534.6403157 258.0714121 552.5888311 258.0714121 552.5888311 253.0869885 534.6403157 253.0869885 534.6403157 240.6240168 554.0195098 240.6240168 554.0195098 235.693148 529.3804673 235.693148 529.3804673 276.1844173 554.6239142 276.1844173 554.6239142 271.1999937 534.6403157 271.1999937 534.6403157 258.0714121"/>
  <polygon class="cls-1" points="588.6273996 276.1844173 593.887248 276.1844173 593.887248 259.0660016 610.3477045 259.0660016 610.3477045 254.0777527 593.887248 254.0777527 593.887248 240.7311265 611.7783832 240.7311265 611.7783832 235.693148 588.6273996 235.693148 588.6273996 276.1844173"/>
  <path class="cls-1" d="M642.220473,235.0313635c-12.344386,0-20.9628867,8.5955486-20.9628867,20.9055065s8.6185007,20.9093319,20.9628867,20.9093319c12.3099579,0,20.9055065-8.599374,20.9055065-20.9093319s-8.5955486-20.9055065-20.9055065-20.9055065ZM642.220473,271.6934631c-9.3261894,0-15.5921033-6.3309448-15.5921033-15.7565931,0-9.421823,6.2659139-15.7527678,15.5921033-15.7527678,9.2917613,0,15.5347231,6.3309448,15.5347231,15.7527678,0,9.4256483-6.2429619,15.7565931-15.5347231,15.7565931Z"/>
  <path class="cls-1" d="M701.2149326,260.0108617c0,7.5321029-3.6608545,11.6826015-10.3054775,11.6826015-6.6101949,0-10.2519227-4.1504986-10.2519227-11.6826015v-24.3177136h-5.2636737v24.5395836c0,10.2480973,5.944585,16.6134702,15.5155964,16.6134702,9.6016142,0,15.5653259-6.3653729,15.5653259-16.6134702v-24.5395836h-5.2598484v24.3177136Z"/>
  <polygon class="cls-1" points="748.0141946 266.4489161 725.8233724 235.693148 721.3171169 235.693148 721.3171169 276.1844173 726.5769652 276.1844173 726.5769652 245.3750944 748.4732359 275.7789308 748.7677875 276.1844173 753.2204882 276.1844173 753.2204882 235.693148 748.0141946 235.693148 748.0141946 266.4489161"/>
  <path class="cls-1" d="M781.5012585,235.693148h-13.032948v40.4912693h13.032948c12.8684582,0,21.1847567-7.9490654,21.1847567-20.2475473s-8.3162985-20.243722-21.1847567-20.243722ZM781.5012585,271.0890587h-7.7730996v-30.3005521h7.6659899c9.9688472,0,15.9210829,5.6615095,15.9210829,15.1483634,0,9.3453161-6.0593453,15.1521887-15.8139733,15.1521887Z"/>
  <path class="cls-1" d="M829.8383089,235.693148h-4.555985l-16.7741347,40.4912693h5.6385575l4.0739917-9.7431519h18.6256013l4.0739917,9.7431519h5.6385575l-16.4681072-39.8868649-.2524727-.6044044ZM834.9910477,261.5639514h-14.8576372l7.4058665-18.0785771,7.4517707,18.0785771Z"/>
  <polygon class="cls-1" points="847.8327284 240.8420614 861.0990224 240.8420614 861.0990224 276.1844173 866.3626962 276.1844173 866.3626962 240.8420614 879.6289901 240.8420614 879.6289901 235.693148 847.8327284 235.693148 847.8327284 240.8420614"/>
  <rect class="cls-1" x="890.5962522" y="235.693148" width="5.2598484" height="40.4912693"/>
  <path class="cls-1" d="M929.5497331,235.0313635c-12.344386,0-20.9628867,8.5955486-20.9628867,20.9055065s8.6185007,20.9093319,20.9628867,20.9093319c12.3099579,0,20.9055065-8.599374,20.9055065-20.9093319s-8.5955486-20.9055065-20.9055065-20.9055065ZM929.5497331,271.6934631c-9.3261894,0-15.5921033-6.3309448-15.5921033-15.7565931,0-9.421823,6.2659139-15.7527678,15.5921033-15.7527678,9.2917613,0,15.5347231,6.3309448,15.5347231,15.7527678,0,9.4256483-6.2429619,15.7565931-15.5347231,15.7565931Z"/>
  <polygon class="cls-1" points="989.8983645 266.4489161 967.7075423 235.693148 963.2012868 235.693148 963.2012868 276.1844173 968.4611352 276.1844173 968.4611352 245.3750944 990.3574059 275.7789308 990.6519574 276.1844173 995.1046581 276.1844173 995.1046581 235.693148 989.8983645 235.693148 989.8983645 266.4489161"/>
  <g>
    <path class="cls-3" d="M79.3529196,117.0700188c7.4928931-18.5280551,15.8531831-37.0197693,24.8236154-53.4094569-13.3906177-9.9458951-26.2485562-31.3926879-31.5313566-40.8948431-1.8973708,2.1555815-3.1291316,4.6382299-3.6876319,6.6580117-4.9767729,17.9695548,12.7393528,39.6688202-1.5301377,31.7407942-11.88917-6.6063696-38.660842-21.0738217-48.8725986-6.6943525,11.4368231,14.6950601,41.3500591,51.6670126,60.7981094,62.5998466Z"/>
    <path class="cls-2" d="M104.1765351,63.6605618c8.6921386-15.8809168,17.9552097-29.7898686,27.5587366-39.810358,0,0-9.5786621,13.8649604-23.2600059,41.5814924,8.2856957,2.2818179,31.8832883,6.9640393,64.7525591-1.5263124.808104-5.9732751-3.2075512-12.5433039-23.2188835-14.7428769-13.0645071-1.4345041,15.6810426-31.1956827-5.1431754-45.271037-.6723043-.455216-1.3331325-.8568771-1.980572-1.2164595-.6981253-.2505601-1.4354604-.4800807-2.222525-.6847366-24.3205826-6.3462462-27.6916673,34.8928779-37.3965657,26.0276425-15.6829552-14.3259144-25.5819899-10.9787381-30.6209247-5.2521977,5.2828005,9.5021552,18.1407389,30.9489479,31.5313566,40.8948431Z"/>
    <path class="cls-4" d="M59.7920216,170.4526983c5.4903254-16.4470678,12.0947823-34.9253933,19.560898-53.3826795-19.4480504-10.932834-49.3612863-47.9047865-60.7981094-62.5998466-2.0417775,2.8728336-3.4370718,6.8798817-3.9018512,12.3596874-2.4941245,29.4341116,27.8714585,51.2251853,21.8178511,55.2054561-8.0074019,5.2655864-23.9447426-12.6485009-30.2259579-1.266189,9.1043194,11.6959902,27.6495885,32.8291047,53.5471693,49.6835716Z"/>
    <path class="cls-3" d="M143.9285565,106.9730225c-15.375015-5.483631,16.066446-20.1901671,26.2762899-35.7918338,1.3063551-1.994917,2.6567016-4.5731991,3.0229783-7.2758048-32.8692708,8.4903516-56.4668633,3.8081302-64.7525591,1.5263124-7.0826249,14.3507791-15.261211,32.4350942-23.7907725,54.2395566,8.8834058,3.7985669,45.1553203,17.8299297,96.3881563,17.9026113,8.613719-22.4356442-22.5523172-25.3983734-37.144093-30.6008416Z"/>
    <path class="cls-4" d="M65.7327813,173.4135148c9.0345069,2.8154534,38.9697386,11.2254728,70.7621749,9.9592838,4.2709969-11.5640158-11.6969465-12.6924923-12.9975635-21.9670396-1.0070219-7.1763459,42.0223633,6.0306553,55.8672406-20.0639308.700038-1.3197438,1.2461059-2.5648933,1.7080162-3.7679641-51.232836-.0726815-87.5047505-14.1040444-96.3881563-17.9026113-6.2333985,15.9344716-12.6456319,33.8179562-18.9517119,53.7422619Z"/>
    <path class="cls-1" d="M65.7327813,173.4135148c-4.0596466,12.8244667-8.0647821,26.5249373-11.9522882,41.0038654-1.3790366,5.133612-2.7418155,10.3628577-4.0854677,15.7068636,30.1752721,9.9611965,57.9616166.0229521,58.9036077-12.2946565.0076507-.0975463-.0105197-.1702278-.0047817-.2639488.7182084-13.0463367-18.8359953-5.8145233-18.3731286-13.6583918.4647793-7.9012486,34.1383287-.0459041,44.5518722-16.9864413.7985406-1.2987044,1.3187874-2.4520457,1.7223613-3.5480068-31.7924364,1.266189-61.7276681-7.1438305-70.7621749-9.9592838Z"/>
    <path class="cls-1" d="M6.2448523,120.7691267c-.4399146.7975843-.8367941,1.7194923-1.175337,2.8211914-5.8479951,19.0062231,35.5039767,44.5384835,29.8778515,50.1043595-5.0714502,5.0150264-11.6806888-6.4457051-19.8305848-1.7118416-.8932179.5202468-1.7998245,1.1762934-2.7303395,2.1307168-9.2171671,9.4428624-.1444067,36.6467983,26.0066031,51.1678052-6.1023805,20.4904567-12.1779835,43.3832296-18.1254376,67.3241468,2.1574942-.7555055,4.7396016-1.5129237,5.3822594-3.5480068.9649431-3.966882,6.9286548-28.1048045,16.6115576-60.8516642,0,0,1.7673091-6.7077412,5.002594-17.7591608,2.9914192-10.2194073,7.2423331-24.1570492,12.5280025-39.9939745-25.8975808-16.8544669-44.4428499-37.9875814-53.5471693-49.6835716Z"/>
  </g>
</svg>