<?xml version="1.0" encoding="UTF-8" standalone="no"?>
<!-- Generator: Adobe Illustrator 14.0.0, SVG Export Plug-In . SVG Version: 6.00 Build 43363)  -->

<svg
   xmlns:dc="http://purl.org/dc/elements/1.1/"
   xmlns:cc="http://creativecommons.org/ns#"
   xmlns:rdf="http://www.w3.org/1999/02/22-rdf-syntax-ns#"
   xmlns:svg="http://www.w3.org/2000/svg"
   xmlns="http://www.w3.org/2000/svg"
   xmlns:sodipodi="http://sodipodi.sourceforge.net/DTD/sodipodi-0.dtd"
   xmlns:inkscape="http://www.inkscape.org/namespaces/inkscape"
   version="1.1"
   id="Layer_1"
   x="0px"
   y="0px"
   width="473.26367"
   height="110.21871"
   viewBox="0 0 473.26367 110.21871"
   enable-background="new 0 0 1000 1000"
   xml:space="preserve"
   sodipodi:docname="incubator.svg"
   inkscape:version="0.92.3 (2405546, 2018-03-11)"><metadata
   id="metadata3643"><rdf:RDF><cc:Work
       rdf:about=""><dc:format>image/svg+xml</dc:format><dc:type
         rdf:resource="http://purl.org/dc/dcmitype/StillImage" /><dc:title></dc:title></cc:Work></rdf:RDF></metadata><defs
   id="defs3641" /><sodipodi:namedview
   pagecolor="#ffffff"
   bordercolor="#666666"
   borderopacity="1"
   objecttolerance="10"
   gridtolerance="10"
   guidetolerance="10"
   inkscape:pageopacity="0"
   inkscape:pageshadow="2"
   inkscape:window-width="3726"
   inkscape:window-height="2049"
   id="namedview3639"
   showgrid="false"
   fit-margin-top="0"
   fit-margin-left="0"
   fit-margin-right="0"
   fit-margin-bottom="0"
   inkscape:zoom="1.888"
   inkscape:cx="236.59168"
   inkscape:cy="55.071238"
   inkscape:window-x="114"
   inkscape:window-y="55"
   inkscape:window-maximized="1"
   inkscape:current-layer="Layer_1" />


<polygon
   points="711.434,471.942 728.517,471.942 728.517,473.944 711.434,473.944 711.434,485.958 730.646,485.958 730.646,487.96 709.219,487.96 709.219,458.14 730.434,458.14 730.434,460.142 711.434,460.142 "
   id="polygon3599"
   style="clip-rule:evenodd;fill-rule:evenodd"
   transform="translate(-263.40832,-444.85252)" />
<polygon
   points="662.357,458.14 664.572,458.14 664.572,487.96 662.357,487.96 662.357,473.987 643.272,473.987 643.272,487.96 641.057,487.96 641.057,458.14 643.272,458.14 643.272,471.985 662.357,471.985 "
   id="polygon3601"
   style="clip-rule:evenodd;fill-rule:evenodd"
   transform="translate(-263.40832,-444.85252)" />
<path
   d="m 323.92968,43.619476 c -2.131,0 -4.104,-0.398 -5.922,-1.193 -1.817,-0.795 -3.387,-1.882 -4.707,-3.259 -1.321,-1.377 -2.351,-3.003 -3.089,-4.878 -0.738,-1.874 -1.107,-3.876 -1.107,-6.006 v -0.085 c 0,-2.102 0.376,-4.089 1.129,-5.964 0.752,-1.875 1.788,-3.515 3.109,-4.92 1.32,-1.406 2.89,-2.513 4.707,-3.323 1.818,-0.81 3.806,-1.214 5.965,-1.214 1.335,0 2.542,0.114 3.62,0.341 1.08,0.228 2.081,0.554 3.004,0.98 0.923,0.426 1.789,0.93 2.599,1.512 0.81,0.583 1.598,1.229 2.364,1.938 l -1.576,1.619 c -0.653,-0.625 -1.335,-1.207 -2.045,-1.747 -0.71,-0.54 -1.47,-1.001 -2.279,-1.384 -0.809,-0.384 -1.689,-0.688 -2.641,-0.916 -0.952,-0.228 -1.981,-0.341 -3.089,-0.341 -1.789,0 -3.451,0.341 -4.984,1.022 -1.533,0.681 -2.861,1.626 -3.983,2.833 -1.121,1.207 -2.002,2.621 -2.641,4.239 -0.64,1.619 -0.959,3.365 -0.959,5.24 v 0.085 c 0,1.875 0.327,3.628 0.98,5.261 0.653,1.633 1.54,3.053 2.662,4.26 1.122,1.207 2.449,2.158 3.982,2.854 1.534,0.696 3.196,1.044 4.985,1.044 2.158,0 4.032,-0.397 5.623,-1.193 1.59,-0.795 3.138,-1.945 4.644,-3.45 l 1.491,1.448 c -0.796,0.767 -1.612,1.47 -2.45,2.109 -0.838,0.639 -1.732,1.186 -2.684,1.64 -0.952,0.454 -1.98,0.81 -3.089,1.065 -1.106,0.255 -2.313,0.383 -3.619,0.383 z"
   id="path3603"
   inkscape:connector-curvature="0"
   style="clip-rule:evenodd;fill-rule:evenodd" />
<path
   d="m 252.31768,13.074476 h 2.13 l 13.888,30.033 h -2.428 l -3.792,-8.35 h -17.594 l -3.792,8.35 h -2.3 z m 8.86,19.681 -7.838,-17.253 -7.881,17.253 z"
   id="path3605"
   inkscape:connector-curvature="0"
   style="clip-rule:evenodd;fill-rule:evenodd" />
<path
   d="m 176.74268,13.287476 h 10.821 c 1.647,0 3.145,0.206 4.494,0.618 1.349,0.412 2.514,1.008 3.493,1.789 0.98,0.781 1.74,1.732 2.279,2.854 0.54,1.122 0.81,2.407 0.81,3.855 v 0.085 c 0,1.562 -0.313,2.939 -0.937,4.132 -0.625,1.193 -1.47,2.187 -2.535,2.982 -1.065,0.795 -2.3,1.392 -3.706,1.789 -1.406,0.398 -2.889,0.597 -4.452,0.597 h -8.051 v 11.119 h -2.215 v -29.82 z m 10.395,16.699 c 1.392,0 2.655,-0.17 3.792,-0.511 1.136,-0.348 2.108,-0.838 2.918,-1.484 0.81,-0.639 1.441,-1.42 1.896,-2.336 0.454,-0.909 0.682,-1.924 0.682,-3.039 v -0.085 c 0,-1.2 -0.22,-2.251 -0.661,-3.153 -0.44,-0.895 -1.058,-1.647 -1.853,-2.25 -0.795,-0.597 -1.747,-1.051 -2.854,-1.371 -1.107,-0.312 -2.329,-0.468 -3.663,-0.468 h -8.435 v 14.697 z"
   id="path3607"
   inkscape:connector-curvature="0"
   style="clip-rule:evenodd;fill-rule:evenodd" />
<path
   d="m 118.63568,13.074476 h 2.13 l 13.888,30.033 h -2.428 l -3.792,-8.35 h -17.594 l -3.792,8.35 h -2.301 z m 8.861,19.681 -7.839,-17.253 -7.881,17.253 z"
   id="path3609"
   inkscape:connector-curvature="0"
   style="clip-rule:evenodd;fill-rule:evenodd" />
<path
   d="m 471.26168,70.853476 c 0,7.213 -3.147,11.758 -9.443,13.634 l 11.445,15.886004 h -9.382 l -10.444,-14.697004 h -9.693 v 14.697004 h -7.38 V 56.657476 h 16.261 c 6.671,0 11.444,1.126 14.322,3.377 2.875,2.252 4.314,5.858 4.314,10.819 z m -18.324,8.131 c 4.169,0 7.005,-0.646 8.506,-1.939 1.501,-1.292 2.251,-3.366 2.251,-6.223 0,-2.855 -0.771,-4.815 -2.313,-5.878 -1.543,-1.064 -4.295,-1.596 -8.256,-1.596 h -9.381 v 15.636 z"
   id="path3611"
   inkscape:connector-curvature="0"
   style="clip-rule:evenodd;fill-rule:evenodd" />
<path
   d="m 422.12968,94.337476 c -4.419,4.315 -9.881,6.473004 -16.386,6.473004 -6.504,0 -11.966,-2.157004 -16.385,-6.473004 -4.42,-4.315 -6.63,-9.694 -6.63,-16.136 0,-6.442 2.21,-11.82 6.63,-16.136 4.419,-4.314 9.881,-6.473 16.385,-6.473 6.505,0 11.967,2.158 16.386,6.473 4.42,4.315 6.63,9.694 6.63,16.136 0,6.442 -2.21,11.821 -6.63,16.136 z m -5.409,-27.361 c -2.981,-3.086 -6.64,-4.628 -10.977,-4.628 -4.336,0 -7.994,1.542 -10.976,4.628 -2.98,3.085 -4.472,6.827 -4.472,11.226 0,4.399 1.491,8.141 4.472,11.227 2.981,3.085 6.64,4.628 10.976,4.628 4.337,0 7.995,-1.543 10.977,-4.628 2.98,-3.086 4.471,-6.828 4.471,-11.227 0,-4.399 -1.491,-8.141 -4.471,-11.226 z"
   id="path3613"
   inkscape:connector-curvature="0"
   style="clip-rule:evenodd;fill-rule:evenodd" />
<polygon
   points="609.952,508.264 609.952,501.51 643.849,501.51 643.849,508.264 630.591,508.264 630.591,545.226 623.211,545.226 623.211,508.264 "
   id="polygon3615"
   style="clip-rule:evenodd;fill-rule:evenodd"
   transform="translate(-263.40832,-444.85252)" />
<path
   d="m 315.61168,90.428476 -4.378,9.944004 h -7.88 l 19.263,-43.716004 h 7.88 l 19.263,43.716004 h -7.88 l -4.379,-9.944004 z m 18.886,-6.817 -7.942,-18.011 -7.942,18.011 z"
   id="path3617"
   inkscape:connector-curvature="0"
   style="clip-rule:evenodd;fill-rule:evenodd" />
<path
   d="m 286.61768,100.37348 h -19.138 V 56.657476 h 17.012 c 2.96,0 5.514,0.354 7.661,1.063 2.146,0.709 3.741,1.668 4.784,2.878 2.001,2.251 3.002,4.795 3.002,7.63 0,3.418 -1.084,5.962 -3.253,7.63 -0.792,0.584 -1.334,0.948 -1.626,1.094 -0.292,0.146 -0.813,0.386 -1.563,0.72 2.71,0.584 4.868,1.803 6.474,3.658 1.604,1.855 2.407,4.159 2.407,6.911 0,3.043 -1.042,5.732 -3.127,8.067 -2.46,2.709 -6.671,4.065004 -12.633,4.065004 z m -11.757,-6.818004 h 11.57 c 2.71,0 4.784,-0.427 6.223,-1.281 1.438,-0.855 2.157,-2.471 2.157,-4.848 0,-3.877 -3.105,-5.815 -9.318,-5.815 h -10.632 z m 0,-18.762 h 9.381 c 5.337,0 8.005,-1.813 8.005,-5.441 0,-2.084 -0.646,-3.585 -1.938,-4.503 -1.292,-0.917 -3.294,-1.376 -6.004,-1.376 h -9.443 v 11.32 z"
   id="path3619"
   inkscape:connector-curvature="0"
   style="clip-rule:evenodd;fill-rule:evenodd" />
<path
   d="m 230.98168,90.366476 c 2.001,2.335 4.711,3.502 8.13,3.502 3.419,0 6.129,-1.167 8.13,-3.502 2.002,-2.335 3.002,-5.504 3.002,-9.506 v -24.203 h 7.38 v 24.516 c 0,6.296 -1.729,11.143 -5.19,14.541 -3.461,3.397 -7.901,5.097004 -13.321,5.097004 -5.42,0 -9.861,-1.699004 -13.321,-5.097004 -3.461,-3.398 -5.191,-8.245 -5.191,-14.541 v -24.516 h 7.38 v 24.203 c -0.001,4.002 1,7.171 3.001,9.506 z"
   id="path3621"
   inkscape:connector-curvature="0"
   style="clip-rule:evenodd;fill-rule:evenodd" />
<path
   d="m 196.79768,93.680476 c 2.543,0 4.732,-0.427 6.567,-1.281 1.834,-0.855 3.752,-2.221 5.753,-4.097 l 4.753,4.878 c -4.628,5.128 -10.247,7.692004 -16.854,7.692004 -6.609,0 -12.091,-2.126004 -16.448,-6.379004 -4.357,-4.253 -6.536,-9.632 -6.536,-16.136 0,-6.504 2.22,-11.924 6.661,-16.26 4.44,-4.337 10.048,-6.505 16.823,-6.505 6.775,0 12.435,2.502 16.979,7.505 l -4.69,5.129 c -2.084,-2.002 -4.055,-3.398 -5.91,-4.19 -1.855,-0.792 -4.034,-1.188 -6.536,-1.188 -4.419,0 -8.13,1.428 -11.132,4.284 -3.002,2.855 -4.503,6.504 -4.503,10.944 0,4.44 1.491,8.151 4.472,11.132 2.981,2.982 6.515,4.472 10.601,4.472 z"
   id="path3623"
   inkscape:connector-curvature="0"
   style="clip-rule:evenodd;fill-rule:evenodd" />
<polygon
   points="397.065,513.33 397.065,545.226 389.686,545.226 389.686,501.51 397.065,501.51 422.456,534.155 422.456,501.51 429.836,501.51 429.836,545.226 421.831,545.226 "
   id="polygon3625"
   style="clip-rule:evenodd;fill-rule:evenodd"
   transform="translate(-263.40832,-444.85252)" />
<rect
   x="108.47866"
   y="56.657494"
   width="7.3790002"
   height="43.716"
   id="rect3627"
   style="clip-rule:evenodd;fill-rule:evenodd" />
<linearGradient
   id="SVGID_1_"
   gradientUnits="userSpaceOnUse"
   x1="298.37161"
   y1="547.52728"
   x2="313.06451"
   y2="470.18271"
   gradientTransform="translate(-263.40832,-444.85252)">
	<stop
   offset="0"
   style="stop-color:#1A1853"
   id="stop3629" />
	<stop
   offset="0.5"
   style="stop-color:#CA2026"
   id="stop3631" />
	<stop
   offset="1"
   style="stop-color:#F8991D"
   id="stop3633" />
</linearGradient>
<path
   d="m 44.922678,15.104476 c -0.003,-0.324 -0.008,-0.649 -0.016,-0.978 0.067,0.107 0.256,0.435 0.569,0.978 z m -11.763,34.23 c -3.432,6.382 -5.389,13.041 -5.889,19.971 -0.445,6.171 0.222,11.492 2.021,15.953 0.246,0.607 0.484,1.168 0.722,1.688 -1.422,-1.006 -2.779,-2.055 -4.073,-3.149 -0.109,-0.086 -0.188,-0.122 -0.238,-0.109 1.699,2.717 3.816,5.179 6.354,7.387 0.392,0.342 1.046,0.504 1.207,1.007 0.459,1.443 -0.789,14.400004 3.219,17.419004 2.549,1.918 13.815,-0.494 17.293,-1.617 18.147,-5.861 32.222,-22.622004 30.128,-46.777004 -2.296,-26.491 -19.748,-53.4309997 -37.154,-59.9059997 -4.705,-1.751 -5.749,-1.591 -10.635,0.499 -16.984,7.263 -33.6670002,33.5489997 -35.90800017,59.4069997 -2.15300003,24.846 12.79700017,41.868004 31.69300017,47.252004 0.511,0.146 1.005,0.28 1.485,0.407 -0.487,-1.007 -0.885,-2.148 -1.208,-3.356 -19.792,-5.886004 -30.8630002,-23.434004 -29.0760002,-44.051004 1.708,-19.71 14.9180002,-48.76 34.1540002,-56.9869997 4.021,-1.718 4.402,-1.963 8.479,-0.446 19.745,7.3439997 33.537,37.3969997 35.273,57.4339997 1.857,21.422 -10.222,39.447004 -31.112,44.609004 -2.101,0.519 -3.923,0.862 -5.629,1.033 -5.413,0.543 -7.295,1.501 -8.288,-4.136 -2.187,-12.433004 -0.534,-34.932004 4.876,-43.565004 0.043,-0.627 0.007,0.521 -0.4,1.501 -0.188,0.44 -0.309,0.709 -0.362,0.847 -3.24,7.422 -5.048,28.953 -3.506,33.042 -0.446,-1.465 0.353,-4.55 1.51,-5.183 l 0.663,-0.464 c 3.628,-2.613 5.973,-6.718 8.595,-11.917 -0.045,-0.072 -0.13,-0.063 -0.252,0.025 -1.224,1.023 -2.486,1.942 -3.783,2.755 2.953,-3.102 5.531,-7.062 7.741,-11.886 -0.06,-0.088 -0.162,-0.072 -0.308,0.042 -0.872,0.787 -1.76,1.528 -2.667,2.224 3.708,-6.714 6.974,-14.491 7.316,-23.379 0.169,-5.753 -0.883,-11.296 -3.159,-16.59 -0.785,-1.81 -1.88,-3.973 -3.292,-6.525 -2.087,-3.763 -3.215,-5.801 -3.395,-6.097 0.093,8.157 -1.346,14.788 -4.315,19.84 -0.766,1.341 -2.125,3.296 -4.089,5.859 -1.824,2.39 -3.162,4.369 -3.991,5.939 z"
   id="path3636"
   inkscape:connector-curvature="0"
   style="clip-rule:evenodd;fill:url(#SVGID_1_);fill-rule:evenodd" />
</svg>