<svg id="opendal" data-name="opendal" xmlns="http://www.w3.org/2000/svg" viewBox="0 0 291.778 60.795"><title>OpenDAL Logo</title><path d="M203.556,3.177a19.794,19.794,0,0,1,8.086,7.771A22.844,22.844,0,0,1,214.505,22.5a22.889,22.889,0,0,1-2.863,11.516,19.686,19.686,0,0,1-8.118,7.8,25.741,25.741,0,0,1-12.176,2.768H174.8V.408h16.55A25.7,25.7,0,0,1,203.556,3.177Zm-3.4,28.757q3.4-3.335,3.4-9.439t-3.4-9.5q-3.4-3.4-9.5-3.4h-5.1V35.269h5.1Q196.758,35.269,200.157,31.934Z"/><path d="M277.683,36.276h14.1v8.306H266.922V.408h10.761Z"/><polygon points="261.411 44.415 232.731 44.415 232.321 43.285 231.501 41.035 230.531 38.345 230.531 38.335 230.281 37.665 229.061 34.295 228.731 33.385 228.401 34.295 227.181 37.665 226.941 38.335 225.961 41.035 225.151 43.285 224.741 44.415 217.571 44.415 217.981 43.285 218.791 41.035 219.771 38.325 220.011 37.665 221.231 34.295 221.561 33.375 222.451 30.925 223.351 28.425 223.351 28.415 223.671 27.555 224.891 24.185 225.151 23.475 226.111 20.805 226.941 18.515 227.331 17.435 233.721 17.435 234.111 18.525 234.941 20.805 235.911 23.475 235.911 23.485 236.161 24.185 237.381 27.555 237.701 28.435 238.601 30.925 239.491 33.385 239.821 34.295 246.991 34.295 246.661 33.395 246.661 33.385 245.771 30.925 244.871 28.435 244.551 27.555 243.331 24.185 243.081 23.475 242.111 20.805 241.281 18.535 241.281 18.525 240.891 17.435 239.671 14.065 228.911 14.065 228.505 14.066 229.771 10.695 230.521 8.615 230.521 8.605 230.991 7.325 232.211 3.945 232.321 3.665 233.431 0.575 245.541 0.575 246.661 3.665 246.761 3.945 247.981 7.325 248.451 8.625 249.201 10.695 250.251 13.575 250.421 14.065 251.641 17.435 252.041 18.535 252.861 20.805 253.831 23.485 253.831 23.495 254.091 24.185 255.311 27.555 255.631 28.435 256.531 30.925 257.421 33.395 257.751 34.295 258.971 37.665 259.211 38.345 260.191 41.035 261.001 43.295 261.001 43.305 261.411 44.415"/><path d="M10.9,41.99a20.975,20.975,0,0,1-7.969-8A22.912,22.912,0,0,1,0,22.428a22.908,22.908,0,0,1,2.93-11.56,20.975,20.975,0,0,1,7.969-8A22.159,22.159,0,0,1,22.05,0,22.284,22.284,0,0,1,33.264,2.867,20.82,20.82,0,0,1,41.2,10.836a23.07,23.07,0,0,1,2.9,11.592A23.067,23.067,0,0,1,41.2,34.02a20.822,20.822,0,0,1-7.938,7.97A22.283,22.283,0,0,1,22.05,44.856,22.158,22.158,0,0,1,10.9,41.99Zm19.435-4.253a15.063,15.063,0,0,0,5.8-6.111,19.3,19.3,0,0,0,2.111-9.2A19.252,19.252,0,0,0,36.13,13.2a15.2,15.2,0,0,0-5.764-6.08A16.144,16.144,0,0,0,22.05,4.977a16.139,16.139,0,0,0-8.316,2.142A15.184,15.184,0,0,0,7.97,13.2a19.241,19.241,0,0,0-2.111,9.229,19.287,19.287,0,0,0,2.111,9.2,15.063,15.063,0,0,0,5.8,6.111,16.17,16.17,0,0,0,8.284,2.142A16.173,16.173,0,0,0,30.334,37.737Z"/><path d="M62.779,11.309a15.159,15.159,0,0,1,7.844-1.985,16.167,16.167,0,0,1,8.347,2.205,15.559,15.559,0,0,1,5.89,6.205A19.4,19.4,0,0,1,87,27.027a19.811,19.811,0,0,1-2.142,9.324,15.7,15.7,0,0,1-14.237,8.631A15.053,15.053,0,0,1,62.842,43a14.182,14.182,0,0,1-5.134-4.946V60.8H51.975V9.891h5.733v6.363A13.653,13.653,0,0,1,62.779,11.309Zm16.789,8.914a10.909,10.909,0,0,0-4.252-4.41A11.777,11.777,0,0,0,69.425,14.3,11.465,11.465,0,0,0,63.6,15.845a11.282,11.282,0,0,0-4.284,4.472,13.866,13.866,0,0,0-1.606,6.773,13.993,13.993,0,0,0,1.606,6.836A11.275,11.275,0,0,0,63.6,38.4a11.455,11.455,0,0,0,5.827,1.544A11.58,11.58,0,0,0,75.316,38.4a11.07,11.07,0,0,0,4.252-4.472,14.362,14.362,0,0,0,1.576-6.9A14.036,14.036,0,0,0,79.568,20.223Z"/><path d="M126.188,29.3H98.594a10.851,10.851,0,0,0,11.215,10.836,10.6,10.6,0,0,0,6.2-1.733,9.17,9.17,0,0,0,3.5-4.63h6.175a14.844,14.844,0,0,1-5.545,8.1,16.738,16.738,0,0,1-10.331,3.118,17.44,17.44,0,0,1-8.789-2.2,15.6,15.6,0,0,1-6.08-6.269,19.439,19.439,0,0,1-2.2-9.418A19.724,19.724,0,0,1,94.877,17.7a15.043,15.043,0,0,1,6.017-6.2,17.9,17.9,0,0,1,8.915-2.174,17.336,17.336,0,0,1,8.693,2.142,14.851,14.851,0,0,1,5.828,5.89,17.4,17.4,0,0,1,2.047,8.474A33.725,33.725,0,0,1,126.188,29.3ZM119.006,19a9.424,9.424,0,0,0-3.937-3.592,12.286,12.286,0,0,0-5.513-1.228,10.627,10.627,0,0,0-7.4,2.772,11.293,11.293,0,0,0-3.5,7.686h21.8A10.574,10.574,0,0,0,119.006,19Z"/><path d="M161.279,13.073q3.9,3.812,3.906,10.993V44.415h-5.67V24.885q0-5.164-2.583-7.906a9.229,9.229,0,0,0-7.056-2.741,9.447,9.447,0,0,0-7.213,2.835q-2.679,2.835-2.678,8.253V44.415h-5.733V9.891h5.733v4.914a11.394,11.394,0,0,1,4.63-4.095,14.362,14.362,0,0,1,6.458-1.449A14,14,0,0,1,161.279,13.073Z"/></svg>