<svg xmlns="http://www.w3.org/2000/svg" data-name="Layer 1" width="792.08621" height="598.8363" viewBox="0 0 792.08621 598.8363" xmlns:xlink="http://www.w3.org/1999/xlink"><path id="a7c5c542-e960-402d-86b7-e161a3e2924b-320" data-name="Path 2996" d="M720.35593,396.31463a11.965,11.965,0,0,1-13.66731-12.23146l-39.67747-15.24782,17.96524-12.85089,34.9239,16.44968a12.02605,12.02605,0,0,1,.45444,23.8808Z" transform="translate(-203.9569 -150.58185)" fill="#ffb7b7"/><path id="b1c26e50-8516-4a28-8986-b88082ea0766-321" data-name="Path 2997" d="M697.68284,385.37616l6.19525-21.85262-.30487-.20768-58.03-39.41986L595.3799,273.5628l-29.221,11.67477,1.91872,9.2488.12536.11347,66.69479,59.73778.06171.03Z" transform="translate(-203.9569 -150.58185)" fill="#e6e7e8"/><polygon points="434.278 284.709 344.469 272.12 352.374 217.013 418.492 217.013 434.278 284.709" fill="#ffb6b6"/><polygon points="281.679 554.553 300.102 558.834 325.381 489.813 298.192 483.495 281.679 554.553" fill="#ffb6b6"/><path d="M468.49466,734.79487l13.21142,3.07013,5.25671-11.92523,3.14113,13.87676,35.04012,8.1428A8.08653,8.08653,0,0,0,532.9565,734.641l-23.491-25.82786,2.93039-12.61-29.84036-5.0829Z" transform="translate(-203.9569 -150.58185)" fill="#2f2e41"/><polygon points="395.352 564.819 414.265 564.819 423.266 491.867 395.352 491.867 395.352 564.819" fill="#ffb6b6"/><path d="M589.32606,748.17114h13.56345l2.421-12.80559,6.20065,12.80559h35.97381a8.08653,8.08653,0,0,0,4.595-14.74107l-28.72754-19.84023V700.64379L593.136,702.44728Z" transform="translate(-203.9569 -150.58185)" fill="#2f2e41"/><path d="M547.29076,413.35137l87.829-6.9864c25.91752,60.54227,9.43786,157.19122-10.47959,265.98992l-28.24959,3.65262-2.19114-174.82717L523.38229,663.82179l-29.44267-1.50494Z" transform="translate(-203.9569 -150.58185)" fill="#2f2e41"/><path id="be563295-45cb-4583-a2cc-1b51a6e0af2d-322" data-name="Path 3002" d="M598.41474,253.92614V224.21233a39.81592,39.81592,0,1,0-79.63183,0c-7.01751,14.62337-2.6273,21.57582,0,29.71381a5.355,5.355,0,0,0,5.34606,5.346h68.93715A5.355,5.355,0,0,0,598.41474,253.92614Z" transform="translate(-203.9569 -150.58185)" fill="#2f2e41"/><circle id="e6de18e8-d8d7-4938-bc85-74b57e27a471" data-name="Ellipse 572" cx="364.46777" cy="79.05031" r="29.19194" fill="#ffb7b7"/><path id="b4d76e12-782b-49dd-9dc2-b18e04e0f0ec-323" data-name="Path 3003" d="M607.83391,226.5887A31.53146,31.53146,0,0,0,576.338,195.09288h-5.943a31.53147,31.53147,0,0,0-31.49586,31.49582l0,.59451c4.451,3.04279,8.67622,3.4878,12.55939,0l4.28318-11.99431.8566,11.99424H563.09l2.16389-6.05121.43281,6.05128c8.768,7.46722,25.34789,3.88883,42.14727,0Z" transform="translate(-203.9569 -150.58185)" fill="#2f2e41"/><path id="a580674d-06d2-46e1-9b07-6683bd33a718-324" data-name="Path 3004" d="M551.40255,383.70132l74.32523-2.82829,4.15461-48.62355c3.20385-8.8999,3.256-16.54728.154-22.713a22.73592,22.73592,0,0,0-12.55178-10.84866l-16.2634-19.6429a22.13646,22.13646,0,0,0-17.18371-8.01144l-42.25922.28893c-1.01828-.61224-7.19678-3.75241-19.38194,1.52745-13.21617,5.72791-10.14728,25.62792-10.11418,25.82774l.03053.18712.14512.12729,28.1075,23.67534Z" transform="translate(-203.9569 -150.58185)" fill="#e6e7e8"/><path id="ba19af05-e5c9-4e56-8465-909fb7fb4880-325" data-name="Path 2960" d="M205.2039,749.41815h746.281a1.247,1.247,0,0,0,0-2.494H205.2039a1.247,1.247,0,0,0,0,2.494Z" transform="translate(-203.9569 -150.58185)" fill="#ccc"/><path d="M748.58278,454.27667a113.45517,113.45517,0,1,1-7.18309-39.95154c.24738.66626.48861,1.33246.72333,2.00516v.00636q1.57066,4.4355,2.7667,9.03607A114.22569,114.22569,0,0,1,748.58278,454.27667Z" transform="translate(-203.9569 -150.58185)" fill="#3f3d56"/><path d="M621.86648,377.214a38.323,38.323,0,0,0-33.64391-1.37647c-4.704,2.0472-9.65719,5.71963-11.22641,12.35137,6.34671-3.7456,14.56235,2.17242,16.19552,11.66615l-.3812.10514c-.86258,6.57573,1.063,13.735,4.79109,17.81239a12.528,12.528,0,0,1,6.01337-8.91841c2.7391-1.80059,5.76927-3.1086,7.86-6.2036,2.47849-3.66921,3.10788-9.03168,4.09249-13.9236S618.41984,378.5771,621.86648,377.214Z" transform="translate(-203.9569 -150.58185)" fill="#44a1f6"/><path d="M586.33989,433.17137c-1.75771,2.63975-4.10551,4.296-6.21223,6.35828a14.30085,14.30085,0,0,0-4.518,8.44589c-.26655,2.2971.14589,4.63218.08875,6.95474-.057,2.32242-.83126,4.93677-2.41124,5.51421-2.49385.901-4.39753-3.73118-6.961-4.05481-2.037-.25381-3.87079,2.95071-3.2807,5.73006s3.36316,4.01032,4.95587,2.19554c1.44046,2.41761.42511,6.80248-1.73868,7.54484-.2285,1.52291-.45686,3.03953-.679,4.56245-5.46987-3.82638-10.99681-7.71613-15.64808-13.31931a40.42885,40.42885,0,0,1-9.21372-21.77786c-.60283-6.44073.29187-13.80791-2.66506-18.76371-2.367-3.966-6.42815-4.84173-10.08317-4.5942-.66627.04434-1.33882.12051-2.00516.203a112.96932,112.96932,0,0,1,8.17934-18.71937,8.01283,8.01283,0,0,0,2.04958-1.27554c3.40127-2.88716,4.91153-8.73147,7.67178-12.77358q.26658-.39027.55205-.76142c2.82383-3.68681,6.60573-5.58412,10.26075-7.3482,8.09059-3.92786,16.41583-7.9065,24.957-7.36081l-2.43034.23479q-4.25463,11.91693-8.51577,23.83391-.64731,1.82742-1.30714,3.66138c-1.61181,4.518-3.27433,9.32794-3.0268,14.38536.146,2.995,1.18656,6.19328,3.1664,7.22122,1.84654.95183,3.86443-.21578,5.64745-1.37066.75517-.48224,1.504-.96457,2.25906-1.45318,2.70954-1.745,5.711-3.53444,8.57284-2.3669,2.62072,1.066,4.55608,4.62595,4.92411,8.465A16.92347,16.92347,0,0,1,586.33989,433.17137Z" transform="translate(-203.9569 -150.58185)" fill="#44a1f6"/><path d="M602.45493,487.41126q-11.87028-7.30869-23.74058-14.6173l.13427-.346c-4.92024,1.874-6.963,10.62007-6.14982,17.77244s3.57029,13.54619,4.96318,20.51527a54.45388,54.45388,0,0,1-2.053,28.57346,234.006,234.006,0,0,0,27.489-37.87886,20.265,20.265,0,0,0,2.48653-5.51355,8.77112,8.77112,0,0,0-.58139-6.23842A6.94547,6.94547,0,0,0,602.45493,487.41126Z" transform="translate(-203.9569 -150.58185)" fill="#44a1f6"/><path d="M571.223,398.767a8.75057,8.75057,0,0,0-.401,6.36354,7.05379,7.05379,0,0,0,3.94089,3.65l4.37257,2.16738c1.45465.72106,3.02263,1.4493,4.50552.85606,1.78859-.71551,3.02871-3.51959,2.70794-6.12275-.34147-2.77013-2.08755-4.67556-3.70243-6.2982q-3.3899-3.40614-6.77972-6.81225l-1.27363,1.55994A17.00958,17.00958,0,0,0,571.223,398.767Z" transform="translate(-203.9569 -150.58185)" fill="#44a1f6"/><path d="M725.14234,428.3805q2.95077.69483,5.90141,1.3896c-.34272,6.64385-3.636,12.79272-8.05247,15.01994-1.84024.92652-3.88982,1.2691-5.4128,3.00149-1.37695,1.57369-2.075,4.023-2.71592,6.36449q-1.68468,6.12984-3.36952,12.25954c-1.20558,4.40382-2.75388,9.29633-5.88861,10.88268-2.69052,1.36421-5.7681-.30467-7.8367-3.103-2.06867-2.7983-3.3314-6.56124-4.55615-10.22892.07617,3.99767-1.783,7.91924-4.41648,9.30884-2.63974,1.3896-5.85063.13324-7.61463-2.96966-1.2691-2.2273-1.79576-5.16535-3.03954-7.42433-1.2437-2.259-3.85169-3.55346-5.20968-1.43408-.89477,1.40877-.78056,3.56619-1.22476,5.35565a5.81562,5.81562,0,0,1-4.8606,4.67666,8.10534,8.10534,0,0,1-5.81888-2.65884,26.35849,26.35849,0,0,1-7.22758-14.57566,17.38783,17.38783,0,0,1,.20311-7.97c.78048-2.46831,2.66506-4.37191,4.537-3.90247,1.231-2.60177-1.19922-6.05368-3.38847-5.74908-2.19561.3046-3.9152,2.65877-5.71732,4.46726-1.79576,1.80848-4.30856,3.122-6.11712,1.32616a2.48137,2.48137,0,0,1-2.32417,2.62914q-.09746.006-.195.00431a8.9981,8.9981,0,0,1-3.28062-1.73868c-4.14363-2.58268-9.40417-.86931-12.34844,4.01669,1.84024-7.83041,4.537-16.8157,10.19087-18.65594,2.3099-.75509,4.82907-.13324,7.01188-1.44045,3.8645-2.316,4.645-11.06662,1.30722-14.67715.4251,3.41385.34271,7.39886-1.45948,9.73408-1.80212,2.33522-5.58409.81216-5.35558-2.63974a2.31258,2.31258,0,0,1-4.30227.91372c-1.19929-1.82744-1.09773-4.8162-.24745-6.99908a16.4858,16.4858,0,0,1,3.69943-5.2541c3.01415-3.22984,6.0727-6.49781,9.5628-8.52843,3.4964-2.03055,7.53218-2.71584,11.03487-.69795,1.84668,1.066,3.47107,2.84279,5.35565,3.7819a3.96879,3.96879,0,0,0,5.4649-1.27985q.03183-.05126.06212-.10354c1.40233-2.46209.74236-6.11711,1.26273-9.19465.93274-5.43808,6.37086-7.98267,9.385-4.39113-2.25261-.5774-4.58147,2.0877-4.86068,5.31765-.2855,3.22984,1.34534,6.49148,3.52815,7.4687,3.66775,1.6244,7.25926-2.46216,10.03232-6.24406q4.34024-5.93947,8.69335-11.87248a14.345,14.345,0,0,1,1.55459-1.891,5.00238,5.00238,0,0,1,6.83416-.13957c2.93161,2.39222,4.30862,7.29738,6.71365,10.67315,3.49,4.90509,8.71244,6.09806,13.573,7.0499q5.43489,1.05657,10.87638,2.12574a112.69594,112.69594,0,0,1,6.31378,13.94123A38.21109,38.21109,0,0,0,725.14234,428.3805Z" transform="translate(-203.9569 -150.58185)" fill="#44a1f6"/><path d="M744.88972,425.37272a22.87162,22.87162,0,0,0-1.20566,6.796c-3.10934-3.79463-3.60432-10.90792-1.561-15.83211Q743.69369,420.77215,744.88972,425.37272Z" transform="translate(-203.9569 -150.58185)" fill="#44a1f6"/><path d="M736.85627,504.73013a113.76754,113.76754,0,0,1-9.45488,15.81937c-2.28437-.97723-4.7401.76775-6.87857,2.40495-2.23367,1.7133-4.91782,3.38218-7.20856,1.82114-2.34144-1.59908-3.0966-6.07262-2.35417-9.61987a25.63168,25.63168,0,0,1,4.39109-9.03606c1.90368-2.84279,3.94052-5.7935,6.5867-6.8976,2.65248-1.1041,6.06.45686,6.83416,4.22617l1.87829-.06351c-1.0534-1.44674-.50127-4.44186.91379-4.96853,1.63076-.61548,3.0459,1.6244,4.01032,3.60432C736.006,502.9152,736.44375,503.81634,736.85627,504.73013Z" transform="translate(-203.9569 -150.58185)" fill="#44a1f6"/><path d="M664.91953,477.927c-4.03725.25389-7.23519-4.71617-9.3602-9.6056s-4.064-10.48084-7.70683-12.96957c-2.08147-1.42208-4.45452-1.61715-6.71219-2.30632a8.31111,8.31111,0,0,1-5.7002-5.01864l-2.561-1.03452a38.46134,38.46134,0,0,0-9.7234,6.93308,21.7319,21.7319,0,0,0-5.79386,12.6665c-.4892,5.12613,1.31731,10.84207,4.69283,12.76769,2.66718,1.5216,5.7725.56252,8.47414,1.95548,3.37552,1.7403,5.37951,6.79589,6.13811,11.78761s.56632,10.17924,1.10908,15.2276,2.03852,10.30135,5.1341,12.88842c3.87372,3.23745,9.5579.54729,11.29586-5.346.85247-2.89071.82313-6.1526,1.46079-9.15328,1.12283-5.2844,4.15285-9.205,6.55605-13.53976S666.51788,482.95769,664.91953,477.927Z" transform="translate(-203.9569 -150.58185)" fill="#44a1f6"/><path d="M625.02556,426.0005a10.77277,10.77277,0,0,1,1.05135,1.1161,3.66676,3.66676,0,0,1-.06453,3.7865,3.52254,3.52254,0,0,0,2.52275-1.28219,16.21644,16.21644,0,0,0,1.93426-2.72469,2.96976,2.96976,0,0,0,.57034-2.37678c-.19075-.5443-.64175-.77646-.95791-1.18583a8.05884,8.05884,0,0,1-.88475-2.56987,4.635,4.635,0,0,0-3.359-3.53993l.20231.03871a1.91913,1.91913,0,0,0-.89894,2.0443c.12256.79183.63137,1.44924.58073,2.25686-.0728,1.16132-1.23338,1.70627-1.30509,2.86774A2.2171,2.2171,0,0,0,625.02556,426.0005Z" transform="translate(-203.9569 -150.58185)" fill="#44a1f6"/><path d="M618.10843,406.2657l.018-.00351a3.241,3.241,0,0,0,.34448-.36693Z" transform="translate(-203.9569 -150.58185)" fill="#44a1f6"/><path d="M619.31921,411.71677a3.52069,3.52069,0,0,0,1.096-3.49017c-.29325-1.32046-1.33128-2.20828-2.28876-1.96441a2.33282,2.33282,0,0,1-2.16905.63861c-.59193-.15241-1.24181-.54488-1.75522-.09885a2.6572,2.6572,0,0,0-.59786,1.16739q-.285.87505-.57012,1.74988a1.10436,1.10436,0,0,0-.06739.66312.56176.56176,0,0,0,.43081.3425q1.71027.5042,3.42038,1.00832A2.94676,2.94676,0,0,0,619.31921,411.71677Z" transform="translate(-203.9569 -150.58185)" fill="#44a1f6"/><path d="M705.39122,486.9743q-.79053-1.29431-1.58108-2.5886a8.64829,8.64829,0,0,0-2.08345-2.616,1.84606,1.84606,0,0,0-2.60067.22968l-.02751.03358.06417.49286a11.13046,11.13046,0,0,1,2.777,5.41829c.12014.88181.07837,1.79443.18373,2.68013a3.12578,3.12578,0,0,0,.97642,2.186c.82987.55439,1.80432-.263,2.39493-1.26046a4.3403,4.3403,0,0,0,.67241-2.76267A4.84436,4.84436,0,0,0,705.39122,486.9743Z" transform="translate(-203.9569 -150.58185)" fill="#44a1f6"/><path d="M713.65888,488.09721a5.97472,5.97472,0,0,0-.19294-2.40912,5.28849,5.28849,0,0,1,.80477-2.99812,9.74721,9.74721,0,0,0,1.254-2.74914,2.29957,2.29957,0,0,0-.06015-1.34628c-.17443-.39189-.597-.57064-.83938-.26033l.51869.33408a4.72337,4.72337,0,0,0-2.10489.10192,2.605,2.605,0,0,0-1.59527,1.79832,11.13024,11.13024,0,0,1-.41838,1.86585c-.30942.636-.9083.8475-1.28468,1.4057a3.36081,3.36081,0,0,0,.05291,3.19282,3.727,3.727,0,0,0,2.108,1.65776C712.535,488.918,713.36906,488.93,713.65888,488.09721Z" transform="translate(-203.9569 -150.58185)" fill="#44a1f6"/><path d="M728.382,492.53936a7.2423,7.2423,0,0,0,.91226,1.67437c.70489.71,1.66281.27365,2.51792.10112a4.35342,4.35342,0,0,1,4.14144,1.66113,10.5414,10.5414,0,0,0-6.06275-7.56393,17.81127,17.81127,0,0,0-6.23514-.975l-.3621.09278C724.21632,490.2157,727.11377,490.15563,728.382,492.53936Z" transform="translate(-203.9569 -150.58185)" fill="#44a1f6"/><path d="M666.024,498.03294l.00527.01171.10536-.2029Z" transform="translate(-203.9569 -150.58185)" fill="#44a1f6"/><path d="M663.7904,502.3562a19.84407,19.84407,0,0,0-1.25307,2.75264,23.96279,23.96279,0,0,0-.90815,4.71c-.11341.90772-.14846,2.06706.42027,2.50936a.80667.80667,0,0,0,1.0553-.14334,4.17322,4.17322,0,0,0,.765-1.1371,26.19518,26.19518,0,0,0,2.58253-6.12933,10.666,10.666,0,0,0-.423-6.87381Q664.91,500.2005,663.7904,502.3562Z" transform="translate(-203.9569 -150.58185)" fill="#44a1f6"/><path d="M642.2431,387.17457a2.54284,2.54284,0,0,0,2.74049.53485,9.04943,9.04943,0,0,0,2.57858-1.70323,6.0676,6.0676,0,0,0,1.56316-1.70521,3.45855,3.45855,0,0,0,.31974-2.63448,2.67592,2.67592,0,0,0-2.03962-1.61342q-1.89826-.563-3.79653-1.1258l.91547-.82511c-.94188-.50548-1.98387.43264-2.57257,1.59411a8.58239,8.58239,0,0,0-.78092,2.404A6.17067,6.17067,0,0,0,642.2431,387.17457Z" transform="translate(-203.9569 -150.58185)" fill="#44a1f6"/><path d="M664.58552,379.674a2.09056,2.09056,0,0,0,2.84929.23179,3.185,3.185,0,0,0,1.26024-2.26988c.08956-.99545-.40264-2.10182-1.10556-2.18779l.1609-.932c-1.35419-.24456-3.02051-.29355-3.74619,1.35093A3.86092,3.86092,0,0,0,664.58552,379.674Z" transform="translate(-203.9569 -150.58185)" fill="#44a1f6"/><path id="b456961e-c574-43f5-93e7-af00230a566f-326" data-name="Path 3011" d="M531.20347,479.41841a11.96487,11.96487,0,0,1,.63006-18.32932l-13.72536-40.229,21.38416,5.55481,9.74516,37.34849a12.026,12.026,0,0,1-18.03907,15.65625Z" transform="translate(-203.9569 -150.58185)" fill="#ffb7b7"/><path id="f9e29824-911d-4b82-8399-58a66d30c3ed-327" data-name="Path 3012" d="M525.072,455.00482l20.74773-9.24608-6.97024-70.177,6.49159-70.76378-27.70134-14.9499-5.86922,7.40044v.168l-3.1096,89.48256.01654.06748Z" transform="translate(-203.9569 -150.58185)" fill="#e6e7e8"/><path d="M842.91058,664.12742q-17.59676-8.092-37.96186-19.06823c-70.22005-37.85574-156.56866-96.91028-243.14046-166.28411C475.2369,409.40146,398.78571,337.9949,346.53793,277.712c-25.45122-29.36617-43.7843-54.51528-54.48878-74.74933-11.33381-21.4215-13.61952-36.60177-6.79507-45.11832,13.29583-16.59138,56.59542-1.64731,90.578,13.811l-1.24185,2.73092c-46.667-21.22849-77.56239-26.43657-86.99482-14.66559C275.5812,174.71248,297.89166,217.00214,348.805,275.747c52.13291,60.15055,128.44471,131.42315,214.87923,200.68763C650.11872,545.698,736.3074,604.64571,806.37267,642.41845c68.42448,36.88923,114.56144,49.4486,126.57541,34.45618,9.97469-12.44762-3.6314-43.79839-38.31085-88.27838l2.36583-1.8443c25.19849,32.31978,52.29591,74.51591,38.28634,91.99905-6.82489,8.51635-22.13814,9.59295-45.51467,3.19955C876.44938,678.30576,860.7673,672.339,842.91058,664.12742Z" transform="translate(-203.9569 -150.58185)" fill="#44a1f6"/><path d="M393.68219,461.84636c-32.34363-14.87235-61.90155-29.80941-87.7899-44.4273-33.83821-19.10779-59.555-36.636-76.43572-52.09586-17.87216-16.36937-25.12559-29.899-21.55884-40.21349,6.94735-20.09335,52.75115-20.56628,89.95241-17.42482l-.25285,2.99009c-51.08652-4.31463-81.93539,1.15977-86.86485,15.41583-6.27822,18.15674,28.94387,50.49194,96.635,88.71534,69.3124,39.13879,165.134,80.62863,269.81607,116.82341C681.86436,567.827,782.84823,594.38965,861.532,606.42485c76.84327,11.75421,124.51643,8.08221,130.79464-10.07452,5.21254-15.075-18.13628-40.03156-65.74443-70.27406l1.6084-2.53227c34.5929,21.97433,74.29269,52.613,66.97115,73.78654-3.5663,10.31472-17.62824,16.47367-41.79373,18.30675-22.82558,1.73124-53.87628-.37042-92.28937-6.24682-78.8581-12.06163-180.02834-38.67129-284.87579-74.9249C510.43016,511.72217,448.12405,486.8818,393.68219,461.84636Z" transform="translate(-203.9569 -150.58185)" fill="#44a1f6"/><circle cx="238.79557" cy="141.10206" r="17.48305" fill="#e6e6e6"/><circle cx="583.40125" cy="361.27291" r="10.70234" fill="#ff6584"/><circle cx="59.97671" cy="448.43695" r="17.48305" fill="#e6e6e6"/></svg>