<svg xmlns="http://www.w3.org/2000/svg" data-name="Layer 1" width="881.63115" height="587.66492" viewBox="0 0 881.63115 587.66492" xmlns:xlink="http://www.w3.org/1999/xlink"><polygon points="150.925 561.321 164.207 564.918 184.406 515.395 164.801 510.085 150.925 561.321" fill="#ffb6b6"/><path d="M303.0762,731.06123l40.84755,11.06361.13994-.5166a16.47276,16.47276,0,0,0-11.592-20.20547l-.001-.00026-5.92787-7.68168-15.45468,1.89028-3.56573-.9658Z" transform="translate(-156.3731 -156.0101)" fill="#2f2e41"/><polygon points="242.64 572.847 256.401 572.846 262.948 519.764 242.637 519.765 242.64 572.847" fill="#ffb6b6"/><path d="M398.52792,743.21267l42.31934-.00159v-.53521a16.47275,16.47275,0,0,0-16.47186-16.47162h-.001l-7.73017-5.8645-14.42279,5.86541-3.69421.00013Z" transform="translate(-156.3731 -156.0101)" fill="#2f2e41"/><path d="M404.88859,422.7734,423.35669,684.351l-29.74111,2.63529L352.12385,493.12634l4.59768,112.166-16.46767,88.21963L315.07994,681.3392l.41815-91.85864-33.0507-148.44245,8.79678-18.26471Z" transform="translate(-156.3731 -156.0101)" fill="#2f2e41"/><path d="M286.6649,455.31924l-.18455-.25888c-9.85645-13.79923,4.96766-46.95847,7.20349-51.76535h0a12.068,12.068,0,0,1-8.26035-12.88864l.96382-8.193,1.00466-8.03622-7.19742-7.19742-.02024-.1795-4.142-36.24247L270.01,306.48589A52.84834,52.84834,0,0,1,285.01,255.26965l13.92059-2.21044,16.91786-16.30056h27.282l9.35437,8.93736c17.46252,3.06264,20.46252,2.06264,35.46252,20.06265l-6.81592,55.96246-1.70034,7.69873.00506,10.442L383.759,344.666a14.94957,14.94957,0,0,1,3.54623,12.93155l-.56848,2.84228h0c4.45834,1.91065,8.71258,35.86551,9.729,40.60831l1.51828,7.08466c1.29892,1.714,9.87262,13.146,9.87262,16.27118,0,.4692-.34634.92276-1.0896,1.4259-5.84286,3.95642-29.13751,32.02249-43.43072,26.303-15.22507-6.08759-75.74715,3.0448-76.35692,3.13785Z" transform="translate(-156.3731 -156.0101)" fill="#3f3d56"/><path d="M282.99951,390.24407s7.006-39.59457-.05212-54.48538l-28,2,4.2612,56.48654,24.47718,62.71747a11.15409,11.15409,0,1,0,18.07814-6.46292Z" transform="translate(-156.3731 -156.0101)" fill="#ffb6b6"/><path d="M254.94739,314.75869l1.73291-18.87121a54.10669,54.10669,0,0,1,19.40277-36.75187h0a23.68675,23.68675,0,0,1,24.78746-3.27206h0a23.63085,23.63085,0,0,1,12.20471,29.86636c-6.47153,16.97245-4.13467,34.92127-16.75349,37.1095l1.37095,6.52243-12.40736,40.49039-35.338-4.09354Z" transform="translate(-156.3731 -156.0101)" fill="#3f3d56"/><path d="M393.72693,443.94423a11.15409,11.15409,0,1,0,18.99409,2.7952l11.7131-66.298-6.89-56.22645-27.84908,3.52537c-4.0034,15.98518,10.62535,53.43934,10.62535,53.43934Z" transform="translate(-156.3731 -156.0101)" fill="#ffb6b6"/><path d="M427.93385,350.6924l-33.85074,10.93868-13.033-20.33182.06631-6.66461c-12.803.32687-21.0965-34.67429-30.76834-50.04959a23.63089,23.63089,0,0,1,6.11575-31.67889h0a23.68676,23.68676,0,0,1,24.9481-1.64848h0a54.10676,54.10676,0,0,1,26.22818,32.23737l5.39717,18.1658Z" transform="translate(-156.3731 -156.0101)" fill="#3f3d56"/><circle cx="171.27564" cy="42.57533" r="30.29866" fill="#ffb6b6"/><path d="M305.66026,219.94143c-.26446-.23195-.5141-.47961-.77258-.718-.00928.02444-.01068.04951-.02057.07388Z" transform="translate(-156.3731 -156.0101)" fill="#2f2e41"/><path d="M352.47835,166.59a17.18212,17.18212,0,0,0-6.06723-5.84973,25.38049,25.38049,0,0,0-5.30375-1.87919l-4.795-1.30828a38.013,38.013,0,0,0-7.54407-1.519,19.41847,19.41847,0,0,0-17.73712,9.62263c-1.44867,2.56955-2.61072,5.77155-5.40671,6.71164-2.25448.75806-4.71427-.31122-7.08371-.10377a8.52954,8.52954,0,0,0-6.47572,4.77,18.38022,18.38022,0,0,0-1.6989,8.14124,45.619,45.619,0,0,0,14.52158,34.048c.782-2.06129-.506-4.28677-1.5242-6.25861-1.03024-1.99521-1.66692-4.77682.05859-6.21382,1.92-1.599,4.99616-.04843,7.26682-1.09117a5.07328,5.07328,0,0,0,2.5361-4.0766c.21979-1.65672-.00967-3.34077.0943-5.00877a12.54223,12.54223,0,0,1,13.29822-11.73767q.05671.00352.11343.00758c5.16846.36919,10.18433,3.90094,15.15811,2.448,2.33472-.682,4.326-2.41847,6.74066-2.71056,2.6742-.32351,5.18988,1.1857,7.46058,2.63484A26.59627,26.59627,0,0,0,352.47835,166.59Z" transform="translate(-156.3731 -156.0101)" fill="#2f2e41"/><path d="M510.80525,726.19l-7.71-12.39-1.54,7.08008c-.27,1.24-.54,2.5-.79,3.75-2.19-1.87012-4.52-3.6001-6.79981-5.26q-10.5-7.62012-20.99023-15.26l2.18994,12.7c1.3501,7.82007,2.76025,15.8,6.1001,22.95.37011.81006.77,1.61011,1.20019,2.39014h32.54a10.48638,10.48638,0,0,0,.54-2.24011.77355.77355,0,0,0,.00976-.15C516.0655,734.91,513.38532,730.34005,510.80525,726.19Z" transform="translate(-156.3731 -156.0101)" fill="#f0f0f0"/><path d="M548.66611,743.3677l-315.3575.30731a1.19069,1.19069,0,0,1,0-2.38135l315.3575-.30731a1.19069,1.19069,0,0,1,0,2.38135Z" transform="translate(-156.3731 -156.0101)" fill="#cacaca"/><path d="M874.6366,349.40572a140.208,140.208,0,1,1-8.87687-49.37215c.30571.82337.60383,1.64665.8939,2.478v.00787q1.941,5.48139,3.41908,11.16677A141.16005,141.16005,0,0,1,874.6366,349.40572Z" transform="translate(-156.3731 -156.0101)" fill="#3f3d56"/><path d="M718.04051,254.1716a47.35963,47.35963,0,0,0-41.57716-1.701c-5.81324,2.52993-11.93436,7.06832-13.87361,15.26383,7.84327-4.62882,17.99616,2.68468,20.01444,14.417l-.47109.12993c-1.066,8.12629,1.31372,16.97369,5.92084,22.01256a15.48213,15.48213,0,0,1,7.43131-11.02138c3.385-2.22516,7.12967-3.84161,9.71336-7.66641,3.06291-4.53441,3.84071-11.16135,5.0575-17.20679S713.78115,255.85614,718.04051,254.1716Z" transform="translate(-156.3731 -156.0101)" fill="#44a1f6"/><path d="M674.13673,323.32377c-2.17217,3.2622-5.07359,5.309-7.67708,7.85756a17.673,17.673,0,0,0-5.58339,10.43745c-.3294,2.83875.1803,5.72444.10968,8.59467-.07043,2.87-1.02726,6.10086-2.97981,6.81446-3.0819,1.11344-5.43446-4.611-8.60244-5.01093-2.51732-.31367-4.78353,3.64648-4.05429,7.0812s4.15619,4.956,6.12447,2.71326c1.78011,2.98768.52534,8.4065-2.14867,9.32391-.28238,1.882-.56459,3.75626-.8391,5.63827-6.75968-4.72864-13.58987-9.53558-19.33792-16.46a49.96208,49.96208,0,0,1-11.38632-26.91309c-.745-7.95946.36069-17.06384-3.29348-23.18821-2.92511-4.90116-7.94391-5.98341-12.46079-5.67752-.82337.0548-1.65452.14893-2.478.25092a139.609,139.609,0,0,1,10.108-23.13341,9.90259,9.90259,0,0,0,2.53287-1.57631c4.20329-3.56795,6.06967-10.79035,9.48079-15.7856q.32945-.48231.68222-.941c3.4897-4.55617,8.16337-6.90087,12.68024-9.08091,9.99836-4.85405,20.2867-9.77086,30.84187-9.0965l-3.00341.29016q-5.25787,14.727-10.5238,29.45395-.8,2.25833-1.61536,4.52475c-1.99188,5.5833-4.04642,11.52746-3.74053,17.77743.18039,3.70128,1.46636,7.65366,3.913,8.924,2.282,1.17629,4.77566-.26665,6.97912-1.69385.93323-.596,1.8586-1.192,2.79174-1.79584,3.34846-2.15654,7.05761-4.36787,10.59432-2.925,3.23869,1.31743,5.63041,5.71676,6.08523,10.461A20.91408,20.91408,0,0,1,674.13673,323.32377Z" transform="translate(-156.3731 -156.0101)" fill="#44a1f6"/><path d="M694.05171,390.35346q-14.66931-9.03208-29.33862-18.06407l.16592-.4276c-6.08043,2.31595-8.60489,13.12429-7.6,21.96319s4.41217,16.7404,6.13351,25.35279a67.2942,67.2942,0,0,1-2.53712,35.31109,289.18421,289.18421,0,0,0,33.971-46.8107,25.04407,25.04407,0,0,0,3.07286-6.81366,10.83932,10.83932,0,0,0-.71849-7.70945A8.58324,8.58324,0,0,0,694.05171,390.35346Z" transform="translate(-156.3731 -156.0101)" fill="#44a1f6"/><path d="M655.45527,280.80687a10.814,10.814,0,0,0-.49559,7.86407,8.717,8.717,0,0,0,4.87015,4.51064l5.40363,2.67844c1.79765.8911,3.73537,1.79106,5.56792,1.05792,2.21034-.88422,3.74288-4.3495,3.34647-7.56649-.422-3.42333-2.57979-5.77807-4.57546-7.78333q-4.18925-4.2093-8.37839-8.41857l-1.57395,1.92777A21.0205,21.0205,0,0,0,655.45527,280.80687Z" transform="translate(-156.3731 -156.0101)" fill="#44a1f6"/><path d="M845.66888,317.40321q3.64657.85868,7.293,1.71727c-.42353,8.21047-4.49336,15.80924-9.95125,18.56165-2.27417,1.145-4.807,1.56835-6.68914,3.70924-1.70163,1.94477-2.56433,4.9716-3.35633,7.86524q-2.08193,7.57527-4.16405,15.15035c-1.48986,5.44225-3.40325,11.48841-7.27715,13.44882-3.32495,1.68589-7.12823-.37651-9.6846-3.83474-2.55646-3.45814-4.11694-8.10839-5.6305-12.64091.09413,4.94032-2.20346,9.7866-5.45788,11.50387-3.2622,1.71727-7.23022.16465-9.41017-3.66991-1.56835-2.7525-2.2192-6.38334-3.75626-9.175-1.537-2.79165-4.75993-4.39137-6.43814-1.77224-1.10575,1.741-.9646,4.4071-1.51355,6.61852a7.187,7.187,0,0,1-6.00674,5.77942,10.01659,10.01659,0,0,1-7.191-3.2858,32.57391,32.57391,0,0,1-8.93185-18.01262,21.48785,21.48785,0,0,1,.251-9.84934c.96451-3.05034,3.29348-5.40282,5.6068-4.82268,1.52133-3.21527-1.482-7.48114-4.18747-7.10472-2.71335.37642-4.83841,3.28571-7.06547,5.52064-2.2192,2.23493-5.32452,3.85816-7.55954,1.63887a3.06647,3.06647,0,0,1-2.87221,3.24909q-.12043.00746-.241.00534a11.12,11.12,0,0,1-4.0542-2.14867c-5.1207-3.19167-11.62168-1.07429-15.26021,4.96382,2.27417-9.67682,5.6069-20.78084,12.59389-23.055,2.85458-.93314,5.96777-.16465,8.66529-1.78011,4.77575-2.86217,5.74026-13.67613,1.61545-18.138.52535,4.21885.42353,9.14352-1.80362,12.02939-2.22706,2.88587-6.90082,1.00367-6.61843-3.2622a2.85789,2.85789,0,0,1-5.31674,1.12918c-1.48209-2.25835-1.35658-5.95186-.3058-8.64947a20.37318,20.37318,0,0,1,4.57176-6.493c3.72488-3.99144,7.50464-8.03,11.81771-10.53944,4.32085-2.50935,9.30827-3.35623,13.63689-.86252,2.28213,1.31734,4.28956,3.51312,6.61853,4.67367a4.90462,4.90462,0,0,0,6.75352-1.58164q.03933-.06334.07677-.12795c1.733-3.04266.9174-7.55953,1.56048-11.36276,1.15268-6.72039,7.87311-9.865,11.598-5.42656-2.78378-.71355-5.66178,2.58-6.00683,6.57156-.35282,3.99144,1.66257,8.02217,4.36009,9.22982,4.53261,2.00743,8.971-3.04274,12.39794-7.71641q5.36367-7.34,10.74325-14.672a17.72683,17.72683,0,0,1,1.92117-2.33688,6.182,6.182,0,0,1,8.44565-.17248c3.62289,2.95631,5.32461,9.01811,8.29674,13.1899,4.313,6.06171,10.76684,7.536,16.77358,8.71226q6.71645,1.30572,13.441,2.627a139.27,139.27,0,0,1,7.80258,17.22858A47.22139,47.22139,0,0,0,845.66888,317.40321Z" transform="translate(-156.3731 -156.0101)" fill="#44a1f6"/><path d="M870.07271,313.68619a28.26539,28.26539,0,0,0-1.49,8.39855c-3.84251-4.6894-4.45421-13.48-1.92912-19.56532Q868.59464,308.00081,870.07271,313.68619Z" transform="translate(-156.3731 -156.0101)" fill="#44a1f6"/><path d="M860.145,411.75613a140.59469,140.59469,0,0,1-11.68435,19.54959c-2.823-1.20766-5.85781.94878-8.50054,2.972-2.76036,2.11729-6.07745,4.17969-8.90834,2.25057-2.89355-1.97615-3.82678-7.50456-2.90928-11.88824a31.67566,31.67566,0,0,1,5.4265-11.16678c2.35257-3.51312,4.8697-7.1596,8.13986-8.52405,3.27793-1.36445,7.48891.56459,8.44565,5.2227l2.32119-.07849c-1.30178-1.78789-.61947-5.48926,1.12927-6.14011,2.01529-.76061,3.76412,2.00744,4.956,4.45422C859.09419,409.51324,859.63517,410.62687,860.145,411.75613Z" transform="translate(-156.3731 -156.0101)" fill="#44a1f6"/><path d="M771.2455,378.63285c-4.98924.31376-8.94125-5.82824-11.56734-11.87061s-5.02233-12.95222-9.52411-16.02779c-2.57228-1.75742-5.5049-1.99848-8.29492-2.85015a10.27089,10.27089,0,0,1-7.04432-6.202l-3.1649-1.27846a47.53038,47.53038,0,0,0-12.01619,8.56791,26.85619,26.85619,0,0,0-7.16005,15.65327c-.60456,6.33487,1.62793,13.39863,5.7994,15.77832,3.2961,1.88039,7.13365.69516,10.47234,2.41659,4.17147,2.15065,6.648,8.39836,7.58549,14.56713s.69985,12.57951,1.37059,18.81827,2.51922,12.73042,6.34474,15.92752c4.78714,4.00084,11.81165.67634,13.95941-6.60659,1.0535-3.57234,1.01724-7.60339,1.80525-11.31163,1.3876-6.53046,5.1321-11.37556,8.102-16.73244S773.22074,384.84973,771.2455,378.63285Z" transform="translate(-156.3731 -156.0101)" fill="#44a1f6"/><path d="M721.94451,314.462a13.31493,13.31493,0,0,1,1.29926,1.37928,4.53137,4.53137,0,0,1-.07976,4.67936,4.35313,4.35313,0,0,0,3.11762-1.58453,20.04039,20.04039,0,0,0,2.39036-3.36718,3.67,3.67,0,0,0,.70483-2.93722c-.23573-.67264-.79308-.95955-1.18379-1.46545a9.959,9.959,0,0,1-1.09336-3.17585,5.728,5.728,0,0,0-4.151-4.37464l.25.04783a2.37166,2.37166,0,0,0-1.11091,2.52635c.15145.97854.78024,1.791.71767,2.789-.09,1.43516-1.52423,2.10861-1.61284,3.54395A2.73986,2.73986,0,0,0,721.94451,314.462Z" transform="translate(-156.3731 -156.0101)" fill="#44a1f6"/><path d="M713.39632,290.07373l.02224-.00434a4.0049,4.0049,0,0,0,.4257-.45346Z" transform="translate(-156.3731 -156.0101)" fill="#44a1f6"/><path d="M714.8926,296.81016A4.3509,4.3509,0,0,0,716.247,292.497c-.3624-1.63182-1.6452-2.729-2.82845-2.42761a2.88291,2.88291,0,0,1-2.68052.78919c-.7315-.18835-1.53462-.67336-2.1691-.12216a3.28391,3.28391,0,0,0-.73883,1.44267q-.35223,1.08138-.70456,2.1625a1.36467,1.36467,0,0,0-.08328.81948.69422.69422,0,0,0,.5324.42326q2.11355.62309,4.2269,1.24609A3.64169,3.64169,0,0,0,714.8926,296.81016Z" transform="translate(-156.3731 -156.0101)" fill="#44a1f6"/><path d="M821.26044,389.81347q-.97695-1.59951-1.9539-3.199a10.68739,10.68739,0,0,0-2.57473-3.2329,2.28137,2.28137,0,0,0-3.21391.28383l-.034.0415.0793.60908a13.75492,13.75492,0,0,1,3.43183,6.69592c.14847,1.08975.09684,2.21757.227,3.31211a3.86276,3.86276,0,0,0,1.20666,2.70141c1.02555.68512,2.22977-.32506,2.95965-1.55768a5.36363,5.36363,0,0,0,.831-3.4141A5.98661,5.98661,0,0,0,821.26044,389.81347Z" transform="translate(-156.3731 -156.0101)" fill="#44a1f6"/><path d="M831.47762,391.20115a7.38352,7.38352,0,0,0-.23844-2.97719,6.53562,6.53562,0,0,1,.99454-3.70508,12.04549,12.04549,0,0,0,1.54963-3.39738,2.84187,2.84187,0,0,0-.07432-1.66374c-.21557-.48429-.73775-.70519-1.03731-.32171l.641.41286a5.83706,5.83706,0,0,0-2.60122.126,3.21925,3.21925,0,0,0-1.97144,2.22236,13.756,13.756,0,0,1-.517,2.30582c-.38239.78594-1.12248,1.04734-1.58761,1.73716a4.15333,4.15333,0,0,0,.06538,3.94569,4.60591,4.60591,0,0,0,2.60511,2.04866C830.08876,392.21549,831.11947,392.23032,831.47762,391.20115Z" transform="translate(-156.3731 -156.0101)" fill="#44a1f6"/><path d="M849.67244,396.69077A8.95043,8.95043,0,0,0,850.7998,398.76c.87112.87744,2.05491.33817,3.11165.125a5.38,5.38,0,0,1,5.118,2.05282,13.02708,13.02708,0,0,0-7.49235-9.34751,22.01127,22.01127,0,0,0-7.70539-1.20494l-.44749.11465C844.52452,393.81919,848.10518,393.745,849.67244,396.69077Z" transform="translate(-156.3731 -156.0101)" fill="#44a1f6"/><path d="M772.6104,403.47974l.00651.01447.1302-.25074Z" transform="translate(-156.3731 -156.0101)" fill="#44a1f6"/><path d="M769.85012,408.82243a24.52,24.52,0,0,0-1.54854,3.40172,29.61322,29.61322,0,0,0-1.1223,5.82065c-.14015,1.12176-.18347,2.55447.51937,3.10107a.99689.99689,0,0,0,1.30414-.17714,5.1574,5.1574,0,0,0,.94544-1.40522,32.37207,32.37207,0,0,0,3.19149-7.57464,13.181,13.181,0,0,0-.52272-8.49466Q771.2337,406.1584,769.85012,408.82243Z" transform="translate(-156.3731 -156.0101)" fill="#44a1f6"/><path d="M743.222,266.48089a3.14244,3.14244,0,0,0,3.38671.661,11.18336,11.18336,0,0,0,3.1866-2.10486,7.49787,7.49787,0,0,0,1.93175-2.1073,4.274,4.274,0,0,0,.39514-3.25568,3.30689,3.30689,0,0,0-2.52057-1.99387q-2.34587-.69572-4.69175-1.39126l1.13135-1.01967c-1.164-.62467-2.45167.53465-3.17919,1.97a10.60635,10.60635,0,0,0-.96507,2.97082A7.62575,7.62575,0,0,0,743.222,266.48089Z" transform="translate(-156.3731 -156.0101)" fill="#44a1f6"/><path d="M770.83273,257.21168a2.58352,2.58352,0,0,0,3.52116.28645,3.93607,3.93607,0,0,0,1.55741-2.80512c.11067-1.23017-.49759-2.59742-1.36626-2.70367l.19883-1.15178c-1.6735-.30223-3.73274-.36277-4.62954,1.66949A4.77133,4.77133,0,0,0,770.83273,257.21168Z" transform="translate(-156.3731 -156.0101)" fill="#44a1f6"/><g opacity="0.35"><path d="M1035.58691,356.36c9.23539-4.02679-9.49391-6.37086-30.74313-7.1416s-46.95466-.72807-60.53405-2.92023c-13.13324-2.12019-12.16556-5.88992-13.27032-9.30547s-6.15367-6.91763-26.6468-7.6769c-25.53707-.94607-67.64925,2.69572-86.92685.50934-17.98965-2.04034-7.29614-8.44041-33.52827-8.68536-14.97928-.13988-34.27668,1.97009-50.9442,2.47934a185.71585,185.71585,0,0,1-35.34826-1.843c-8.12394-1.331-13.78228-3.01842-22.92545-4.19407-24.00443-3.0866-70.96868-2.04911-112.886,1.90679s-77.84811,10.43889-98.11194,16.85994-25.86226,12.74308-21.142,18.10412c3.01413,3.42333,10.7272,6.6244,29.43709,8,34.99571,2.573,97.30254-1.85588,133.46458.48511,20.15469,1.30468,29.09612,4.53948,46.77988,6.30947,18.99811,1.90163,46.80972,2.00236,74.13458,1.95733,56.89389-.09394,115.24291-.67851,174.74127-1.75045,24.85141-.44776,50.89076-1.02989,77.33484-3.16373s53.41595-6.25087,58.9949-10.11039" transform="translate(-156.3731 -156.0101)" fill="#fff"/></g><path d="M875.02407,534.21348q-19.36817,0-42.45655-1.46387c-79.61377-5.05566-182.73779-22.63281-290.376-49.49218-107.6377-26.85938-206.93018-59.79395-279.58545-92.73438-35.39258-16.04687-62.55615-31.23633-80.73535-45.14746-19.24707-14.727-27.666-27.564-25.02393-38.15283,5.14795-20.62891,50.731-25.14209,88.064-25.29541l.01269,3c-51.26807.21045-81.51367,8.38672-85.16553,23.022-4.65185,18.64014,33.28662,47.74072,104.08692,79.84131,72.4956,32.86816,171.60547,65.73926,279.07324,92.55664,107.46728,26.81641,210.40137,44.36328,289.83984,49.4082,77.57862,4.92774,124.74317-2.9375,129.39453-21.57812,3.86182-15.47656-21.59814-38.27539-71.68945-64.19824l1.37891-2.66407c36.397,18.83594,78.64551,45.85157,73.22168,67.58887-2.64258,10.58887-16.10547,17.96484-40.01514,21.92285C911.41909,533.08262,894.67836,534.21348,875.02407,534.21348Z" transform="translate(-156.3731 -156.0101)" fill="#44a1f6"/><path d="M382.3695,538.11972c-35.59912.001-68.69433-1.2207-98.32226-3.68554-38.72657-3.22266-69.41455-8.40332-91.21045-15.39649-23.07666-7.40527-35.31934-16.667-36.38819-27.52832-2.083-21.1582,39.334-40.72461,74.44532-53.41308l1.01953,2.82226c-48.2168,17.42383-73.957,35.28613-72.47949,50.29785,1.88183,19.11914,47.39209,33.78125,124.86181,40.22754,79.3252,6.60059,183.71729,4.26172,293.94727-6.58984,110.23-10.84863,213.07568-28.90625,289.59131-50.8457,74.72607-21.42579,116.50488-44.67969,114.623-63.79883-1.5625-15.874-33.20263-28.793-89.09179-36.37891l.40332-2.97265c40.60986,5.51171,89.47949,16.76171,91.67382,39.05761,1.06934,10.86133-9.1333,22.332-30.32275,34.09375-20.01465,11.10938-49.10352,22.17285-86.4585,32.88281-76.685,21.98829-179.71972,40.08106-290.12451,50.94825C509.27771,534.65683,442.29187,538.11972,382.3695,538.11972Z" transform="translate(-156.3731 -156.0101)" fill="#44a1f6"/><circle cx="437.84782" cy="427.99201" r="17.48305" fill="#44a1f6"/><circle cx="93.57424" cy="324.77272" r="17.48305" fill="#e6e6e6"/><circle cx="414.57288" cy="63.57233" r="10.70234" fill="#ff6584"/><circle cx="349.8197" cy="137.58198" r="17.48305" fill="#e6e6e6"/></svg>