<?xml version="1.0" encoding="UTF-8" standalone="no"?>
<!DOCTYPE svg PUBLIC "-//W3C//DTD SVG 1.1//EN"
 "http://www.w3.org/Graphics/SVG/1.1/DTD/svg11.dtd">
<!-- Generated by graphviz version 2.43.0 (0)
 -->
<!-- Title: /home/runner/work/opendal/opendal/bindings/cpp/include/async_defs.hpp Pages: 1 -->
<svg width="190pt" height="104pt"
 viewBox="0.00 0.00 189.50 104.00" xmlns="http://www.w3.org/2000/svg" xmlns:xlink="http://www.w3.org/1999/xlink">
<g id="graph0" class="graph" transform="scale(1 1) rotate(0) translate(4 100)">
<title>/home/runner/work/opendal/opendal/bindings/cpp/include/async_defs.hpp</title>
<!-- Node1 -->
<g id="Node000001" class="node">
<title>Node1</title>
<g id="a_Node000001"><a xlink:title=" ">
<polygon fill="#999999" stroke="#666666" points="163,-96 2,-96 2,-55 163,-55 163,-96"/>
<text text-anchor="start" x="10" y="-84" font-family="Helvetica,sans-Serif" font-size="10.00">/home/runner/work/opendal</text>
<text text-anchor="start" x="10" y="-73" font-family="Helvetica,sans-Serif" font-size="10.00">/opendal/bindings/cpp/include</text>
<text text-anchor="middle" x="82.5" y="-62" font-family="Helvetica,sans-Serif" font-size="10.00">/async_defs.hpp</text>
</a>
</g>
</g>
<!-- Node2 -->
<g id="Node000002" class="node">
<title>Node2</title>
<g id="a_Node000002"><a xlink:title=" ">
<polygon fill="#e0e0e0" stroke="#999999" points="65,-19 0,-19 0,0 65,0 65,-19"/>
<text text-anchor="middle" x="32.5" y="-7" font-family="Helvetica,sans-Serif" font-size="10.00">rust/cxx.h</text>
</a>
</g>
</g>
<!-- Node1&#45;&gt;Node2 -->
<g id="edge1_Node000001_Node000002" class="edge">
<title>Node1&#45;&gt;Node2</title>
<g id="a_edge1_Node000001_Node000002"><a xlink:title=" ">
<path fill="none" stroke="#63b8ff" d="M67.23,-54.95C60.32,-46.11 52.24,-35.77 45.61,-27.29"/>
<polygon fill="#63b8ff" stroke="#63b8ff" points="48.26,-24.99 39.34,-19.26 42.74,-29.3 48.26,-24.99"/>
</a>
</g>
</g>
<!-- Node3 -->
<g id="Node000003" class="node">
<title>Node3</title>
<g id="a_Node000003"><a xlink:title=" ">
<polygon fill="#e0e0e0" stroke="#999999" points="181.5,-19 83.5,-19 83.5,0 181.5,0 181.5,-19"/>
<text text-anchor="middle" x="132.5" y="-7" font-family="Helvetica,sans-Serif" font-size="10.00">rust/cxx_async.h</text>
</a>
</g>
</g>
<!-- Node1&#45;&gt;Node3 -->
<g id="edge2_Node000001_Node000003" class="edge">
<title>Node1&#45;&gt;Node3</title>
<g id="a_edge2_Node000001_Node000003"><a xlink:title=" ">
<path fill="none" stroke="#63b8ff" d="M97.77,-54.95C104.68,-46.11 112.76,-35.77 119.39,-27.29"/>
<polygon fill="#63b8ff" stroke="#63b8ff" points="122.26,-29.3 125.66,-19.26 116.74,-24.99 122.26,-29.3"/>
</a>
</g>
</g>
</g>
</svg>
