<?xml version="1.0" encoding="UTF-8" standalone="no"?>
<!DOCTYPE svg PUBLIC "-//W3C//DTD SVG 1.1//EN"
 "http://www.w3.org/Graphics/SVG/1.1/DTD/svg11.dtd">
<!-- Generated by graphviz version 2.43.0 (0)
 -->
<!-- Title: /home/runner/work/opendal/opendal/bindings/cpp/include/data_structure.hpp Pages: 1 -->
<svg width="262pt" height="104pt"
 viewBox="0.00 0.00 262.00 104.00" xmlns="http://www.w3.org/2000/svg" xmlns:xlink="http://www.w3.org/1999/xlink">
<g id="graph0" class="graph" transform="scale(1 1) rotate(0) translate(4 100)">
<title>/home/runner/work/opendal/opendal/bindings/cpp/include/data_structure.hpp</title>
<!-- Node1 -->
<g id="Node000001" class="node">
<title>Node1</title>
<g id="a_Node000001"><a xlink:title=" ">
<polygon fill="#999999" stroke="#666666" points="208.5,-96 47.5,-96 47.5,-55 208.5,-55 208.5,-96"/>
<text text-anchor="start" x="55.5" y="-84" font-family="Helvetica,sans-Serif" font-size="10.00">/home/runner/work/opendal</text>
<text text-anchor="start" x="55.5" y="-73" font-family="Helvetica,sans-Serif" font-size="10.00">/opendal/bindings/cpp/include</text>
<text text-anchor="middle" x="128" y="-62" font-family="Helvetica,sans-Serif" font-size="10.00">/data_structure.hpp</text>
</a>
</g>
</g>
<!-- Node2 -->
<g id="Node000002" class="node">
<title>Node2</title>
<g id="a_Node000002"><a xlink:title=" ">
<polygon fill="#e0e0e0" stroke="#999999" points="50,-19 0,-19 0,0 50,0 50,-19"/>
<text text-anchor="middle" x="25" y="-7" font-family="Helvetica,sans-Serif" font-size="10.00">chrono</text>
</a>
</g>
</g>
<!-- Node1&#45;&gt;Node2 -->
<g id="edge1_Node000001_Node000002" class="edge">
<title>Node1&#45;&gt;Node2</title>
<g id="a_edge1_Node000001_Node000002"><a xlink:title=" ">
<path fill="none" stroke="#63b8ff" d="M96.54,-54.95C80.72,-45.12 61.91,-33.43 47.55,-24.51"/>
<polygon fill="#63b8ff" stroke="#63b8ff" points="49.17,-21.4 38.83,-19.09 45.47,-27.34 49.17,-21.4"/>
</a>
</g>
</g>
<!-- Node3 -->
<g id="Node000003" class="node">
<title>Node3</title>
<g id="a_Node000003"><a xlink:title=" ">
<polygon fill="#e0e0e0" stroke="#999999" points="118,-19 68,-19 68,0 118,0 118,-19"/>
<text text-anchor="middle" x="93" y="-7" font-family="Helvetica,sans-Serif" font-size="10.00">cstdint</text>
</a>
</g>
</g>
<!-- Node1&#45;&gt;Node3 -->
<g id="edge2_Node000001_Node000003" class="edge">
<title>Node1&#45;&gt;Node3</title>
<g id="a_edge2_Node000001_Node000003"><a xlink:title=" ">
<path fill="none" stroke="#63b8ff" d="M117.31,-54.95C112.63,-46.39 107.18,-36.42 102.62,-28.1"/>
<polygon fill="#63b8ff" stroke="#63b8ff" points="105.66,-26.35 97.79,-19.26 99.52,-29.71 105.66,-26.35"/>
</a>
</g>
</g>
<!-- Node4 -->
<g id="Node000004" class="node">
<title>Node4</title>
<g id="a_Node000004"><a xlink:title=" ">
<polygon fill="#e0e0e0" stroke="#999999" points="192,-19 136,-19 136,0 192,0 192,-19"/>
<text text-anchor="middle" x="164" y="-7" font-family="Helvetica,sans-Serif" font-size="10.00">optional</text>
</a>
</g>
</g>
<!-- Node1&#45;&gt;Node4 -->
<g id="edge3_Node000001_Node000004" class="edge">
<title>Node1&#45;&gt;Node4</title>
<g id="a_edge3_Node000001_Node000004"><a xlink:title=" ">
<path fill="none" stroke="#63b8ff" d="M139,-54.95C143.81,-46.39 149.42,-36.42 154.1,-28.1"/>
<polygon fill="#63b8ff" stroke="#63b8ff" points="157.22,-29.69 159.07,-19.26 151.12,-26.26 157.22,-29.69"/>
</a>
</g>
</g>
<!-- Node5 -->
<g id="Node000005" class="node">
<title>Node5</title>
<g id="a_Node000005"><a xlink:title=" ">
<polygon fill="#e0e0e0" stroke="#999999" points="254,-19 210,-19 210,0 254,0 254,-19"/>
<text text-anchor="middle" x="232" y="-7" font-family="Helvetica,sans-Serif" font-size="10.00">string</text>
</a>
</g>
</g>
<!-- Node1&#45;&gt;Node5 -->
<g id="edge4_Node000001_Node000005" class="edge">
<title>Node1&#45;&gt;Node5</title>
<g id="a_edge4_Node000001_Node000005"><a xlink:title=" ">
<path fill="none" stroke="#63b8ff" d="M159.77,-54.95C175.74,-45.12 194.74,-33.43 209.24,-24.51"/>
<polygon fill="#63b8ff" stroke="#63b8ff" points="211.36,-27.31 218.04,-19.09 207.69,-21.35 211.36,-27.31"/>
</a>
</g>
</g>
</g>
</svg>
