<?xml version="1.0" encoding="UTF-8" standalone="no"?>
<!DOCTYPE svg PUBLIC "-//W3C//DTD SVG 1.1//EN"
 "http://www.w3.org/Graphics/SVG/1.1/DTD/svg11.dtd">
<!-- Generated by graphviz version 2.43.0 (0)
 -->
<!-- Title: /home/runner/work/opendal/opendal/bindings/cpp/include/layer.hpp Pages: 1 -->
<svg width="268pt" height="104pt"
 viewBox="0.00 0.00 267.50 104.00" xmlns="http://www.w3.org/2000/svg" xmlns:xlink="http://www.w3.org/1999/xlink">
<g id="graph0" class="graph" transform="scale(1 1) rotate(0) translate(4 100)">
<title>/home/runner/work/opendal/opendal/bindings/cpp/include/layer.hpp</title>
<!-- Node1 -->
<g id="Node000001" class="node">
<title>Node1</title>
<g id="a_Node000001"><a xlink:title=" ">
<polygon fill="#999999" stroke="#666666" points="209.5,-96 48.5,-96 48.5,-55 209.5,-55 209.5,-96"/>
<text text-anchor="start" x="56.5" y="-84" font-family="Helvetica,sans-Serif" font-size="10.00">/home/runner/work/opendal</text>
<text text-anchor="start" x="56.5" y="-73" font-family="Helvetica,sans-Serif" font-size="10.00">/opendal/bindings/cpp/include</text>
<text text-anchor="middle" x="129" y="-62" font-family="Helvetica,sans-Serif" font-size="10.00">/layer.hpp</text>
</a>
</g>
</g>
<!-- Node2 -->
<g id="Node000002" class="node">
<title>Node2</title>
<g id="a_Node000002"><a xlink:title=" ">
<polygon fill="#e0e0e0" stroke="#999999" points="50,-19 0,-19 0,0 50,0 50,-19"/>
<text text-anchor="middle" x="25" y="-7" font-family="Helvetica,sans-Serif" font-size="10.00">chrono</text>
</a>
</g>
</g>
<!-- Node1&#45;&gt;Node2 -->
<g id="edge1_Node000001_Node000002" class="edge">
<title>Node1&#45;&gt;Node2</title>
<g id="a_edge1_Node000001_Node000002"><a xlink:title=" ">
<path fill="none" stroke="#63b8ff" d="M97.23,-54.95C81.26,-45.12 62.26,-33.43 47.76,-24.51"/>
<polygon fill="#63b8ff" stroke="#63b8ff" points="49.31,-21.35 38.96,-19.09 45.64,-27.31 49.31,-21.35"/>
</a>
</g>
</g>
<!-- Node3 -->
<g id="Node000003" class="node">
<title>Node3</title>
<g id="a_Node000003"><a xlink:title=" ">
<polygon fill="#e0e0e0" stroke="#999999" points="118,-19 68,-19 68,0 118,0 118,-19"/>
<text text-anchor="middle" x="93" y="-7" font-family="Helvetica,sans-Serif" font-size="10.00">cstdint</text>
</a>
</g>
</g>
<!-- Node1&#45;&gt;Node3 -->
<g id="edge2_Node000001_Node000003" class="edge">
<title>Node1&#45;&gt;Node3</title>
<g id="a_edge2_Node000001_Node000003"><a xlink:title=" ">
<path fill="none" stroke="#63b8ff" d="M118,-54.95C113.19,-46.39 107.58,-36.42 102.9,-28.1"/>
<polygon fill="#63b8ff" stroke="#63b8ff" points="105.88,-26.26 97.93,-19.26 99.78,-29.69 105.88,-26.26"/>
</a>
</g>
</g>
<!-- Node4 -->
<g id="Node000004" class="node">
<title>Node4</title>
<g id="a_Node000004"><a xlink:title=" ">
<polygon fill="#e0e0e0" stroke="#999999" points="194,-19 136,-19 136,0 194,0 194,-19"/>
<text text-anchor="middle" x="165" y="-7" font-family="Helvetica,sans-Serif" font-size="10.00">memory</text>
</a>
</g>
</g>
<!-- Node1&#45;&gt;Node4 -->
<g id="edge3_Node000001_Node000004" class="edge">
<title>Node1&#45;&gt;Node4</title>
<g id="a_edge3_Node000001_Node000004"><a xlink:title=" ">
<path fill="none" stroke="#63b8ff" d="M140,-54.95C144.81,-46.39 150.42,-36.42 155.1,-28.1"/>
<polygon fill="#63b8ff" stroke="#63b8ff" points="158.22,-29.69 160.07,-19.26 152.12,-26.26 158.22,-29.69"/>
</a>
</g>
</g>
<!-- Node5 -->
<g id="Node000005" class="node">
<title>Node5</title>
<g id="a_Node000005"><a xlink:title=" ">
<polygon fill="#e0e0e0" stroke="#999999" points="259.5,-19 212.5,-19 212.5,0 259.5,0 259.5,-19"/>
<text text-anchor="middle" x="236" y="-7" font-family="Helvetica,sans-Serif" font-size="10.00">vector</text>
</a>
</g>
</g>
<!-- Node1&#45;&gt;Node5 -->
<g id="edge4_Node000001_Node000005" class="edge">
<title>Node1&#45;&gt;Node5</title>
<g id="a_edge4_Node000001_Node000005"><a xlink:title=" ">
<path fill="none" stroke="#63b8ff" d="M161.68,-54.95C178.28,-45.03 198.03,-33.21 213,-24.25"/>
<polygon fill="#63b8ff" stroke="#63b8ff" points="214.85,-27.23 221.64,-19.09 211.26,-21.22 214.85,-27.23"/>
</a>
</g>
</g>
</g>
</svg>
