<?xml version="1.0" encoding="UTF-8" standalone="no"?>
<!DOCTYPE svg PUBLIC "-//W3C//DTD SVG 1.1//EN"
 "http://www.w3.org/Graphics/SVG/1.1/DTD/svg11.dtd">
<!-- Generated by graphviz version 2.43.0 (0)
 -->
<!-- Title: /home/runner/work/opendal/opendal/bindings/cpp/include/opendal.hpp Pages: 1 -->
<svg width="943pt" height="115pt"
 viewBox="0.00 0.00 943.00 115.00" xmlns="http://www.w3.org/2000/svg" xmlns:xlink="http://www.w3.org/1999/xlink">
<g id="graph0" class="graph" transform="scale(1 1) rotate(0) translate(4 111)">
<title>/home/runner/work/opendal/opendal/bindings/cpp/include/opendal.hpp</title>
<!-- Node1 -->
<g id="Node000001" class="node">
<title>Node1</title>
<g id="a_Node000001"><a xlink:title=" ">
<polygon fill="#999999" stroke="#666666" points="427.5,-107 266.5,-107 266.5,-66 427.5,-66 427.5,-107"/>
<text text-anchor="start" x="274.5" y="-95" font-family="Helvetica,sans-Serif" font-size="10.00">/home/runner/work/opendal</text>
<text text-anchor="start" x="274.5" y="-84" font-family="Helvetica,sans-Serif" font-size="10.00">/opendal/bindings/cpp/include</text>
<text text-anchor="middle" x="347" y="-73" font-family="Helvetica,sans-Serif" font-size="10.00">/opendal.hpp</text>
</a>
</g>
</g>
<!-- Node2 -->
<g id="Node000002" class="node">
<title>Node2</title>
<g id="a_Node000002"><a xlink:title=" ">
<polygon fill="#e0e0e0" stroke="#999999" points="58,-24.5 0,-24.5 0,-5.5 58,-5.5 58,-24.5"/>
<text text-anchor="middle" x="29" y="-12.5" font-family="Helvetica,sans-Serif" font-size="10.00">memory</text>
</a>
</g>
</g>
<!-- Node1&#45;&gt;Node2 -->
<g id="edge1_Node000001_Node000002" class="edge">
<title>Node1&#45;&gt;Node2</title>
<g id="a_edge1_Node000001_Node000002"><a xlink:title=" ">
<path fill="none" stroke="#63b8ff" d="M266.25,-72.96C209.88,-63.37 133.19,-48.63 67,-30 64.72,-29.36 62.37,-28.64 60.03,-27.88"/>
<polygon fill="#63b8ff" stroke="#63b8ff" points="61.1,-24.55 50.51,-24.59 58.82,-31.17 61.1,-24.55"/>
</a>
</g>
</g>
<!-- Node3 -->
<g id="Node000003" class="node">
<title>Node3</title>
<g id="a_Node000003"><a xlink:title=" ">
<polygon fill="#e0e0e0" stroke="#999999" points="132,-24.5 76,-24.5 76,-5.5 132,-5.5 132,-24.5"/>
<text text-anchor="middle" x="104" y="-12.5" font-family="Helvetica,sans-Serif" font-size="10.00">optional</text>
</a>
</g>
</g>
<!-- Node1&#45;&gt;Node3 -->
<g id="edge2_Node000001_Node000003" class="edge">
<title>Node1&#45;&gt;Node3</title>
<g id="a_edge2_Node000001_Node000003"><a xlink:title=" ">
<path fill="none" stroke="#63b8ff" d="M267.23,-65.96C228.81,-56.06 182.24,-43.32 141,-30 139.09,-29.38 137.13,-28.72 135.16,-28.04"/>
<polygon fill="#63b8ff" stroke="#63b8ff" points="135.99,-24.62 125.39,-24.5 133.61,-31.2 135.99,-24.62"/>
</a>
</g>
</g>
<!-- Node4 -->
<g id="Node000004" class="node">
<title>Node4</title>
<g id="a_Node000004"><a xlink:title=" ">
<polygon fill="#e0e0e0" stroke="#999999" points="194,-24.5 150,-24.5 150,-5.5 194,-5.5 194,-24.5"/>
<text text-anchor="middle" x="172" y="-12.5" font-family="Helvetica,sans-Serif" font-size="10.00">string</text>
</a>
</g>
</g>
<!-- Node1&#45;&gt;Node4 -->
<g id="edge3_Node000001_Node000004" class="edge">
<title>Node1&#45;&gt;Node4</title>
<g id="a_edge3_Node000001_Node000004"><a xlink:title=" ">
<path fill="none" stroke="#63b8ff" d="M294.05,-65.91C266.72,-55.59 232.91,-42.51 203,-30 201.99,-29.58 200.97,-29.14 199.94,-28.7"/>
<polygon fill="#63b8ff" stroke="#63b8ff" points="201.18,-25.43 190.61,-24.61 198.36,-31.84 201.18,-25.43"/>
</a>
</g>
</g>
<!-- Node5 -->
<g id="Node000005" class="node">
<title>Node5</title>
<g id="a_Node000005"><a xlink:title=" ">
<polygon fill="#e0e0e0" stroke="#999999" points="305.5,-24.5 212.5,-24.5 212.5,-5.5 305.5,-5.5 305.5,-24.5"/>
<text text-anchor="middle" x="259" y="-12.5" font-family="Helvetica,sans-Serif" font-size="10.00">unordered_map</text>
</a>
</g>
</g>
<!-- Node1&#45;&gt;Node5 -->
<g id="edge4_Node000001_Node000005" class="edge">
<title>Node1&#45;&gt;Node5</title>
<g id="a_edge4_Node000001_Node000005"><a xlink:title=" ">
<path fill="none" stroke="#63b8ff" d="M322.02,-65.77C308.15,-54.81 291.15,-41.39 278.31,-31.25"/>
<polygon fill="#63b8ff" stroke="#63b8ff" points="280.18,-28.27 270.17,-24.82 275.85,-33.76 280.18,-28.27"/>
</a>
</g>
</g>
<!-- Node6 -->
<g id="Node000006" class="node">
<title>Node6</title>
<g id="a_Node000006"><a xlink:title=" ">
<polygon fill="#e0e0e0" stroke="#999999" points="370.5,-24.5 323.5,-24.5 323.5,-5.5 370.5,-5.5 370.5,-24.5"/>
<text text-anchor="middle" x="347" y="-12.5" font-family="Helvetica,sans-Serif" font-size="10.00">vector</text>
</a>
</g>
</g>
<!-- Node1&#45;&gt;Node6 -->
<g id="edge5_Node000001_Node000006" class="edge">
<title>Node1&#45;&gt;Node6</title>
<g id="a_edge5_Node000001_Node000006"><a xlink:title=" ">
<path fill="none" stroke="#63b8ff" d="M347,-65.77C347,-56.08 347,-44.46 347,-34.88"/>
<polygon fill="#63b8ff" stroke="#63b8ff" points="350.5,-34.82 347,-24.82 343.5,-34.82 350.5,-34.82"/>
</a>
</g>
</g>
<!-- Node7 -->
<g id="Node000007" class="node">
<title>Node7</title>
<g id="a_Node000007"><a xlink:title=" ">
<polygon fill="#e0e0e0" stroke="#999999" points="513.5,-30 388.5,-30 388.5,0 513.5,0 513.5,-30"/>
<text text-anchor="start" x="396.5" y="-18" font-family="Helvetica,sans-Serif" font-size="10.00">boost/date_time/posix</text>
<text text-anchor="middle" x="451" y="-7" font-family="Helvetica,sans-Serif" font-size="10.00">_time/posix_time.hpp</text>
</a>
</g>
</g>
<!-- Node1&#45;&gt;Node7 -->
<g id="edge6_Node000001_Node000007" class="edge">
<title>Node1&#45;&gt;Node7</title>
<g id="a_edge6_Node000001_Node000007"><a xlink:title=" ">
<path fill="none" stroke="#63b8ff" d="M376.25,-65.96C390.38,-56.51 407.3,-45.2 421.47,-35.74"/>
<polygon fill="#63b8ff" stroke="#63b8ff" points="423.51,-38.58 429.88,-30.11 419.62,-32.76 423.51,-38.58"/>
</a>
</g>
</g>
<!-- Node8 -->
<g id="Node000008" class="node">
<title>Node8</title>
<g id="a_Node000008"><a xlink:title=" ">
<polygon fill="#e0e0e0" stroke="#999999" points="694.5,-24.5 531.5,-24.5 531.5,-5.5 694.5,-5.5 694.5,-24.5"/>
<text text-anchor="middle" x="613" y="-12.5" font-family="Helvetica,sans-Serif" font-size="10.00">boost/iostreams/concepts.hpp</text>
</a>
</g>
</g>
<!-- Node1&#45;&gt;Node8 -->
<g id="edge7_Node000001_Node000008" class="edge">
<title>Node1&#45;&gt;Node8</title>
<g id="a_edge7_Node000001_Node000008"><a xlink:title=" ">
<path fill="none" stroke="#63b8ff" d="M421.8,-65.96C469.97,-53.37 530.82,-37.47 570.77,-27.03"/>
<polygon fill="#63b8ff" stroke="#63b8ff" points="571.66,-30.42 580.45,-24.5 569.89,-23.65 571.66,-30.42"/>
</a>
</g>
</g>
<!-- Node9 -->
<g id="Node000009" class="node">
<title>Node9</title>
<g id="a_Node000009"><a xlink:title=" ">
<polygon fill="#e0e0e0" stroke="#999999" points="867,-24.5 713,-24.5 713,-5.5 867,-5.5 867,-24.5"/>
<text text-anchor="middle" x="790" y="-12.5" font-family="Helvetica,sans-Serif" font-size="10.00">boost/iostreams/stream.hpp</text>
</a>
</g>
</g>
<!-- Node1&#45;&gt;Node9 -->
<g id="edge8_Node000001_Node000009" class="edge">
<title>Node1&#45;&gt;Node9</title>
<g id="a_edge8_Node000001_Node000009"><a xlink:title=" ">
<path fill="none" stroke="#63b8ff" d="M427.84,-73.1C500.22,-61.96 609.23,-45.08 704,-30 711.67,-28.78 719.72,-27.49 727.69,-26.2"/>
<polygon fill="#63b8ff" stroke="#63b8ff" points="728.4,-29.63 737.71,-24.57 727.28,-22.72 728.4,-29.63"/>
</a>
</g>
</g>
<!-- Node10 -->
<g id="Node000010" class="node">
<title>Node10</title>
<g id="a_Node000010"><a xlink:title=" ">
<polygon fill="#e0e0e0" stroke="#999999" points="935,-24.5 885,-24.5 885,-5.5 935,-5.5 935,-24.5"/>
<text text-anchor="middle" x="910" y="-12.5" font-family="Helvetica,sans-Serif" font-size="10.00">lib.rs.h</text>
</a>
</g>
</g>
<!-- Node1&#45;&gt;Node10 -->
<g id="edge9_Node000001_Node000010" class="edge">
<title>Node1&#45;&gt;Node10</title>
<g id="a_edge9_Node000001_Node000010"><a xlink:title=" ">
<path fill="none" stroke="#63b8ff" d="M427.56,-84.17C532.36,-80.83 720.44,-69.32 876,-30 878.16,-29.45 880.37,-28.8 882.56,-28.07"/>
<polygon fill="#63b8ff" stroke="#63b8ff" points="883.84,-31.33 891.97,-24.54 881.38,-24.77 883.84,-31.33"/>
</a>
</g>
</g>
</g>
</svg>
