<?xml version="1.0" encoding="UTF-8" standalone="no"?>
<!DOCTYPE svg PUBLIC "-//W3C//DTD SVG 1.1//EN"
 "http://www.w3.org/Graphics/SVG/1.1/DTD/svg11.dtd">
<!-- Generated by graphviz version 2.43.0 (0)
 -->
<!-- Title: /home/runner/work/opendal/opendal/bindings/cpp/include/opendal.hpp Pages: 1 -->
<svg width="943pt" height="117pt"
 viewBox="0.00 0.00 943.00 117.00" xmlns="http://www.w3.org/2000/svg" xmlns:xlink="http://www.w3.org/1999/xlink">
<g id="graph0" class="graph" transform="scale(1 1) rotate(0) translate(4 113)">
<title>/home/runner/work/opendal/opendal/bindings/cpp/include/opendal.hpp</title>
<polygon fill="white" stroke="transparent" points="-4,4 -4,-113 939,-113 939,4 -4,4"/>
<!-- Node1 -->
<g id="node1" class="node">
<title>Node1</title>
<g id="a_node1"><a xlink:title=" ">
<polygon fill="#bfbfbf" stroke="black" points="266.5,-67.5 266.5,-108.5 427.5,-108.5 427.5,-67.5 266.5,-67.5"/>
<text text-anchor="start" x="274.5" y="-96.5" font-family="Helvetica,sans-Serif" font-size="10.00">/home/runner/work/opendal</text>
<text text-anchor="start" x="274.5" y="-85.5" font-family="Helvetica,sans-Serif" font-size="10.00">/opendal/bindings/cpp/include</text>
<text text-anchor="middle" x="347" y="-74.5" font-family="Helvetica,sans-Serif" font-size="10.00">/opendal.hpp</text>
</a>
</g>
</g>
<!-- Node2 -->
<g id="node2" class="node">
<title>Node2</title>
<g id="a_node2"><a xlink:title=" ">
<polygon fill="white" stroke="#bfbfbf" points="0,-6 0,-25 58,-25 58,-6 0,-6"/>
<text text-anchor="middle" x="29" y="-13" font-family="Helvetica,sans-Serif" font-size="10.00">memory</text>
</a>
</g>
</g>
<!-- Node1&#45;&gt;Node2 -->
<g id="edge1" class="edge">
<title>Node1&#45;&gt;Node2</title>
<path fill="none" stroke="midnightblue" d="M266.49,-74.57C210.06,-64.97 133.21,-50.11 67,-31 64.42,-30.25 61.76,-29.41 59.12,-28.51"/>
<polygon fill="midnightblue" stroke="midnightblue" points="60.29,-25.22 49.69,-25.11 57.91,-31.8 60.29,-25.22"/>
</g>
<!-- Node3 -->
<g id="node3" class="node">
<title>Node3</title>
<g id="a_node3"><a xlink:title=" ">
<polygon fill="white" stroke="#bfbfbf" points="76,-6 76,-25 132,-25 132,-6 76,-6"/>
<text text-anchor="middle" x="104" y="-13" font-family="Helvetica,sans-Serif" font-size="10.00">optional</text>
</a>
</g>
</g>
<!-- Node1&#45;&gt;Node3 -->
<g id="edge2" class="edge">
<title>Node1&#45;&gt;Node3</title>
<path fill="none" stroke="midnightblue" d="M267.17,-67.44C228.74,-57.49 182.17,-44.62 141,-31 138.73,-30.25 136.4,-29.44 134.07,-28.6"/>
<polygon fill="midnightblue" stroke="midnightblue" points="135.19,-25.28 124.6,-25.03 132.72,-31.83 135.19,-25.28"/>
</g>
<!-- Node4 -->
<g id="node4" class="node">
<title>Node4</title>
<g id="a_node4"><a xlink:title=" ">
<polygon fill="white" stroke="#bfbfbf" points="150,-6 150,-25 194,-25 194,-6 150,-6"/>
<text text-anchor="middle" x="172" y="-13" font-family="Helvetica,sans-Serif" font-size="10.00">string</text>
</a>
</g>
</g>
<!-- Node1&#45;&gt;Node4 -->
<g id="edge3" class="edge">
<title>Node1&#45;&gt;Node4</title>
<path fill="none" stroke="midnightblue" d="M294.33,-67.48C266.92,-57.08 232.96,-43.82 203,-31 201.8,-30.49 200.58,-29.96 199.35,-29.41"/>
<polygon fill="midnightblue" stroke="midnightblue" points="200.49,-26.09 189.94,-25.14 197.6,-32.46 200.49,-26.09"/>
</g>
<!-- Node5 -->
<g id="node5" class="node">
<title>Node5</title>
<g id="a_node5"><a xlink:title=" ">
<polygon fill="white" stroke="#bfbfbf" points="212.5,-6 212.5,-25 305.5,-25 305.5,-6 212.5,-6"/>
<text text-anchor="middle" x="259" y="-13" font-family="Helvetica,sans-Serif" font-size="10.00">unordered_map</text>
</a>
</g>
</g>
<!-- Node1&#45;&gt;Node5 -->
<g id="edge4" class="edge">
<title>Node1&#45;&gt;Node5</title>
<path fill="none" stroke="midnightblue" d="M322.49,-67.36C308.3,-56 290.73,-41.92 277.67,-31.46"/>
<polygon fill="midnightblue" stroke="midnightblue" points="279.82,-28.69 269.83,-25.17 275.44,-34.16 279.82,-28.69"/>
</g>
<!-- Node6 -->
<g id="node6" class="node">
<title>Node6</title>
<g id="a_node6"><a xlink:title=" ">
<polygon fill="white" stroke="#bfbfbf" points="323.5,-6 323.5,-25 370.5,-25 370.5,-6 323.5,-6"/>
<text text-anchor="middle" x="347" y="-13" font-family="Helvetica,sans-Serif" font-size="10.00">vector</text>
</a>
</g>
</g>
<!-- Node1&#45;&gt;Node6 -->
<g id="edge5" class="edge">
<title>Node1&#45;&gt;Node6</title>
<path fill="none" stroke="midnightblue" d="M347,-67.36C347,-57.3 347,-45.1 347,-35.18"/>
<polygon fill="midnightblue" stroke="midnightblue" points="350.5,-35.17 347,-25.17 343.5,-35.17 350.5,-35.17"/>
</g>
<!-- Node7 -->
<g id="node7" class="node">
<title>Node7</title>
<g id="a_node7"><a xlink:title=" ">
<polygon fill="white" stroke="#bfbfbf" points="388.5,-0.5 388.5,-30.5 513.5,-30.5 513.5,-0.5 388.5,-0.5"/>
<text text-anchor="start" x="396.5" y="-18.5" font-family="Helvetica,sans-Serif" font-size="10.00">boost/date_time/posix</text>
<text text-anchor="middle" x="451" y="-7.5" font-family="Helvetica,sans-Serif" font-size="10.00">_time/posix_time.hpp</text>
</a>
</g>
</g>
<!-- Node1&#45;&gt;Node7 -->
<g id="edge6" class="edge">
<title>Node1&#45;&gt;Node7</title>
<path fill="none" stroke="midnightblue" d="M375.97,-67.36C390.2,-57.71 407.33,-46.11 421.62,-36.42"/>
<polygon fill="midnightblue" stroke="midnightblue" points="423.78,-39.18 430.1,-30.67 419.86,-33.38 423.78,-39.18"/>
</g>
<!-- Node8 -->
<g id="node8" class="node">
<title>Node8</title>
<g id="a_node8"><a xlink:title=" ">
<polygon fill="white" stroke="#bfbfbf" points="531.5,-6 531.5,-25 694.5,-25 694.5,-6 531.5,-6"/>
<text text-anchor="middle" x="613" y="-13" font-family="Helvetica,sans-Serif" font-size="10.00">boost/iostreams/concepts.hpp</text>
</a>
</g>
</g>
<!-- Node1&#45;&gt;Node8 -->
<g id="edge7" class="edge">
<title>Node1&#45;&gt;Node8</title>
<path fill="none" stroke="midnightblue" d="M420.74,-67.46C469.22,-54.61 530.89,-38.26 571.13,-27.6"/>
<polygon fill="midnightblue" stroke="midnightblue" points="572.11,-30.96 580.88,-25.01 570.32,-24.19 572.11,-30.96"/>
</g>
<!-- Node9 -->
<g id="node9" class="node">
<title>Node9</title>
<g id="a_node9"><a xlink:title=" ">
<polygon fill="white" stroke="#bfbfbf" points="713,-6 713,-25 867,-25 867,-6 713,-6"/>
<text text-anchor="middle" x="790" y="-13" font-family="Helvetica,sans-Serif" font-size="10.00">boost/iostreams/stream.hpp</text>
</a>
</g>
</g>
<!-- Node1&#45;&gt;Node9 -->
<g id="edge8" class="edge">
<title>Node1&#45;&gt;Node9</title>
<path fill="none" stroke="midnightblue" d="M427.51,-74.64C499.89,-63.46 609.1,-46.44 704,-31 712.38,-29.64 721.21,-28.17 729.9,-26.72"/>
<polygon fill="midnightblue" stroke="midnightblue" points="730.71,-30.14 739.99,-25.03 729.55,-23.23 730.71,-30.14"/>
</g>
<!-- Node10 -->
<g id="node10" class="node">
<title>Node10</title>
<g id="a_node10"><a xlink:title=" ">
<polygon fill="white" stroke="#bfbfbf" points="885,-6 885,-25 935,-25 935,-6 885,-6"/>
<text text-anchor="middle" x="910" y="-13" font-family="Helvetica,sans-Serif" font-size="10.00">lib.rs.h</text>
</a>
</g>
</g>
<!-- Node1&#45;&gt;Node10 -->
<g id="edge9" class="edge">
<title>Node1&#45;&gt;Node10</title>
<path fill="none" stroke="midnightblue" d="M427.64,-85.87C532.52,-82.73 720.7,-71.37 876,-31 878.36,-30.39 880.76,-29.64 883.15,-28.8"/>
<polygon fill="midnightblue" stroke="midnightblue" points="884.68,-31.97 892.7,-25.05 882.12,-25.45 884.68,-31.97"/>
</g>
</g>
</svg>
