<?xml version="1.0" encoding="UTF-8" standalone="no"?>
<!DOCTYPE svg PUBLIC "-//W3C//DTD SVG 1.1//EN"
 "http://www.w3.org/Graphics/SVG/1.1/DTD/svg11.dtd">
<!-- Generated by graphviz version 2.43.0 (0)
 -->
<!-- Title: /home/runner/work/opendal/opendal/bindings/cpp/include/opendal.hpp Pages: 1 -->
<svg width="867pt" height="115pt"
 viewBox="0.00 0.00 867.00 115.00" xmlns="http://www.w3.org/2000/svg" xmlns:xlink="http://www.w3.org/1999/xlink">
<g id="graph0" class="graph" transform="scale(1 1) rotate(0) translate(4 111)">
<title>/home/runner/work/opendal/opendal/bindings/cpp/include/opendal.hpp</title>
<!-- Node1 -->
<g id="Node000001" class="node">
<title>Node1</title>
<g id="a_Node000001"><a xlink:title=" ">
<polygon fill="#999999" stroke="#666666" points="375.5,-107 214.5,-107 214.5,-66 375.5,-66 375.5,-107"/>
<text text-anchor="start" x="222.5" y="-95" font-family="Helvetica,sans-Serif" font-size="10.00">/home/runner/work/opendal</text>
<text text-anchor="start" x="222.5" y="-84" font-family="Helvetica,sans-Serif" font-size="10.00">/opendal/bindings/cpp/include</text>
<text text-anchor="middle" x="295" y="-73" font-family="Helvetica,sans-Serif" font-size="10.00">/opendal.hpp</text>
</a>
</g>
</g>
<!-- Node2 -->
<g id="Node000002" class="node">
<title>Node2</title>
<g id="a_Node000002"><a xlink:title=" ">
<polygon fill="#e0e0e0" stroke="#999999" points="50,-24.5 0,-24.5 0,-5.5 50,-5.5 50,-24.5"/>
<text text-anchor="middle" x="25" y="-12.5" font-family="Helvetica,sans-Serif" font-size="10.00">cstdint</text>
</a>
</g>
</g>
<!-- Node1&#45;&gt;Node2 -->
<g id="edge1_Node000001_Node000002" class="edge">
<title>Node1&#45;&gt;Node2</title>
<g id="a_edge1_Node000001_Node000002"><a xlink:title=" ">
<path fill="none" stroke="#63b8ff" d="M214.39,-69.88C168.37,-60.13 109.89,-46.35 59,-30 57.33,-29.46 55.62,-28.88 53.91,-28.27"/>
<polygon fill="#63b8ff" stroke="#63b8ff" points="54.81,-24.86 44.22,-24.54 52.3,-31.4 54.81,-24.86"/>
</a>
</g>
</g>
<!-- Node3 -->
<g id="Node000003" class="node">
<title>Node3</title>
<g id="a_Node000003"><a xlink:title=" ">
<polygon fill="#e0e0e0" stroke="#999999" points="124,-24.5 68,-24.5 68,-5.5 124,-5.5 124,-24.5"/>
<text text-anchor="middle" x="96" y="-12.5" font-family="Helvetica,sans-Serif" font-size="10.00">optional</text>
</a>
</g>
</g>
<!-- Node1&#45;&gt;Node3 -->
<g id="edge2_Node000001_Node000003" class="edge">
<title>Node1&#45;&gt;Node3</title>
<g id="a_edge2_Node000001_Node000003"><a xlink:title=" ">
<path fill="none" stroke="#63b8ff" d="M236.36,-65.91C205.51,-55.48 167.12,-42.3 133,-30 131.36,-29.41 129.67,-28.79 127.98,-28.17"/>
<polygon fill="#63b8ff" stroke="#63b8ff" points="128.86,-24.76 118.26,-24.55 126.41,-31.32 128.86,-24.76"/>
</a>
</g>
</g>
<!-- Node4 -->
<g id="Node000004" class="node">
<title>Node4</title>
<g id="a_Node000004"><a xlink:title=" ">
<polygon fill="#e0e0e0" stroke="#999999" points="186,-24.5 142,-24.5 142,-5.5 186,-5.5 186,-24.5"/>
<text text-anchor="middle" x="164" y="-12.5" font-family="Helvetica,sans-Serif" font-size="10.00">string</text>
</a>
</g>
</g>
<!-- Node1&#45;&gt;Node4 -->
<g id="edge3_Node000001_Node000004" class="edge">
<title>Node1&#45;&gt;Node4</title>
<g id="a_edge3_Node000001_Node000004"><a xlink:title=" ">
<path fill="none" stroke="#63b8ff" d="M258.16,-65.96C236.05,-54.22 208.51,-39.61 188.94,-29.23"/>
<polygon fill="#63b8ff" stroke="#63b8ff" points="190.5,-26.1 180.03,-24.5 187.22,-32.28 190.5,-26.1"/>
</a>
</g>
</g>
<!-- Node5 -->
<g id="Node000005" class="node">
<title>Node5</title>
<g id="a_Node000005"><a xlink:title=" ">
<polygon fill="#e0e0e0" stroke="#999999" points="297.5,-24.5 204.5,-24.5 204.5,-5.5 297.5,-5.5 297.5,-24.5"/>
<text text-anchor="middle" x="251" y="-12.5" font-family="Helvetica,sans-Serif" font-size="10.00">unordered_map</text>
</a>
</g>
</g>
<!-- Node1&#45;&gt;Node5 -->
<g id="edge4_Node000001_Node000005" class="edge">
<title>Node1&#45;&gt;Node5</title>
<g id="a_edge4_Node000001_Node000005"><a xlink:title=" ">
<path fill="none" stroke="#63b8ff" d="M282.51,-65.77C276.04,-55.55 268.21,-43.19 261.98,-33.34"/>
<polygon fill="#63b8ff" stroke="#63b8ff" points="264.89,-31.4 256.58,-24.82 258.98,-35.14 264.89,-31.4"/>
</a>
</g>
</g>
<!-- Node6 -->
<g id="Node000006" class="node">
<title>Node6</title>
<g id="a_Node000006"><a xlink:title=" ">
<polygon fill="#e0e0e0" stroke="#999999" points="362.5,-24.5 315.5,-24.5 315.5,-5.5 362.5,-5.5 362.5,-24.5"/>
<text text-anchor="middle" x="339" y="-12.5" font-family="Helvetica,sans-Serif" font-size="10.00">vector</text>
</a>
</g>
</g>
<!-- Node1&#45;&gt;Node6 -->
<g id="edge5_Node000001_Node000006" class="edge">
<title>Node1&#45;&gt;Node6</title>
<g id="a_edge5_Node000001_Node000006"><a xlink:title=" ">
<path fill="none" stroke="#63b8ff" d="M307.49,-65.77C313.96,-55.55 321.79,-43.19 328.02,-33.34"/>
<polygon fill="#63b8ff" stroke="#63b8ff" points="331.02,-35.14 333.42,-24.82 325.11,-31.4 331.02,-35.14"/>
</a>
</g>
</g>
<!-- Node7 -->
<g id="Node000007" class="node">
<title>Node7</title>
<g id="a_Node000007"><a xlink:title=" ">
<polygon fill="#e0e0e0" stroke="#999999" points="505.5,-30 380.5,-30 380.5,0 505.5,0 505.5,-30"/>
<text text-anchor="start" x="388.5" y="-18" font-family="Helvetica,sans-Serif" font-size="10.00">boost/date_time/posix</text>
<text text-anchor="middle" x="443" y="-7" font-family="Helvetica,sans-Serif" font-size="10.00">_time/ptime.hpp</text>
</a>
</g>
</g>
<!-- Node1&#45;&gt;Node7 -->
<g id="edge6_Node000001_Node000007" class="edge">
<title>Node1&#45;&gt;Node7</title>
<g id="a_edge6_Node000001_Node000007"><a xlink:title=" ">
<path fill="none" stroke="#63b8ff" d="M336.62,-65.96C357.68,-56.07 383.09,-44.13 403.8,-34.41"/>
<polygon fill="#63b8ff" stroke="#63b8ff" points="405.38,-37.53 412.95,-30.11 402.41,-31.2 405.38,-37.53"/>
</a>
</g>
</g>
<!-- Node8 -->
<g id="Node000008" class="node">
<title>Node8</title>
<g id="a_Node000008"><a xlink:title=" ">
<polygon fill="#e0e0e0" stroke="#999999" points="686.5,-24.5 523.5,-24.5 523.5,-5.5 686.5,-5.5 686.5,-24.5"/>
<text text-anchor="middle" x="605" y="-12.5" font-family="Helvetica,sans-Serif" font-size="10.00">boost/iostreams/concepts.hpp</text>
</a>
</g>
</g>
<!-- Node1&#45;&gt;Node8 -->
<g id="edge7_Node000001_Node000008" class="edge">
<title>Node1&#45;&gt;Node8</title>
<g id="a_edge7_Node000001_Node000008"><a xlink:title=" ">
<path fill="none" stroke="#63b8ff" d="M375.64,-67.42C433.25,-54.5 508.83,-37.56 557.17,-26.72"/>
<polygon fill="#63b8ff" stroke="#63b8ff" points="558.06,-30.11 567.06,-24.51 556.53,-23.28 558.06,-30.11"/>
</a>
</g>
</g>
<!-- Node9 -->
<g id="Node000009" class="node">
<title>Node9</title>
<g id="a_Node000009"><a xlink:title=" ">
<polygon fill="#e0e0e0" stroke="#999999" points="859,-24.5 705,-24.5 705,-5.5 859,-5.5 859,-24.5"/>
<text text-anchor="middle" x="782" y="-12.5" font-family="Helvetica,sans-Serif" font-size="10.00">boost/iostreams/stream.hpp</text>
</a>
</g>
</g>
<!-- Node1&#45;&gt;Node9 -->
<g id="edge8_Node000001_Node000009" class="edge">
<title>Node1&#45;&gt;Node9</title>
<g id="a_edge8_Node000001_Node000009"><a xlink:title=" ">
<path fill="none" stroke="#63b8ff" d="M375.73,-74.9C456.77,-64.13 585.15,-46.69 696,-30 703.98,-28.8 712.36,-27.49 720.64,-26.17"/>
<polygon fill="#63b8ff" stroke="#63b8ff" points="721.33,-29.61 730.64,-24.57 720.22,-22.7 721.33,-29.61"/>
</a>
</g>
</g>
</g>
</svg>
