<?xml version="1.0" encoding="UTF-8" standalone="no"?>
<!DOCTYPE svg PUBLIC "-//W3C//DTD SVG 1.1//EN"
 "http://www.w3.org/Graphics/SVG/1.1/DTD/svg11.dtd">
<!-- Generated by graphviz version 2.43.0 (0)
 -->
<!-- Title: /home/runner/work/opendal/opendal/bindings/cpp/include/opendal.hpp Pages: 1 -->
<svg width="606pt" height="159pt"
 viewBox="0.00 0.00 605.50 159.00" xmlns="http://www.w3.org/2000/svg" xmlns:xlink="http://www.w3.org/1999/xlink">
<g id="graph0" class="graph" transform="scale(1 1) rotate(0) translate(4 155)">
<title>/home/runner/work/opendal/opendal/bindings/cpp/include/opendal.hpp</title>
<!-- Node1 -->
<g id="Node000001" class="node">
<title>Node1</title>
<g id="a_Node000001"><a xlink:title=" ">
<polygon fill="#999999" stroke="#666666" points="333.5,-151 172.5,-151 172.5,-110 333.5,-110 333.5,-151"/>
<text text-anchor="start" x="180.5" y="-139" font-family="Helvetica,sans-Serif" font-size="10.00">/home/runner/work/opendal</text>
<text text-anchor="start" x="180.5" y="-128" font-family="Helvetica,sans-Serif" font-size="10.00">/opendal/bindings/cpp/include</text>
<text text-anchor="middle" x="253" y="-117" font-family="Helvetica,sans-Serif" font-size="10.00">/opendal.hpp</text>
</a>
</g>
</g>
<!-- Node2 -->
<g id="Node000002" class="node">
<title>Node2</title>
<g id="a_Node000002"><a xlink:title=" ">
<polygon fill="#e0e0e0" stroke="#999999" points="50,-74 0,-74 0,-55 50,-55 50,-74"/>
<text text-anchor="middle" x="25" y="-62" font-family="Helvetica,sans-Serif" font-size="10.00">cstring</text>
</a>
</g>
</g>
<!-- Node1&#45;&gt;Node2 -->
<g id="edge1_Node000001_Node000002" class="edge">
<title>Node1&#45;&gt;Node2</title>
<g id="a_edge1_Node000001_Node000002"><a xlink:title=" ">
<path fill="none" stroke="#63b8ff" d="M183.35,-109.95C142.59,-98.51 92.85,-84.55 60.13,-75.36"/>
<polygon fill="#63b8ff" stroke="#63b8ff" points="60.7,-71.89 50.13,-72.55 58.81,-78.63 60.7,-71.89"/>
</a>
</g>
</g>
<!-- Node3 -->
<g id="Node000003" class="node">
<title>Node3</title>
<g id="a_Node000003"><a xlink:title=" ">
<polygon fill="#e0e0e0" stroke="#999999" points="128,-74 68,-74 68,-55 128,-55 128,-74"/>
<text text-anchor="middle" x="98" y="-62" font-family="Helvetica,sans-Serif" font-size="10.00">iostream</text>
</a>
</g>
</g>
<!-- Node1&#45;&gt;Node3 -->
<g id="edge2_Node000001_Node000003" class="edge">
<title>Node1&#45;&gt;Node3</title>
<g id="a_edge2_Node000001_Node000003"><a xlink:title=" ">
<path fill="none" stroke="#63b8ff" d="M205.65,-109.95C180.48,-99.56 150.29,-87.09 128.29,-78.01"/>
<polygon fill="#63b8ff" stroke="#63b8ff" points="129.39,-74.67 118.81,-74.09 126.72,-81.14 129.39,-74.67"/>
</a>
</g>
</g>
<!-- Node4 -->
<g id="Node000004" class="node">
<title>Node4</title>
<g id="a_Node000004"><a xlink:title=" ">
<polygon fill="#e0e0e0" stroke="#999999" points="169,-19 111,-19 111,0 169,0 169,-19"/>
<text text-anchor="middle" x="140" y="-7" font-family="Helvetica,sans-Serif" font-size="10.00">memory</text>
</a>
</g>
</g>
<!-- Node1&#45;&gt;Node4 -->
<g id="edge3_Node000001_Node000004" class="edge">
<title>Node1&#45;&gt;Node4</title>
<g id="a_edge3_Node000001_Node000004"><a xlink:title=" ">
<path fill="none" stroke="#63b8ff" d="M234.34,-109.85C212.22,-86.55 175.77,-48.17 155.26,-26.57"/>
<polygon fill="#63b8ff" stroke="#63b8ff" points="157.66,-24.02 148.24,-19.18 152.59,-28.84 157.66,-24.02"/>
</a>
</g>
</g>
<!-- Node5 -->
<g id="Node000005" class="node">
<title>Node5</title>
<g id="a_Node000005"><a xlink:title=" ">
<polygon fill="#e0e0e0" stroke="#999999" points="445,-19 389,-19 389,0 445,0 445,-19"/>
<text text-anchor="middle" x="417" y="-7" font-family="Helvetica,sans-Serif" font-size="10.00">optional</text>
</a>
</g>
</g>
<!-- Node1&#45;&gt;Node5 -->
<g id="edge4_Node000001_Node000005" class="edge">
<title>Node1&#45;&gt;Node5</title>
<g id="a_edge4_Node000001_Node000005"><a xlink:title=" ">
<path fill="none" stroke="#63b8ff" d="M333.9,-122.5C365.77,-115.31 399.38,-101.25 419,-74 428.26,-61.15 426.5,-42.73 423.17,-29.04"/>
<polygon fill="#63b8ff" stroke="#63b8ff" points="426.48,-27.9 420.35,-19.27 419.76,-29.85 426.48,-27.9"/>
</a>
</g>
</g>
<!-- Node6 -->
<g id="Node000006" class="node">
<title>Node6</title>
<g id="a_Node000006"><a xlink:title=" ">
<polygon fill="#e0e0e0" stroke="#999999" points="507,-19 463,-19 463,0 507,0 507,-19"/>
<text text-anchor="middle" x="485" y="-7" font-family="Helvetica,sans-Serif" font-size="10.00">string</text>
</a>
</g>
</g>
<!-- Node1&#45;&gt;Node6 -->
<g id="edge5_Node000001_Node000006" class="edge">
<title>Node1&#45;&gt;Node6</title>
<g id="a_edge5_Node000001_Node000006"><a xlink:title=" ">
<path fill="none" stroke="#63b8ff" d="M333.89,-116.29C367.58,-108.03 405.81,-94.84 436,-74 453.13,-62.18 466.97,-42.51 475.51,-28.19"/>
<polygon fill="#63b8ff" stroke="#63b8ff" points="478.67,-29.72 480.56,-19.29 472.58,-26.26 478.67,-29.72"/>
</a>
</g>
</g>
<!-- Node7 -->
<g id="Node000007" class="node">
<title>Node7</title>
<g id="a_Node000007"><a xlink:title=" ">
<polygon fill="#e0e0e0" stroke="#999999" points="597.5,-74 504.5,-74 504.5,-55 597.5,-55 597.5,-74"/>
<text text-anchor="middle" x="551" y="-62" font-family="Helvetica,sans-Serif" font-size="10.00">unordered_map</text>
</a>
</g>
</g>
<!-- Node1&#45;&gt;Node7 -->
<g id="edge6_Node000001_Node000007" class="edge">
<title>Node1&#45;&gt;Node7</title>
<g id="a_edge6_Node000001_Node000007"><a xlink:title=" ">
<path fill="none" stroke="#63b8ff" d="M333.64,-112.18C387.17,-100.69 455.72,-85.96 501.38,-76.16"/>
<polygon fill="#63b8ff" stroke="#63b8ff" points="502.29,-79.54 511.33,-74.02 500.82,-72.7 502.29,-79.54"/>
</a>
</g>
</g>
<!-- Node8 -->
<g id="Node000008" class="node">
<title>Node8</title>
<g id="a_Node000008"><a xlink:title=" ">
<polygon fill="#e0e0e0" stroke="#999999" points="234.5,-19 187.5,-19 187.5,0 234.5,0 234.5,-19"/>
<text text-anchor="middle" x="211" y="-7" font-family="Helvetica,sans-Serif" font-size="10.00">vector</text>
</a>
</g>
</g>
<!-- Node1&#45;&gt;Node8 -->
<g id="edge7_Node000001_Node000008" class="edge">
<title>Node1&#45;&gt;Node8</title>
<g id="a_edge7_Node000001_Node000008"><a xlink:title=" ">
<path fill="none" stroke="#63b8ff" d="M234.39,-109.82C226.22,-99.88 217.48,-87.16 213,-74 208.11,-59.62 207.9,-42.35 208.75,-29.44"/>
<polygon fill="#63b8ff" stroke="#63b8ff" points="212.24,-29.7 209.68,-19.42 205.27,-29.05 212.24,-29.7"/>
</a>
</g>
</g>
<!-- Node9 -->
<g id="Node000009" class="node">
<title>Node9</title>
<g id="a_Node000009"><a xlink:href="data__structure_8hpp.html" target="_top" xlink:title=" ">
<polygon fill="white" stroke="#666666" points="410,-74 302,-74 302,-55 410,-55 410,-74"/>
<text text-anchor="middle" x="356" y="-62" font-family="Helvetica,sans-Serif" font-size="10.00">data_structure.hpp</text>
</a>
</g>
</g>
<!-- Node1&#45;&gt;Node9 -->
<g id="edge8_Node000001_Node000009" class="edge">
<title>Node1&#45;&gt;Node9</title>
<g id="a_edge8_Node000001_Node000009"><a xlink:title=" ">
<path fill="none" stroke="#63b8ff" d="M284.46,-109.95C300.28,-100.12 319.09,-88.43 333.45,-79.51"/>
<polygon fill="#63b8ff" stroke="#63b8ff" points="335.53,-82.34 342.17,-74.09 331.83,-76.4 335.53,-82.34"/>
</a>
</g>
</g>
<!-- Node12 -->
<g id="Node000012" class="node">
<title>Node12</title>
<g id="a_Node000012"><a xlink:href="layer_8hpp.html" target="_top" xlink:title=" ">
<polygon fill="white" stroke="#666666" points="284,-74 222,-74 222,-55 284,-55 284,-74"/>
<text text-anchor="middle" x="253" y="-62" font-family="Helvetica,sans-Serif" font-size="10.00">layer.hpp</text>
</a>
</g>
</g>
<!-- Node1&#45;&gt;Node12 -->
<g id="edge13_Node000001_Node000012" class="edge">
<title>Node1&#45;&gt;Node12</title>
<g id="a_edge13_Node000001_Node000012"><a xlink:title=" ">
<path fill="none" stroke="#63b8ff" d="M253,-109.95C253,-101.85 253,-92.5 253,-84.47"/>
<polygon fill="#63b8ff" stroke="#63b8ff" points="256.5,-84.26 253,-74.26 249.5,-84.26 256.5,-84.26"/>
</a>
</g>
</g>
<!-- Node9&#45;&gt;Node5 -->
<g id="edge11_Node000009_Node000005" class="edge">
<title>Node9&#45;&gt;Node5</title>
<g id="a_edge11_Node000009_Node000005"><a xlink:title=" ">
<path fill="none" stroke="#63b8ff" d="M365.8,-54.98C374.82,-47.15 388.41,-35.34 399.32,-25.86"/>
<polygon fill="#63b8ff" stroke="#63b8ff" points="401.77,-28.37 407.02,-19.17 397.18,-23.09 401.77,-28.37"/>
</a>
</g>
</g>
<!-- Node9&#45;&gt;Node6 -->
<g id="edge12_Node000009_Node000006" class="edge">
<title>Node9&#45;&gt;Node6</title>
<g id="a_edge12_Node000009_Node000006"><a xlink:title=" ">
<path fill="none" stroke="#63b8ff" d="M376.73,-54.98C397.76,-46.34 430.55,-32.87 454.54,-23.02"/>
<polygon fill="#63b8ff" stroke="#63b8ff" points="455.98,-26.21 463.9,-19.17 453.32,-19.73 455.98,-26.21"/>
</a>
</g>
</g>
<!-- Node10 -->
<g id="Node000010" class="node">
<title>Node10</title>
<g id="a_Node000010"><a xlink:title=" ">
<polygon fill="#e0e0e0" stroke="#999999" points="303,-19 253,-19 253,0 303,0 303,-19"/>
<text text-anchor="middle" x="278" y="-7" font-family="Helvetica,sans-Serif" font-size="10.00">chrono</text>
</a>
</g>
</g>
<!-- Node9&#45;&gt;Node10 -->
<g id="edge9_Node000009_Node000010" class="edge">
<title>Node9&#45;&gt;Node10</title>
<g id="a_edge9_Node000009_Node000010"><a xlink:title=" ">
<path fill="none" stroke="#63b8ff" d="M343.47,-54.98C331.6,-46.92 313.54,-34.65 299.39,-25.03"/>
<polygon fill="#63b8ff" stroke="#63b8ff" points="301,-21.9 290.76,-19.17 297.06,-27.69 301,-21.9"/>
</a>
</g>
</g>
<!-- Node11 -->
<g id="Node000011" class="node">
<title>Node11</title>
<g id="a_Node000011"><a xlink:title=" ">
<polygon fill="#e0e0e0" stroke="#999999" points="371,-19 321,-19 321,0 371,0 371,-19"/>
<text text-anchor="middle" x="346" y="-7" font-family="Helvetica,sans-Serif" font-size="10.00">cstdint</text>
</a>
</g>
</g>
<!-- Node9&#45;&gt;Node11 -->
<g id="edge10_Node000009_Node000011" class="edge">
<title>Node9&#45;&gt;Node11</title>
<g id="a_edge10_Node000009_Node000011"><a xlink:title=" ">
<path fill="none" stroke="#63b8ff" d="M354.35,-54.75C353.04,-47.8 351.16,-37.85 349.52,-29.13"/>
<polygon fill="#63b8ff" stroke="#63b8ff" points="352.91,-28.27 347.62,-19.09 346.04,-29.56 352.91,-28.27"/>
</a>
</g>
</g>
<!-- Node12&#45;&gt;Node4 -->
<g id="edge16_Node000012_Node000004" class="edge">
<title>Node12&#45;&gt;Node4</title>
<g id="a_edge16_Node000012_Node000004"><a xlink:title=" ">
<path fill="none" stroke="#63b8ff" d="M234.84,-54.98C216.75,-46.5 188.72,-33.35 167.81,-23.54"/>
<polygon fill="#63b8ff" stroke="#63b8ff" points="169.03,-20.25 158.49,-19.17 166.05,-26.59 169.03,-20.25"/>
</a>
</g>
</g>
<!-- Node12&#45;&gt;Node8 -->
<g id="edge17_Node000012_Node000008" class="edge">
<title>Node12&#45;&gt;Node8</title>
<g id="a_edge17_Node000012_Node000008"><a xlink:title=" ">
<path fill="none" stroke="#63b8ff" d="M246.06,-54.75C240.13,-47.26 231.43,-36.28 224.18,-27.13"/>
<polygon fill="#63b8ff" stroke="#63b8ff" points="226.76,-24.75 217.81,-19.09 221.27,-29.1 226.76,-24.75"/>
</a>
</g>
</g>
<!-- Node12&#45;&gt;Node10 -->
<g id="edge14_Node000012_Node000010" class="edge">
<title>Node12&#45;&gt;Node10</title>
<g id="a_edge14_Node000012_Node000010"><a xlink:title=" ">
<path fill="none" stroke="#63b8ff" d="M257.13,-54.75C260.51,-47.57 265.42,-37.18 269.62,-28.27"/>
<polygon fill="#63b8ff" stroke="#63b8ff" points="272.85,-29.63 273.95,-19.09 266.52,-26.64 272.85,-29.63"/>
</a>
</g>
</g>
<!-- Node12&#45;&gt;Node11 -->
<g id="edge15_Node000012_Node000011" class="edge">
<title>Node12&#45;&gt;Node11</title>
<g id="a_edge15_Node000012_Node000011"><a xlink:title=" ">
<path fill="none" stroke="#63b8ff" d="M267.94,-54.98C282.5,-46.69 304.87,-33.94 321.93,-24.22"/>
<polygon fill="#63b8ff" stroke="#63b8ff" points="323.83,-27.16 330.79,-19.17 320.36,-21.08 323.83,-27.16"/>
</a>
</g>
</g>
</g>
</svg>
