<?xml version="1.0" encoding="UTF-8" standalone="no"?>
<!DOCTYPE svg PUBLIC "-//W3C//DTD SVG 1.1//EN"
 "http://www.w3.org/Graphics/SVG/1.1/DTD/svg11.dtd">
<!-- Generated by graphviz version 2.43.0 (0)
 -->
<!-- Title: /home/runner/work/opendal/opendal/bindings/cpp/include/opendal.hpp Pages: 1 -->
<svg width="749pt" height="170pt"
 viewBox="0.00 0.00 749.00 170.00" xmlns="http://www.w3.org/2000/svg" xmlns:xlink="http://www.w3.org/1999/xlink">
<g id="graph0" class="graph" transform="scale(1 1) rotate(0) translate(4 166)">
<title>/home/runner/work/opendal/opendal/bindings/cpp/include/opendal.hpp</title>
<!-- Node1 -->
<g id="Node000001" class="node">
<title>Node1</title>
<g id="a_Node000001"><a xlink:title=" ">
<polygon fill="#999999" stroke="#666666" points="356.5,-162 195.5,-162 195.5,-121 356.5,-121 356.5,-162"/>
<text text-anchor="start" x="203.5" y="-150" font-family="Helvetica,sans-Serif" font-size="10.00">/home/runner/work/opendal</text>
<text text-anchor="start" x="203.5" y="-139" font-family="Helvetica,sans-Serif" font-size="10.00">/opendal/bindings/cpp/include</text>
<text text-anchor="middle" x="276" y="-128" font-family="Helvetica,sans-Serif" font-size="10.00">/opendal.hpp</text>
</a>
</g>
</g>
<!-- Node2 -->
<g id="Node000002" class="node">
<title>Node2</title>
<g id="a_Node000002"><a xlink:title=" ">
<polygon fill="#e0e0e0" stroke="#999999" points="56,-24.5 0,-24.5 0,-5.5 56,-5.5 56,-24.5"/>
<text text-anchor="middle" x="28" y="-12.5" font-family="Helvetica,sans-Serif" font-size="10.00">optional</text>
</a>
</g>
</g>
<!-- Node1&#45;&gt;Node2 -->
<g id="edge1_Node000001_Node000002" class="edge">
<title>Node1&#45;&gt;Node2</title>
<g id="a_edge1_Node000001_Node000002"><a xlink:title=" ">
<path fill="none" stroke="#63b8ff" d="M195.19,-128.81C158.67,-120.73 116.34,-107.27 83,-85 63.17,-71.75 47.12,-49.1 37.58,-33.38"/>
<polygon fill="#63b8ff" stroke="#63b8ff" points="40.55,-31.53 32.51,-24.63 34.5,-35.04 40.55,-31.53"/>
</a>
</g>
</g>
<!-- Node3 -->
<g id="Node000003" class="node">
<title>Node3</title>
<g id="a_Node000003"><a xlink:title=" ">
<polygon fill="#e0e0e0" stroke="#999999" points="118,-24.5 74,-24.5 74,-5.5 118,-5.5 118,-24.5"/>
<text text-anchor="middle" x="96" y="-12.5" font-family="Helvetica,sans-Serif" font-size="10.00">string</text>
</a>
</g>
</g>
<!-- Node1&#45;&gt;Node3 -->
<g id="edge2_Node000001_Node000003" class="edge">
<title>Node1&#45;&gt;Node3</title>
<g id="a_edge2_Node000001_Node000003"><a xlink:title=" ">
<path fill="none" stroke="#63b8ff" d="M195.05,-136.89C158.02,-130.69 117.3,-116.46 94,-85 83.33,-70.59 85.82,-49.44 89.73,-34.36"/>
<polygon fill="#63b8ff" stroke="#63b8ff" points="93.12,-35.22 92.66,-24.64 86.42,-33.2 93.12,-35.22"/>
</a>
</g>
</g>
<!-- Node4 -->
<g id="Node000004" class="node">
<title>Node4</title>
<g id="a_Node000004"><a xlink:title=" ">
<polygon fill="#e0e0e0" stroke="#999999" points="322.5,-85 229.5,-85 229.5,-66 322.5,-66 322.5,-85"/>
<text text-anchor="middle" x="276" y="-73" font-family="Helvetica,sans-Serif" font-size="10.00">unordered_map</text>
</a>
</g>
</g>
<!-- Node1&#45;&gt;Node4 -->
<g id="edge3_Node000001_Node000004" class="edge">
<title>Node1&#45;&gt;Node4</title>
<g id="a_edge3_Node000001_Node000004"><a xlink:title=" ">
<path fill="none" stroke="#63b8ff" d="M276,-120.95C276,-112.85 276,-103.5 276,-95.47"/>
<polygon fill="#63b8ff" stroke="#63b8ff" points="279.5,-95.26 276,-85.26 272.5,-95.26 279.5,-95.26"/>
</a>
</g>
</g>
<!-- Node5 -->
<g id="Node000005" class="node">
<title>Node5</title>
<g id="a_Node000005"><a xlink:title=" ">
<polygon fill="#e0e0e0" stroke="#999999" points="387.5,-85 340.5,-85 340.5,-66 387.5,-66 387.5,-85"/>
<text text-anchor="middle" x="364" y="-73" font-family="Helvetica,sans-Serif" font-size="10.00">vector</text>
</a>
</g>
</g>
<!-- Node1&#45;&gt;Node5 -->
<g id="edge4_Node000001_Node000005" class="edge">
<title>Node1&#45;&gt;Node5</title>
<g id="a_edge4_Node000001_Node000005"><a xlink:title=" ">
<path fill="none" stroke="#63b8ff" d="M302.88,-120.95C316.06,-111.37 331.66,-100.02 343.81,-91.19"/>
<polygon fill="#63b8ff" stroke="#63b8ff" points="345.93,-93.97 351.95,-85.26 341.81,-88.31 345.93,-93.97"/>
</a>
</g>
</g>
<!-- Node6 -->
<g id="Node000006" class="node">
<title>Node6</title>
<g id="a_Node000006"><a xlink:title=" ">
<polygon fill="#e0e0e0" stroke="#999999" points="568.5,-85 405.5,-85 405.5,-66 568.5,-66 568.5,-85"/>
<text text-anchor="middle" x="487" y="-73" font-family="Helvetica,sans-Serif" font-size="10.00">boost/iostreams/concepts.hpp</text>
</a>
</g>
</g>
<!-- Node1&#45;&gt;Node6 -->
<g id="edge5_Node000001_Node000006" class="edge">
<title>Node1&#45;&gt;Node6</title>
<g id="a_edge5_Node000001_Node000006"><a xlink:title=" ">
<path fill="none" stroke="#63b8ff" d="M340.45,-120.95C376.06,-110.15 419.05,-97.11 449.24,-87.95"/>
<polygon fill="#63b8ff" stroke="#63b8ff" points="450.4,-91.26 458.95,-85.01 448.36,-84.56 450.4,-91.26"/>
</a>
</g>
</g>
<!-- Node7 -->
<g id="Node000007" class="node">
<title>Node7</title>
<g id="a_Node000007"><a xlink:title=" ">
<polygon fill="#e0e0e0" stroke="#999999" points="741,-85 587,-85 587,-66 741,-66 741,-85"/>
<text text-anchor="middle" x="664" y="-73" font-family="Helvetica,sans-Serif" font-size="10.00">boost/iostreams/stream.hpp</text>
</a>
</g>
</g>
<!-- Node1&#45;&gt;Node7 -->
<g id="edge6_Node000001_Node000007" class="edge">
<title>Node1&#45;&gt;Node7</title>
<g id="a_edge6_Node000001_Node000007"><a xlink:title=" ">
<path fill="none" stroke="#63b8ff" d="M356.87,-127.16C429.96,-115.1 535.98,-97.62 602.41,-86.66"/>
<polygon fill="#63b8ff" stroke="#63b8ff" points="603.02,-90.11 612.31,-85.03 601.88,-83.2 603.02,-90.11"/>
</a>
</g>
</g>
<!-- Node8 -->
<g id="Node000008" class="node">
<title>Node8</title>
<g id="a_Node000008"><a xlink:href="data__structure_8hpp.html" target="_top" xlink:title=" ">
<polygon fill="white" stroke="#666666" points="211,-85 103,-85 103,-66 211,-66 211,-85"/>
<text text-anchor="middle" x="157" y="-73" font-family="Helvetica,sans-Serif" font-size="10.00">data_structure.hpp</text>
</a>
</g>
</g>
<!-- Node1&#45;&gt;Node8 -->
<g id="edge7_Node000001_Node000008" class="edge">
<title>Node1&#45;&gt;Node8</title>
<g id="a_edge7_Node000001_Node000008"><a xlink:title=" ">
<path fill="none" stroke="#63b8ff" d="M239.65,-120.95C221.02,-110.93 198.81,-98.99 182.11,-90"/>
<polygon fill="#63b8ff" stroke="#63b8ff" points="183.44,-86.75 172.98,-85.09 180.12,-92.91 183.44,-86.75"/>
</a>
</g>
</g>
<!-- Node8&#45;&gt;Node2 -->
<g id="edge9_Node000008_Node000002" class="edge">
<title>Node8&#45;&gt;Node2</title>
<g id="a_edge9_Node000008_Node000002"><a xlink:title=" ">
<path fill="none" stroke="#63b8ff" d="M138.24,-65.99C116.65,-56.2 80.97,-40.02 56.07,-28.73"/>
<polygon fill="#63b8ff" stroke="#63b8ff" points="57.33,-25.46 46.78,-24.52 54.44,-31.83 57.33,-25.46"/>
</a>
</g>
</g>
<!-- Node8&#45;&gt;Node3 -->
<g id="edge10_Node000008_Node000003" class="edge">
<title>Node8&#45;&gt;Node3</title>
<g id="a_edge10_Node000008_Node000003"><a xlink:title=" ">
<path fill="none" stroke="#63b8ff" d="M148,-65.87C138.63,-56.88 123.75,-42.61 112.3,-31.64"/>
<polygon fill="#63b8ff" stroke="#63b8ff" points="114.68,-29.06 105.04,-24.67 109.83,-34.12 114.68,-29.06"/>
</a>
</g>
</g>
<!-- Node9 -->
<g id="Node000009" class="node">
<title>Node9</title>
<g id="a_Node000009"><a xlink:title=" ">
<polygon fill="#e0e0e0" stroke="#999999" points="186,-24.5 136,-24.5 136,-5.5 186,-5.5 186,-24.5"/>
<text text-anchor="middle" x="161" y="-12.5" font-family="Helvetica,sans-Serif" font-size="10.00">cstdint</text>
</a>
</g>
</g>
<!-- Node8&#45;&gt;Node9 -->
<g id="edge8_Node000008_Node000009" class="edge">
<title>Node8&#45;&gt;Node9</title>
<g id="a_edge8_Node000008_Node000009"><a xlink:title=" ">
<path fill="none" stroke="#63b8ff" d="M157.59,-65.87C158.15,-57.75 159,-45.31 159.71,-34.89"/>
<polygon fill="#63b8ff" stroke="#63b8ff" points="163.22,-34.88 160.41,-24.67 156.23,-34.41 163.22,-34.88"/>
</a>
</g>
</g>
<!-- Node10 -->
<g id="Node000010" class="node">
<title>Node10</title>
<g id="a_Node000010"><a xlink:title=" ">
<polygon fill="#e0e0e0" stroke="#999999" points="329.5,-30 204.5,-30 204.5,0 329.5,0 329.5,-30"/>
<text text-anchor="start" x="212.5" y="-18" font-family="Helvetica,sans-Serif" font-size="10.00">boost/date_time/posix</text>
<text text-anchor="middle" x="267" y="-7" font-family="Helvetica,sans-Serif" font-size="10.00">_time/ptime.hpp</text>
</a>
</g>
</g>
<!-- Node8&#45;&gt;Node10 -->
<g id="edge11_Node000008_Node000010" class="edge">
<title>Node8&#45;&gt;Node10</title>
<g id="a_edge11_Node000008_Node000010"><a xlink:title=" ">
<path fill="none" stroke="#63b8ff" d="M173.23,-65.87C188.5,-57.75 211.89,-45.31 231.48,-34.89"/>
<polygon fill="#63b8ff" stroke="#63b8ff" points="233.27,-37.9 240.46,-30.11 229.99,-31.72 233.27,-37.9"/>
</a>
</g>
</g>
</g>
</svg>
