<?xml version="1.0" encoding="UTF-8" standalone="no"?>
<!DOCTYPE svg PUBLIC "-//W3C//DTD SVG 1.1//EN"
 "http://www.w3.org/Graphics/SVG/1.1/DTD/svg11.dtd">
<!-- Generated by graphviz version 2.43.0 (0)
 -->
<!-- Title: /home/runner/work/opendal/opendal/bindings/cpp/include/opendal.hpp Pages: 1 -->
<svg width="591pt" height="159pt"
 viewBox="0.00 0.00 590.50 159.00" xmlns="http://www.w3.org/2000/svg" xmlns:xlink="http://www.w3.org/1999/xlink">
<g id="graph0" class="graph" transform="scale(1 1) rotate(0) translate(4 155)">
<title>/home/runner/work/opendal/opendal/bindings/cpp/include/opendal.hpp</title>
<!-- Node1 -->
<g id="Node000001" class="node">
<title>Node1</title>
<g id="a_Node000001"><a xlink:title=" ">
<polygon fill="#999999" stroke="#666666" points="331.5,-151 170.5,-151 170.5,-110 331.5,-110 331.5,-151"/>
<text text-anchor="start" x="178.5" y="-139" font-family="Helvetica,sans-Serif" font-size="10.00">/home/runner/work/opendal</text>
<text text-anchor="start" x="178.5" y="-128" font-family="Helvetica,sans-Serif" font-size="10.00">/opendal/bindings/cpp/include</text>
<text text-anchor="middle" x="251" y="-117" font-family="Helvetica,sans-Serif" font-size="10.00">/opendal.hpp</text>
</a>
</g>
</g>
<!-- Node2 -->
<g id="Node000002" class="node">
<title>Node2</title>
<g id="a_Node000002"><a xlink:title=" ">
<polygon fill="#e0e0e0" stroke="#999999" points="50,-74 0,-74 0,-55 50,-55 50,-74"/>
<text text-anchor="middle" x="25" y="-62" font-family="Helvetica,sans-Serif" font-size="10.00">cstring</text>
</a>
</g>
</g>
<!-- Node1&#45;&gt;Node2 -->
<g id="edge1_Node000001_Node000002" class="edge">
<title>Node1&#45;&gt;Node2</title>
<g id="a_edge1_Node000001_Node000002"><a xlink:title=" ">
<path fill="none" stroke="#63b8ff" d="M181.96,-109.95C141.67,-98.54 92.54,-84.63 60.1,-75.44"/>
<polygon fill="#63b8ff" stroke="#63b8ff" points="60.76,-71.99 50.19,-72.63 58.85,-78.72 60.76,-71.99"/>
</a>
</g>
</g>
<!-- Node3 -->
<g id="Node000003" class="node">
<title>Node3</title>
<g id="a_Node000003"><a xlink:title=" ">
<polygon fill="#e0e0e0" stroke="#999999" points="128,-74 68,-74 68,-55 128,-55 128,-74"/>
<text text-anchor="middle" x="98" y="-62" font-family="Helvetica,sans-Serif" font-size="10.00">iostream</text>
</a>
</g>
</g>
<!-- Node1&#45;&gt;Node3 -->
<g id="edge2_Node000001_Node000003" class="edge">
<title>Node1&#45;&gt;Node3</title>
<g id="a_edge2_Node000001_Node000003"><a xlink:title=" ">
<path fill="none" stroke="#63b8ff" d="M204.26,-109.95C179.42,-99.56 149.61,-87.09 127.9,-78.01"/>
<polygon fill="#63b8ff" stroke="#63b8ff" points="129.12,-74.72 118.54,-74.09 126.41,-81.18 129.12,-74.72"/>
</a>
</g>
</g>
<!-- Node4 -->
<g id="Node000004" class="node">
<title>Node4</title>
<g id="a_Node000004"><a xlink:title=" ">
<polygon fill="#e0e0e0" stroke="#999999" points="204,-74 146,-74 146,-55 204,-55 204,-74"/>
<text text-anchor="middle" x="175" y="-62" font-family="Helvetica,sans-Serif" font-size="10.00">memory</text>
</a>
</g>
</g>
<!-- Node1&#45;&gt;Node4 -->
<g id="edge3_Node000001_Node000004" class="edge">
<title>Node1&#45;&gt;Node4</title>
<g id="a_edge3_Node000001_Node000004"><a xlink:title=" ">
<path fill="none" stroke="#63b8ff" d="M227.78,-109.95C216.62,-100.55 203.45,-89.46 193.05,-80.7"/>
<polygon fill="#63b8ff" stroke="#63b8ff" points="195.31,-78.02 185.4,-74.26 190.8,-83.38 195.31,-78.02"/>
</a>
</g>
</g>
<!-- Node5 -->
<g id="Node000005" class="node">
<title>Node5</title>
<g id="a_Node000005"><a xlink:title=" ">
<polygon fill="#e0e0e0" stroke="#999999" points="253,-19 197,-19 197,0 253,0 253,-19"/>
<text text-anchor="middle" x="225" y="-7" font-family="Helvetica,sans-Serif" font-size="10.00">optional</text>
</a>
</g>
</g>
<!-- Node1&#45;&gt;Node5 -->
<g id="edge4_Node000001_Node000005" class="edge">
<title>Node1&#45;&gt;Node5</title>
<g id="a_edge4_Node000001_Node000005"><a xlink:title=" ">
<path fill="none" stroke="#63b8ff" d="M246.71,-109.85C241.82,-87.48 233.89,-51.19 229.09,-29.21"/>
<polygon fill="#63b8ff" stroke="#63b8ff" points="232.45,-28.2 226.9,-19.18 225.61,-29.69 232.45,-28.2"/>
</a>
</g>
</g>
<!-- Node6 -->
<g id="Node000006" class="node">
<title>Node6</title>
<g id="a_Node000006"><a xlink:title=" ">
<polygon fill="#e0e0e0" stroke="#999999" points="315,-19 271,-19 271,0 315,0 315,-19"/>
<text text-anchor="middle" x="293" y="-7" font-family="Helvetica,sans-Serif" font-size="10.00">string</text>
</a>
</g>
</g>
<!-- Node1&#45;&gt;Node6 -->
<g id="edge5_Node000001_Node000006" class="edge">
<title>Node1&#45;&gt;Node6</title>
<g id="a_edge5_Node000001_Node000006"><a xlink:title=" ">
<path fill="none" stroke="#63b8ff" d="M257.94,-109.85C265.9,-87.27 278.87,-50.52 286.61,-28.61"/>
<polygon fill="#63b8ff" stroke="#63b8ff" points="289.91,-29.77 289.94,-19.18 283.31,-27.44 289.91,-29.77"/>
</a>
</g>
</g>
<!-- Node7 -->
<g id="Node000007" class="node">
<title>Node7</title>
<g id="a_Node000007"><a xlink:title=" ">
<polygon fill="#e0e0e0" stroke="#999999" points="517.5,-74 424.5,-74 424.5,-55 517.5,-55 517.5,-74"/>
<text text-anchor="middle" x="471" y="-62" font-family="Helvetica,sans-Serif" font-size="10.00">unordered_map</text>
</a>
</g>
</g>
<!-- Node1&#45;&gt;Node7 -->
<g id="edge6_Node000001_Node000007" class="edge">
<title>Node1&#45;&gt;Node7</title>
<g id="a_edge6_Node000001_Node000007"><a xlink:title=" ">
<path fill="none" stroke="#63b8ff" d="M318.2,-109.95C355.49,-99.1 400.55,-86 432.03,-76.84"/>
<polygon fill="#63b8ff" stroke="#63b8ff" points="433.13,-80.16 441.75,-74.01 431.17,-73.44 433.13,-80.16"/>
</a>
</g>
</g>
<!-- Node8 -->
<g id="Node000008" class="node">
<title>Node8</title>
<g id="a_Node000008"><a xlink:title=" ">
<polygon fill="#e0e0e0" stroke="#999999" points="582.5,-74 535.5,-74 535.5,-55 582.5,-55 582.5,-74"/>
<text text-anchor="middle" x="559" y="-62" font-family="Helvetica,sans-Serif" font-size="10.00">vector</text>
</a>
</g>
</g>
<!-- Node1&#45;&gt;Node8 -->
<g id="edge7_Node000001_Node000008" class="edge">
<title>Node1&#45;&gt;Node8</title>
<g id="a_edge7_Node000001_Node000008"><a xlink:title=" ">
<path fill="none" stroke="#63b8ff" d="M331.59,-114.64C384.31,-104.61 454.87,-90.59 525.33,-74.29"/>
<polygon fill="#63b8ff" stroke="#63b8ff" points="526.33,-77.65 535.27,-71.97 524.74,-70.83 526.33,-77.65"/>
</a>
</g>
</g>
<!-- Node9 -->
<g id="Node000009" class="node">
<title>Node9</title>
<g id="a_Node000009"><a xlink:href="data__structure_8hpp.html" target="_top" xlink:title=" ">
<polygon fill="white" stroke="#666666" points="406,-74 298,-74 298,-55 406,-55 406,-74"/>
<text text-anchor="middle" x="352" y="-62" font-family="Helvetica,sans-Serif" font-size="10.00">data_structure.hpp</text>
</a>
</g>
</g>
<!-- Node1&#45;&gt;Node9 -->
<g id="edge8_Node000001_Node000009" class="edge">
<title>Node1&#45;&gt;Node9</title>
<g id="a_edge8_Node000001_Node000009"><a xlink:title=" ">
<path fill="none" stroke="#63b8ff" d="M281.85,-109.95C297.37,-100.12 315.81,-88.43 329.89,-79.51"/>
<polygon fill="#63b8ff" stroke="#63b8ff" points="331.87,-82.4 338.44,-74.09 328.12,-76.49 331.87,-82.4"/>
</a>
</g>
</g>
<!-- Node9&#45;&gt;Node5 -->
<g id="edge11_Node000009_Node000005" class="edge">
<title>Node9&#45;&gt;Node5</title>
<g id="a_edge11_Node000009_Node000005"><a xlink:title=" ">
<path fill="none" stroke="#63b8ff" d="M331.6,-54.98C310.98,-46.38 278.89,-32.99 255.31,-23.15"/>
<polygon fill="#63b8ff" stroke="#63b8ff" points="256.35,-19.79 245.78,-19.17 253.66,-26.25 256.35,-19.79"/>
</a>
</g>
</g>
<!-- Node9&#45;&gt;Node6 -->
<g id="edge12_Node000009_Node000006" class="edge">
<title>Node9&#45;&gt;Node6</title>
<g id="a_edge12_Node000009_Node000006"><a xlink:title=" ">
<path fill="none" stroke="#63b8ff" d="M342.52,-54.98C333.8,-47.15 320.66,-35.34 310.1,-25.86"/>
<polygon fill="#63b8ff" stroke="#63b8ff" points="312.43,-23.25 302.65,-19.17 307.75,-28.46 312.43,-23.25"/>
</a>
</g>
</g>
<!-- Node10 -->
<g id="Node000010" class="node">
<title>Node10</title>
<g id="a_Node000010"><a xlink:title=" ">
<polygon fill="#e0e0e0" stroke="#999999" points="383,-19 333,-19 333,0 383,0 383,-19"/>
<text text-anchor="middle" x="358" y="-7" font-family="Helvetica,sans-Serif" font-size="10.00">chrono</text>
</a>
</g>
</g>
<!-- Node9&#45;&gt;Node10 -->
<g id="edge9_Node000009_Node000010" class="edge">
<title>Node9&#45;&gt;Node10</title>
<g id="a_edge9_Node000009_Node000010"><a xlink:title=" ">
<path fill="none" stroke="#63b8ff" d="M352.99,-54.75C353.78,-47.8 354.9,-37.85 355.89,-29.13"/>
<polygon fill="#63b8ff" stroke="#63b8ff" points="359.38,-29.42 357.03,-19.09 352.42,-28.63 359.38,-29.42"/>
</a>
</g>
</g>
<!-- Node11 -->
<g id="Node000011" class="node">
<title>Node11</title>
<g id="a_Node000011"><a xlink:title=" ">
<polygon fill="#e0e0e0" stroke="#999999" points="451,-19 401,-19 401,0 451,0 451,-19"/>
<text text-anchor="middle" x="426" y="-7" font-family="Helvetica,sans-Serif" font-size="10.00">cstdint</text>
</a>
</g>
</g>
<!-- Node9&#45;&gt;Node11 -->
<g id="edge10_Node000009_Node000011" class="edge">
<title>Node9&#45;&gt;Node11</title>
<g id="a_edge10_Node000009_Node000011"><a xlink:title=" ">
<path fill="none" stroke="#63b8ff" d="M363.89,-54.98C375.15,-46.92 392.29,-34.65 405.71,-25.03"/>
<polygon fill="#63b8ff" stroke="#63b8ff" points="407.8,-27.84 413.89,-19.17 403.73,-22.15 407.8,-27.84"/>
</a>
</g>
</g>
</g>
</svg>
