<?xml version="1.0" encoding="UTF-8" standalone="no"?>
<!DOCTYPE svg PUBLIC "-//W3C//DTD SVG 1.1//EN"
 "http://www.w3.org/Graphics/SVG/1.1/DTD/svg11.dtd">
<!-- Generated by graphviz version 2.43.0 (0)
 -->
<!-- Title: /home/runner/work/opendal/opendal/bindings/cpp/include/opendal_async.hpp Pages: 1 -->
<svg width="539pt" height="104pt"
 viewBox="0.00 0.00 539.00 104.00" xmlns="http://www.w3.org/2000/svg" xmlns:xlink="http://www.w3.org/1999/xlink">
<g id="graph0" class="graph" transform="scale(1 1) rotate(0) translate(4 100)">
<title>/home/runner/work/opendal/opendal/bindings/cpp/include/opendal_async.hpp</title>
<!-- Node1 -->
<g id="Node000001" class="node">
<title>Node1</title>
<g id="a_Node000001"><a xlink:title=" ">
<polygon fill="#999999" stroke="#666666" points="302.5,-96 141.5,-96 141.5,-55 302.5,-55 302.5,-96"/>
<text text-anchor="start" x="149.5" y="-84" font-family="Helvetica,sans-Serif" font-size="10.00">/home/runner/work/opendal</text>
<text text-anchor="start" x="149.5" y="-73" font-family="Helvetica,sans-Serif" font-size="10.00">/opendal/bindings/cpp/include</text>
<text text-anchor="middle" x="222" y="-62" font-family="Helvetica,sans-Serif" font-size="10.00">/opendal_async.hpp</text>
</a>
</g>
</g>
<!-- Node2 -->
<g id="Node000002" class="node">
<title>Node2</title>
<g id="a_Node000002"><a xlink:title=" ">
<polygon fill="#e0e0e0" stroke="#999999" points="50,-19 0,-19 0,0 50,0 50,-19"/>
<text text-anchor="middle" x="25" y="-7" font-family="Helvetica,sans-Serif" font-size="10.00">cstdint</text>
</a>
</g>
</g>
<!-- Node1&#45;&gt;Node2 -->
<g id="edge1_Node000001_Node000002" class="edge">
<title>Node1&#45;&gt;Node2</title>
<g id="a_edge1_Node000001_Node000002"><a xlink:title=" ">
<path fill="none" stroke="#63b8ff" d="M161.82,-54.95C128.47,-44.11 88.16,-31.02 59.97,-21.86"/>
<polygon fill="#63b8ff" stroke="#63b8ff" points="60.76,-18.44 50.17,-18.68 58.6,-25.09 60.76,-18.44"/>
</a>
</g>
</g>
<!-- Node3 -->
<g id="Node000003" class="node">
<title>Node3</title>
<g id="a_Node000003"><a xlink:title=" ">
<polygon fill="#e0e0e0" stroke="#999999" points="124,-19 68,-19 68,0 124,0 124,-19"/>
<text text-anchor="middle" x="96" y="-7" font-family="Helvetica,sans-Serif" font-size="10.00">optional</text>
</a>
</g>
</g>
<!-- Node1&#45;&gt;Node3 -->
<g id="edge2_Node000001_Node000003" class="edge">
<title>Node1&#45;&gt;Node3</title>
<g id="a_edge2_Node000001_Node000003"><a xlink:title=" ">
<path fill="none" stroke="#63b8ff" d="M183.51,-54.95C163.6,-44.84 139.83,-32.76 122.09,-23.75"/>
<polygon fill="#63b8ff" stroke="#63b8ff" points="123.42,-20.5 112.92,-19.09 120.25,-26.74 123.42,-20.5"/>
</a>
</g>
</g>
<!-- Node4 -->
<g id="Node000004" class="node">
<title>Node4</title>
<g id="a_Node000004"><a xlink:title=" ">
<polygon fill="#e0e0e0" stroke="#999999" points="182,-19 142,-19 142,0 182,0 182,-19"/>
<text text-anchor="middle" x="162" y="-7" font-family="Helvetica,sans-Serif" font-size="10.00">span</text>
</a>
</g>
</g>
<!-- Node1&#45;&gt;Node4 -->
<g id="edge3_Node000001_Node000004" class="edge">
<title>Node1&#45;&gt;Node4</title>
<g id="a_edge3_Node000001_Node000004"><a xlink:title=" ">
<path fill="none" stroke="#63b8ff" d="M203.67,-54.95C195.21,-45.92 185.28,-35.33 177.24,-26.75"/>
<polygon fill="#63b8ff" stroke="#63b8ff" points="179.61,-24.16 170.21,-19.26 174.5,-28.95 179.61,-24.16"/>
</a>
</g>
</g>
<!-- Node5 -->
<g id="Node000005" class="node">
<title>Node5</title>
<g id="a_Node000005"><a xlink:title=" ">
<polygon fill="#e0e0e0" stroke="#999999" points="244,-19 200,-19 200,0 244,0 244,-19"/>
<text text-anchor="middle" x="222" y="-7" font-family="Helvetica,sans-Serif" font-size="10.00">string</text>
</a>
</g>
</g>
<!-- Node1&#45;&gt;Node5 -->
<g id="edge4_Node000001_Node000005" class="edge">
<title>Node1&#45;&gt;Node5</title>
<g id="a_edge4_Node000001_Node000005"><a xlink:title=" ">
<path fill="none" stroke="#63b8ff" d="M222,-54.95C222,-46.85 222,-37.5 222,-29.47"/>
<polygon fill="#63b8ff" stroke="#63b8ff" points="225.5,-29.26 222,-19.26 218.5,-29.26 225.5,-29.26"/>
</a>
</g>
</g>
<!-- Node6 -->
<g id="Node000006" class="node">
<title>Node6</title>
<g id="a_Node000006"><a xlink:title=" ">
<polygon fill="#e0e0e0" stroke="#999999" points="335.5,-19 262.5,-19 262.5,0 335.5,0 335.5,-19"/>
<text text-anchor="middle" x="299" y="-7" font-family="Helvetica,sans-Serif" font-size="10.00">string_view</text>
</a>
</g>
</g>
<!-- Node1&#45;&gt;Node6 -->
<g id="edge5_Node000001_Node000006" class="edge">
<title>Node1&#45;&gt;Node6</title>
<g id="a_edge5_Node000001_Node000006"><a xlink:title=" ">
<path fill="none" stroke="#63b8ff" d="M245.52,-54.95C256.83,-45.55 270.18,-34.46 280.71,-25.7"/>
<polygon fill="#63b8ff" stroke="#63b8ff" points="283.01,-28.34 288.46,-19.26 278.53,-22.96 283.01,-28.34"/>
</a>
</g>
</g>
<!-- Node7 -->
<g id="Node000007" class="node">
<title>Node7</title>
<g id="a_Node000007"><a xlink:title=" ">
<polygon fill="#e0e0e0" stroke="#999999" points="446.5,-19 353.5,-19 353.5,0 446.5,0 446.5,-19"/>
<text text-anchor="middle" x="400" y="-7" font-family="Helvetica,sans-Serif" font-size="10.00">unordered_map</text>
</a>
</g>
</g>
<!-- Node1&#45;&gt;Node7 -->
<g id="edge6_Node000001_Node000007" class="edge">
<title>Node1&#45;&gt;Node7</title>
<g id="a_edge6_Node000001_Node000007"><a xlink:title=" ">
<path fill="none" stroke="#63b8ff" d="M276.37,-54.95C305.8,-44.37 341.2,-31.64 366.57,-22.52"/>
<polygon fill="#63b8ff" stroke="#63b8ff" points="367.88,-25.77 376.1,-19.09 365.51,-19.18 367.88,-25.77"/>
</a>
</g>
</g>
<!-- Node8 -->
<g id="Node000008" class="node">
<title>Node8</title>
<g id="a_Node000008"><a xlink:title=" ">
<polygon fill="#e0e0e0" stroke="#999999" points="531,-19 465,-19 465,0 531,0 531,-19"/>
<text text-anchor="middle" x="498" y="-7" font-family="Helvetica,sans-Serif" font-size="10.00">async.rs.h</text>
</a>
</g>
</g>
<!-- Node1&#45;&gt;Node8 -->
<g id="edge7_Node000001_Node000008" class="edge">
<title>Node1&#45;&gt;Node8</title>
<g id="a_edge7_Node000001_Node000008"><a xlink:title=" ">
<path fill="none" stroke="#63b8ff" d="M302.57,-55.82C352.44,-44.25 414.49,-29.86 455.12,-20.44"/>
<polygon fill="#63b8ff" stroke="#63b8ff" points="456.02,-23.83 464.97,-18.16 454.44,-17.01 456.02,-23.83"/>
</a>
</g>
</g>
</g>
</svg>
